<?xml version="1.0" encoding="utf-8"?>
<!-- Generator: Adobe Illustrator 23.0.5, SVG Export Plug-In . SVG Version: 6.00 Build 0)  -->
<svg version="1.1" id="Layer_1" xmlns="http://www.w3.org/2000/svg" xmlns:xlink="http://www.w3.org/1999/xlink" x="0px" y="0px"
	 viewBox="0 0 1077.9 830.3" style="enable-background:new 0 0 1077.9 830.3;" xml:space="preserve">
<style type="text/css">
	.st0{opacity:0.1;fill:#30E64D;enable-background:new    ;}
	.st1{opacity:0.1;}
	.st2{fill:#150006;}
	.st3{opacity:0.6;}
	.st4{fill:#FF3F36;}
	.st5{fill:#FCFF00;}
	.st6{fill:#61FF5B;}
	.st7{fill:#5AB055;}
	.st8{fill:#FFFFFF;}
	.st9{fill:url(#SVGID_1_);}
	.st10{fill:#EACA05;}
	.st11{fill:#DF3A32;}
	.st12{opacity:0.1;fill:#6C63FF;enable-background:new    ;}
	.st13{fill:url(#SVGID_2_);}
	.st14{fill:url(#SVGID_3_);}
	.st15{fill:#F3F3F3;}
	.st16{fill:#E2E2E2;}
	.st17{fill:url(#SVGID_4_);fill-opacity:0.2;}
	.st18{opacity:5.000000e-02;enable-background:new    ;}
	.st19{fill:#CD151E;}
	.st20{fill:#FA5153;}
	.st21{fill:#ACACAC;}
	.st22{fill:#EEEEEE;}
	.st23{fill:url(#SVGID_5_);}
	.st24{fill:#ECB4B6;}
	.st25{opacity:0.1;enable-background:new    ;}
	.st26{fill:#C17174;}
	.st27{opacity:0.25;fill:#FFFFFF;enable-background:new    ;}
	.st28{fill:#9F9EFF;}
	.st29{fill:#5E5A6B;}
	.st30{fill:#464353;}
	.st31{fill:url(#SVGID_6_);}
	.st32{fill:url(#SVGID_7_);}
	.st33{fill:url(#SVGID_8_);}
	.st34{fill:url(#SVGID_9_);}
	.st35{fill:#3E373A;}
	.st36{fill:#E7C7CA;}
	.st37{fill:#BE6F72;}
	.st38{fill:#4B4B5B;}
	.st39{opacity:0.3;fill:#FFFFFF;enable-background:new    ;}
	.st40{fill:#00B40F;}
	.st41{fill:none;stroke:#565987;stroke-miterlimit:10;}
	.st42{fill:#00B432;}
	.st43{fill:#6C63FF;}
	.st44{fill:#FFD037;}
	.st45{fill:#A8A8A8;}
	.st46{opacity:0.2;enable-background:new    ;}
	.st47{fill:#3F3D56;}
	.st48{fill:none;stroke:#3F3D56;stroke-width:2;stroke-miterlimit:10;}
	.st49{fill:#8ACBFF;}
	.st50{fill:#FF2B00;}
	.st51{fill:#FF1F0A;}
	.st52{fill:#FF3900;}
</style>
<title>mobile browsers</title>
<path class="st0" d="M663.8,111.3c-46.3,39.3-106.2,36.7-158.8,16.3S404.2,70.8,352.9,45C310,23.3,264.9,9.1,219.3,2.8
	c-65.3-9-138.2,2-183.7,65.4c-50.7,70.7-46.8,198.2,8,263c27.9,33,64.4,49.2,96.2,75s61.3,68.6,58.6,118.3
	c-2.5,46-31.7,81.4-61.9,103.5c-23.3,17.1-52.1,35.8-54.9,71.3c-2.7,34.3,21.4,61.2,44.5,76.5c75.3,49.9,168,49.4,243-1.3
	c26.8-18.1,51.3-42.1,79.4-56.2c73.7-37,154.8,0.3,232.8,13.9c66,11.5,133.7,5.6,198-17.5c38.6-13.8,77.4-35,104.5-74.4
	c19.6-28.4,31.8-64.3,43.2-99.8c12.2-37.9,23.9-76,35.2-114.4c6.8-23,13.4-46.5,15.2-71.2c3.2-44.7-10.2-88.8-28.3-126.5
	C1006,139,933.5,76,854.9,60s-161.7,15.2-222.6,83.6"/>
<g class="st1">
	<path class="st2" d="M718.6,222.5c0,0-27.3,6.3-34.9,22l-8.3-2.9v10.2l-17.3-4.6c0,0,11.7,6.3,5.1,14.6s-26.3,23.1-26.3,23.1
		s-13.4-12.4,4.6-36.6C659.6,224.2,698.4,206.9,718.6,222.5z"/>
	<path class="st2" d="M716.6,215.4c0,0-47.1-66.6-112.3-12.2c0,0,20.4,1,25.8,4.6c0,0,0.2-13.9,4.9-10.2l2.7,10.7l15.1,2.2
		c0,0,3.5-12.4,7.7-10.2l5.7,10.7l12.2,0.7c0,0,2.4-11.2,5.1-9.5s4.9,8.5,4.9,8.5S709.8,209.6,716.6,215.4z"/>
	<path class="st2" d="M721.3,215.4l-11.2-27.3c0,0,0.5-9.5,3.7-10l-6.1,2.4l-5.1-5.9l3.7-9.5c0,0-7.3,7.1-9.8,7.1
		s-17.5-9.5-17.5-9.5l7.6-9c0,0-9.8,10.5-17.3,7.1s-34.1-15.4-25.8-17.9s24.9-15.1,51.2-1.5C720.8,155.2,741.3,190.1,721.3,215.4z"
		/>
	<path class="st2" d="M726.1,215.4l18.5-33.6l6.8,1.9l-1.2-10.2l14.4-9.8l3.2,5.1v-10.7l16.3-6.1l4.1,4.4c0,0-2.4-9.5,10-8
		s17.3-0.1,17.3-0.1s-11.7,16.6-18.8,22.6l-9.3-3.1l4,8.8l-17.2,10c0,0-10.2-6.6-10.7-4.8l4.1,8.5
		C767.9,190.4,725.2,210.8,726.1,215.4z"/>
	<path class="st2" d="M732.7,219.6c0,0,10-18.3,25.4-16.8l4.6,5.9c0,0-4.1-9.8,12.4-13.2s40.5-5.1,40.5-5.1l4.4,8.3l5.1-8.3
		l18.3,8.3c0,0-4.2,14.6-33.4,16.8l-4.6-7.1l-0.7,7.1l-16.6,5.4c0,0-4.1-8.8-5.9-7.6c-1.7,1.2-1,7.6-1,7.6S757.1,227.2,732.7,219.6z
		"/>
	<path class="st2" d="M727.9,223.3c0,0,3.9,26.5,9.3,29.7s15.1,4.9,15.1,4.9l-15.9,2l8,12.7l14.9,6.8l-11.2,2.2l-0.7,6.6l6.3,2.9
		l-7.3,3.1c0,0-4.9,18.3-11.9,27.1c0,0,18.8-4.6,24.9-14.6c6.1-10,9-25.6,9-25.6s1-22.9-3.2-29C761,245.9,732.5,221.6,727.9,223.3z"
		/>
	<polygon class="st2" points="721.8,229.8 718.6,231.8 712.7,244 723,244 	"/>
	<path class="st2" d="M720.8,246.4l-10,2.2v7.3c0,0,5.9,2.2,5.9,4.1L720.8,246.4z"/>
	<polygon class="st2" points="707.9,257.6 705.4,268.1 714.2,272.2 714.2,262.7 	"/>
	<path class="st2" d="M704.6,270.8l-3.2,17.4c0,0,8.9-4.5,10.5-3.3l0.9-9.3C712.7,275.7,706.9,269.4,704.6,270.8z"/>
	<path class="st2" d="M700.5,291.4l0.8,5.7l10.3,3v-10.5l-2.6-3C709.1,286.7,700.2,288.8,700.5,291.4z"/>
	<path class="st2" d="M699.1,300.2c0.1,0.7,0,15.1,0,15.1h13l-0.5-11.6L699.1,300.2z"/>
	<polygon class="st2" points="699.1,317 700.5,334.6 712.7,327.1 712.1,318.7 	"/>
	<polygon class="st2" points="700.5,336.6 701.4,348.7 716.3,347.9 714.2,328.8 	"/>
	<polygon class="st2" points="701.4,352.1 703.8,363.5 718.6,360.9 716.3,350.3 	"/>
	<polygon class="st2" points="703.2,367.6 705.6,376.5 722,378.9 719.3,365.4 	"/>
	<path class="st2" d="M705.9,380.3l6.7,22.7c0,0,7.9-14.3,13.4-13.4l-2.7-8.5C723.4,381,707.3,378.4,705.9,380.3z"/>
	<path class="st2" d="M713.6,405.8l5,13.3c0,0,16-6,18.3-4.4l-10-23.4C726.9,391.3,717.6,405.3,713.6,405.8z"/>
	<polygon class="st2" points="720.8,422.3 728,436.7 743.2,427.2 736.9,416.9 	"/>
	<polygon class="st2" points="729.9,439.3 735.9,448.7 760.2,448.7 745,429.5 	"/>
	<polygon class="st2" points="736.9,451.9 754,475.1 771.1,460.5 762.7,451.9 	"/>
	<polygon class="st2" points="772.7,463.5 756.1,476.6 778.5,485.1 786.4,475.1 	"/>
	<path class="st2" d="M870.4,283.4c0,0,21.1,4.9,26.9,16.9l6.4-2.3v7.9l13.3-3.6c0,0-9,4.9-4,11.3s20.3,17.9,20.3,17.9
		s10.3-9.6-3.6-28.2S886,271.4,870.4,283.4z"/>
	<path class="st2" d="M871.9,278c0,0,36.3-51.3,86.6-9.4c0,0-15.7,0.8-19.8,3.6c0,0-0.2-10.7-3.8-7.9l-2.1,8.3l-11.7,1.7
		c0,0-2.7-9.6-6-7.9l-4.4,8.3l-9.4,0.6c0,0-1.9-8.6-4-7.3s-3.8,6.6-3.8,6.6S877.2,273.5,871.9,278z"/>
	<path class="st2" d="M868.3,278l8.7-21c0,0-0.4-7.3-2.8-7.7l4.7,1.9l4-4.5l-2.8-7.3c0,0,5.6,5.5,7.5,5.5c1.9,0,13.5-7.3,13.5-7.3
		l-5.8-7c0,0,7.5,8.1,13.3,5.5s26.4-11.8,19.9-13.7s-19.2-11.7-39.5-1.1C868.7,231.6,852.9,258.4,868.3,278z"/>
	<path class="st2" d="M864.6,278l-14.3-25.9l-5.3,1.4l0.9-7.9l-11-7.5l-2.5,4v-8.3l-12.6-4.7l-3.2,3.4c0,0,1.9-7.3-7.7-6.2
		c-9.6,1.1-13.3-0.1-13.3-0.1s9,12.9,14.5,17.5l7.1-2.4l-3.1,6.8l13.2,7.7c0,0,7.9-5.1,8.3-3.7l-3.2,6.5
		C832.5,258.7,865.3,274.4,864.6,278z"/>
	<path class="st2" d="M859.5,281.2c0,0-7.7-14.1-19.6-13l-3.6,4.5c0,0,3.2-7.5-9.6-10.1c-12.8-2.6-31.2-3.9-31.2-3.9l-3.4,6.4
		l-4-6.4l-14.1,6.4c0,0,3.2,11.2,25.8,12.9l3.6-5.5l0.6,5.5l12.8,4.2c0,0,3.2-6.8,4.5-5.8s0.8,5.8,0.8,5.8S840.7,287,859.5,281.2z"
		/>
	<path class="st2" d="M863.3,284c0,0-3,20.5-7.1,22.9c-4.2,2.4-11.7,3.8-11.7,3.8l12.2,1.5l-6.2,9.8l-11.5,5.3l8.6,1.7l0.6,5.1
		l-4.9,2.3l5.6,2.5c0,0,3.8,14.1,9.2,20.9c0,0-14.5-3.6-19.2-11.3c-4.7-7.7-7-19.7-7-19.7s-0.8-17.7,2.4-22.4S859.7,282.8,863.3,284
		z"/>
	<polygon class="st2" points="868,289.1 870.4,290.6 874.9,300 867,300 	"/>
	<path class="st2" d="M868.7,301.9l7.7,1.7v5.6c0,0-4.5,1.7-4.5,3.2L868.7,301.9z"/>
	<polygon class="st2" points="878.7,310.5 880.6,318.6 873.8,321.8 873.8,314.5 	"/>
	<path class="st2" d="M881.2,320.6l2.5,13.4c0,0-6.9-3.5-8.1-2.5l-0.7-7.1C874.9,324.4,879.5,319.6,881.2,320.6z"/>
	<path class="st2" d="M884.3,336.5l-0.7,4.4l-7.9,2.4v-8.1l2-2.4C877.8,332.9,884.6,334.6,884.3,336.5z"/>
	<path class="st2" d="M885.5,343.3c-0.1,0.6,0,11.6,0,11.6h-10.1l0.4-8.9L885.5,343.3z"/>
	<polygon class="st2" points="885.5,356.3 884.3,369.8 874.9,364.1 875.4,357.6 	"/>
	<polygon class="st2" points="884.3,371.4 883.7,380.7 872.2,380.1 873.8,365.4 	"/>
	<polygon class="st2" points="883.7,383.4 881.8,392.1 870.4,390.1 872.2,381.9 	"/>
	<polygon class="st2" points="882.3,395.3 880.4,402.1 867.8,404 869.8,393.6 	"/>
	<path class="st2" d="M880.2,405.1l-5.2,17.5c0,0-6.1-11-10.3-10.3l2.1-6.6C866.8,405.6,879.2,403.6,880.2,405.1z"/>
	<path class="st2" d="M874.3,424.7l-3.9,10.3c0,0-12.3-4.6-14.1-3.4l7.7-18C864,413.6,871.2,424.3,874.3,424.7z"/>
	<polygon class="st2" points="868.7,437.5 863.2,448.6 851.4,441.3 856.3,433.3 	"/>
	<polygon class="st2" points="861.7,450.6 857.1,457.8 838.4,457.8 850,443 	"/>
	<polygon class="st2" points="856.3,460.3 843.2,478.2 829.9,466.9 836.4,460.3 	"/>
	<polygon class="st2" points="828.7,469.2 841.5,479.3 824.3,485.9 818.2,478.2 	"/>
	<path class="st2" d="M693.1,491.6c0,0,50.8-21.6,92.3-17c2.8,0.3,5.7,0.5,8.5,0.5c17,0.2,77,1.8,104.7,16.4L693.1,491.6z"/>
</g>
<g class="st3">
	<path class="st4" d="M878.2,35.7c0,0,27-1.2,41.4,26h-43.7c0,0-8.2-0.3-15.3,9.7c-2,4.2-4.2,8.5-1.8,17
		c-3.5-5.9-18.7-32.3-18.7-32.3S850.8,36.8,878.2,35.7L878.2,35.7z"/>
	<path class="st5" d="M918.1,104.7c0,0-12.5,24-43.2,22.8c3.8-6.6,21.8-37.8,21.8-37.8s4.4-7-0.8-18.1c-2.6-3.9-5.3-7.9-13.9-10
		c6.9-0.1,37.3,0,37.3,0S930.8,80.5,918.1,104.7z"/>
	<path class="st6" d="M838.4,104.9c0,0-14.6-22.8,1.8-48.8C844,62.6,862,93.9,862,93.9s3.9,7.3,16.1,8.4c4.6-0.3,9.5-0.6,15.6-7
		c-3.4,6-18.7,32.3-18.7,32.3S853,128,838.4,104.9L838.4,104.9z"/>
	<path class="st7" d="M874.9,127.8l6.2-25.6c4.8-0.7,9.2-3.1,12.4-6.7C890,101.6,874.9,127.8,874.9,127.8z"/>
	<path class="st8" d="M857.6,82c0-11.3,9.2-20.5,20.5-20.5c11.3,0,20.5,9.2,20.5,20.5s-9.2,20.5-20.5,20.5l0,0
		C866.7,102.5,857.6,93.3,857.6,82z"/>
	
		<linearGradient id="SVGID_1_" gradientUnits="userSpaceOnUse" x1="-418.372" y1="54.379" x2="-418.372" y2="54.419" gradientTransform="matrix(923.39 0 0 923.39 387198.5313 -50149.6328)">
		<stop  offset="0" style="stop-color:#86BBE5"/>
		<stop  offset="1" style="stop-color:#1072BA"/>
	</linearGradient>
	<path class="st9" d="M861,82c0-9.4,7.6-17,17-17s17,7.6,17,17s-7.6,17-17,17S861,91.4,861,82z"/>
	<path class="st10" d="M919.4,61.6L894.1,69c-3-3.8-7.2-6.4-12-7.4C889.3,61.6,919.5,61.6,919.4,61.6L919.4,61.6z"/>
	<path class="st11" d="M858.3,87.5c-3.5-6.2-18.2-31.4-18.2-31.4l18.7,18.5c-1.2,3-1.7,6.4-1.2,9.6L858.3,87.5z"/>
</g>
<ellipse transform="matrix(0.9869 -0.1611 0.1611 0.9869 -93.061 158.3458)" class="st12" cx="930" cy="653.1" rx="111.1" ry="13.8"/>
<g class="st3">
	
		<linearGradient id="SVGID_2_" gradientUnits="userSpaceOnUse" x1="-418.6314" y1="55.3175" x2="-418.6314" y2="55.2575" gradientTransform="matrix(2421.8799 0 0 2421.8799 1014326.6875 -133346.1719)">
		<stop  offset="0.25" style="stop-color:#DBDBDA"/>
		<stop  offset="1" style="stop-color:#FFFFFF"/>
	</linearGradient>
	<circle class="st13" cx="451.7" cy="547.7" r="70.9"/>
	
		<radialGradient id="SVGID_3_" cx="-418.6345" cy="55.2587" r="4.000000e-02" gradientTransform="matrix(2240.23 0 0 2240.23 938306.1875 -123256.2344)" gradientUnits="userSpaceOnUse">
		<stop  offset="0" style="stop-color:#2ABCE1"/>
		<stop  offset="0.11" style="stop-color:#2ABBE1"/>
		<stop  offset="1" style="stop-color:#3375F8"/>
	</radialGradient>
	<circle class="st14" cx="451.7" cy="547.7" r="65.6"/>
	<path class="st15" d="M451.8,498.1c-0.4,0-0.8-0.3-0.8-0.8v-11.6c0-0.5,0.4-0.8,0.8-0.8s0.8,0.4,0.8,0.8v11.6
		C452.6,497.7,452.3,498.1,451.8,498.1L451.8,498.1z"/>
	<path class="st8" d="M451.8,498.1c-0.5,0-0.9-0.4-0.9-0.8v-11.6c0-0.5,0.4-0.8,0.9-0.8c0.5,0,0.9,0.4,0.9,0.8v11.6
		C452.7,497.8,452.3,498.1,451.8,498.1z M451.8,485c-0.4,0-0.7,0.3-0.8,0.7v11.6c0,0.4,0.4,0.7,0.8,0.7c0,0,0,0,0,0
		c0.4,0,0.7-0.3,0.8-0.7v-11.6C452.5,485.3,452.2,485,451.8,485z"/>
	<path class="st15" d="M457.4,491.9c-0.4,0-0.8-0.4-0.8-0.8l0.4-5.1c0-0.4,0.4-0.8,0.9-0.7c0.4,0,0.8,0.4,0.8,0.8l-0.4,5.1
		C458.2,491.6,457.8,491.9,457.4,491.9C457.4,491.9,457.4,491.9,457.4,491.9z"/>
	<path class="st8" d="M457.4,491.9c-0.5,0-0.8-0.4-0.8-0.9l0.4-5.1c0-0.5,0.5-0.8,0.9-0.8c0.5,0,0.8,0.4,0.8,0.9l-0.4,5.1
		C458.3,491.6,457.9,492,457.4,491.9C457.4,491.9,457.4,491.9,457.4,491.9z M457.9,485.2c-0.4,0-0.7,0.3-0.8,0.7l-0.4,5.1
		c0,0.4,0.3,0.7,0.7,0.8c0.4,0,0.7-0.3,0.8-0.7l0.4-5.1C458.6,485.6,458.2,485.3,457.9,485.2z"/>
	<path class="st15" d="M461.5,499.1c-0.4-0.1-0.7-0.5-0.7-0.9l2.3-11.4c0.1-0.4,0.5-0.7,0.9-0.6c0,0,0.1,0,0.1,0
		c0.4,0.1,0.7,0.5,0.7,0.9l-2.3,11.4C462.3,498.9,461.9,499.2,461.5,499.1L461.5,499.1z"/>
	<path class="st8" d="M461.5,499.1c-0.5-0.1-0.8-0.5-0.7-1l2.3-11.4c0.1-0.4,0.5-0.7,1-0.7c0.5,0.1,0.8,0.5,0.7,1l-2.3,11.4
		C462.4,498.9,462,499.2,461.5,499.1z M464.1,486.2c-0.4-0.1-0.8,0.2-0.9,0.6l-2.3,11.4c-0.1,0.4,0.2,0.8,0.6,0.9
		c0.4,0.1,0.8-0.2,0.9-0.6l2.3-11.4C464.8,486.7,464.5,486.3,464.1,486.2L464.1,486.2z"/>
	<path class="st15" d="M468.2,494.1c-0.4-0.1-0.7-0.6-0.6-1c0,0,0,0,0,0l0,0l1.4-5c0.1-0.4,0.5-0.7,1-0.6c0,0,0,0,0,0
		c0.4,0.1,0.7,0.6,0.6,1l-1.4,5C469,494,468.6,494.2,468.2,494.1C468.2,494.1,468.2,494.1,468.2,494.1z"/>
	<path class="st8" d="M468.2,494.1c-0.4-0.1-0.7-0.6-0.6-1c0,0,0,0,0,0l1.4-5c0.1-0.4,0.6-0.7,1-0.6c0.4,0.1,0.7,0.5,0.6,1
		c0,0,0,0,0,0.1l-1.4,5C469,494,468.6,494.3,468.2,494.1C468.1,494.2,468.1,494.2,468.2,494.1L468.2,494.1z M470,487.7
		c-0.4-0.1-0.8,0.1-0.9,0.5l-1.4,5c-0.1,0.4,0.1,0.8,0.5,0.9c0,0,0,0,0.1,0c0.4,0.1,0.8-0.1,0.9-0.5l1.4-5
		C470.6,488.2,470.4,487.8,470,487.7L470,487.7z"/>
	<path class="st15" d="M470.9,501.9c-0.4-0.2-0.6-0.6-0.5-1c0,0,0,0,0,0l4.4-10.7c0.2-0.4,0.6-0.6,1-0.4c0,0,0,0,0.1,0
		c0.4,0.2,0.6,0.6,0.4,1l-4.4,10.7C471.8,501.9,471.3,502,470.9,501.9L470.9,501.9z"/>
	<path class="st8" d="M470.9,502c-0.4-0.2-0.7-0.7-0.5-1.1l4.4-10.7c0.2-0.4,0.7-0.6,1.2-0.5c0.4,0.2,0.7,0.7,0.5,1.1l-4.4,10.7
		C471.9,502,471.3,502.2,470.9,502C470.9,502,470.9,502,470.9,502z M475.9,489.8c-0.4-0.2-0.8,0-1,0.4l-4.4,10.7
		c-0.1,0.4,0,0.8,0.4,0.9c0,0,0,0,0,0c0.4,0.2,0.8,0,1-0.4c0,0,0,0,0,0l4.4-10.7C476.4,490.4,476.2,490,475.9,489.8z"/>
	<path class="st15" d="M478.4,498.4c-0.4-0.2-0.6-0.7-0.4-1l2.3-4.6c0.2-0.4,0.7-0.5,1.1-0.3c0.4,0.2,0.5,0.7,0.4,1l-2.3,4.6
		C479.3,498.4,478.8,498.6,478.4,498.4C478.4,498.4,478.4,498.4,478.4,498.4z"/>
	<path class="st8" d="M478.4,498.4c-0.4-0.2-0.6-0.7-0.4-1.1c0,0,0,0,0,0l2.3-4.6c0.2-0.5,0.7-0.7,1.1-0.5s0.7,0.7,0.5,1.1
		c0,0.1,0,0.1-0.1,0.2l-2.3,4.6C479.3,498.5,478.8,498.6,478.4,498.4C478.4,498.4,478.4,498.4,478.4,498.4z M481.4,492.4
		c-0.4-0.2-0.8,0-1,0.3c0,0,0,0,0,0l-2.3,4.6c-0.1,0.4,0,0.8,0.3,1c0.4,0.2,0.8,0,1-0.3c0,0,0,0,0,0l2.3-4.6
		C481.9,493,481.8,492.6,481.4,492.4L481.4,492.4z"/>
	<path class="st15" d="M479.4,506.6c-0.4-0.2-0.5-0.7-0.3-1c0,0,0,0,0-0.1l6.4-9.6c0.2-0.4,0.7-0.5,1.1-0.2c0,0,0,0,0,0
		c0.4,0.2,0.5,0.7,0.3,1c0,0,0,0,0,0.1l-6.4,9.6C480.3,506.7,479.9,506.8,479.4,506.6C479.5,506.6,479.5,506.6,479.4,506.6z"/>
	<path class="st8" d="M479.4,506.6c-0.4-0.3-0.5-0.8-0.3-1.2l6.4-9.6c0.3-0.4,0.8-0.5,1.2-0.2c0,0,0,0,0,0c0.4,0.3,0.5,0.8,0.3,1.2
		l-6.4,9.6C480.4,506.8,479.8,506.9,479.4,506.6z M486.8,495.7c-0.3-0.2-0.8-0.2-1,0.2l-6.4,9.6c-0.2,0.3-0.1,0.8,0.2,1c0,0,0,0,0,0
		c0.3,0.2,0.8,0.2,1-0.2l6.4-9.5C487.2,496.4,487.1,496,486.8,495.7L486.8,495.7z"/>
	<path class="st15" d="M487.5,504.5c-0.3-0.3-0.4-0.8-0.2-1.1l3.2-4c0.3-0.3,0.8-0.4,1.1-0.1c0.3,0.3,0.4,0.8,0.2,1.1l-3.2,4
		C488.4,504.7,487.9,504.7,487.5,504.5L487.5,504.5z"/>
	<path class="st8" d="M487.5,504.6c-0.4-0.3-0.5-0.8-0.2-1.2l3.2-4c0.3-0.4,0.8-0.4,1.1-0.2c0,0,0.1,0,0.1,0.1
		c0.4,0.3,0.5,0.8,0.2,1.2c0,0,0,0,0,0l-3.2,4C488.4,504.9,487.9,504.9,487.5,504.6C487.5,504.6,487.5,504.6,487.5,504.6z
		 M491.6,499.3c-0.3-0.2-0.8-0.2-1,0.1c0,0,0,0,0,0l-3.2,4c-0.2,0.3-0.1,0.8,0.2,1c0.3,0.3,0.8,0.2,1-0.1c0,0,0,0,0,0l3.2-4
		C492.1,500,492,499.5,491.6,499.3L491.6,499.3z"/>
	<path class="st15" d="M487,512.8c-0.3-0.3-0.3-0.8-0.1-1.1c0,0,0,0,0.1-0.1l8.2-8.1c0.3-0.3,0.8-0.3,1.1,0c0.3,0.3,0.3,0.8,0,1.1
		l-8.1,8.1C487.9,513.1,487.4,513.2,487,512.8C487,512.8,487,512.8,487,512.8z"/>
	<path class="st8" d="M486.9,512.9c-0.3-0.3-0.3-0.9,0-1.2l8.2-8.1c0.3-0.4,0.9-0.4,1.2-0.1c0.4,0.3,0.4,0.9,0.1,1.2
		c0,0,0,0-0.1,0.1l-8.2,8.1C487.8,513.2,487.3,513.2,486.9,512.9L486.9,512.9z M496.3,503.6c-0.3-0.3-0.8-0.3-1.1,0l-8.2,8.1
		c-0.3,0.3-0.3,0.8,0,1.1c0.3,0.2,0.7,0.2,1,0l8.2-8.1C496.5,504.3,496.5,503.9,496.3,503.6L496.3,503.6z"/>
	<path class="st15" d="M495.3,512.4c-0.3-0.3-0.3-0.8,0.1-1.1c0,0,0,0,0,0l3.9-3.3c0.4-0.3,0.9-0.2,1.1,0.2c0.2,0.3,0.2,0.7-0.1,1
		l-3.9,3.3C496.1,512.8,495.6,512.7,495.3,512.4C495.3,512.4,495.3,512.4,495.3,512.4z"/>
	<path class="st8" d="M495.2,512.4c-0.3-0.4-0.3-0.9,0.1-1.2l3.9-3.3c0.3-0.3,0.9-0.3,1.2,0.1c0,0,0,0,0,0c0.3,0.3,0.3,0.9,0,1.2
		l-4,3.3C496.1,512.9,495.6,512.8,495.2,512.4C495.2,512.5,495.2,512.5,495.2,512.4L495.2,512.4z M500.3,508.1
		c-0.3-0.3-0.7-0.4-1.1-0.1l-3.9,3.3c-0.3,0.3-0.3,0.8,0,1.1c0.3,0.3,0.7,0.3,1,0.1l3.9-3.3C500.6,508.8,500.6,508.4,500.3,508.1
		C500.3,508.1,500.3,508.1,500.3,508.1L500.3,508.1z"/>
	<path class="st15" d="M493.1,520.4c-0.2-0.3-0.2-0.8,0.2-1.1c0,0,0,0,0.1,0l9.6-6.4c0.4-0.2,0.8-0.1,1.1,0.2
		c0.3,0.3,0.2,0.8-0.1,1.1c0,0-0.1,0-0.1,0.1l-9.6,6.4C493.8,520.8,493.4,520.7,493.1,520.4z"/>
	<path class="st8" d="M493,520.4c-0.3-0.4-0.2-0.9,0.2-1.2l9.6-6.4c0.4-0.3,0.9-0.2,1.2,0.2c0,0,0,0,0,0c0.3,0.4,0.2,0.9-0.2,1.2
		l-9.6,6.4C493.9,520.9,493.3,520.8,493,520.4C493.1,520.4,493,520.4,493,520.4L493,520.4z M504,513.1c-0.2-0.3-0.7-0.4-1-0.2
		l-9.6,6.4c-0.4,0.2-0.5,0.7-0.2,1.1c0.2,0.4,0.7,0.5,1.1,0.2l9.6-6.4C504.2,513.9,504.3,513.4,504,513.1L504,513.1z"/>
	<path class="st15" d="M501.3,521.5c-0.2-0.4-0.1-0.9,0.3-1.1l4.5-2.5c0.4-0.2,0.9-0.1,1.1,0.3c0.2,0.4,0.1,0.9-0.3,1.1c0,0,0,0,0,0
		l-4.5,2.5C502,522.1,501.5,521.9,501.3,521.5L501.3,521.5z"/>
	<path class="st8" d="M501.3,521.6c-0.2-0.4-0.1-0.9,0.3-1.2l4.5-2.6c0.4-0.2,0.9-0.1,1.2,0.3c0.2,0.4,0.1,0.9-0.3,1.2l-4.5,2.6
		C502,522.1,501.5,522,501.3,521.6L501.3,521.6z M507.2,518.2c-0.2-0.3-0.6-0.5-0.9-0.3c0,0-0.1,0-0.1,0l-4.5,2.5
		c-0.3,0.2-0.4,0.6-0.3,1c0.2,0.3,0.6,0.5,0.9,0.3c0,0,0,0,0.1,0l4.5-2.6C507.2,519,507.3,518.6,507.2,518.2L507.2,518.2z"/>
	<path class="st15" d="M497.6,528.9c-0.2-0.4,0-0.8,0.4-1c0,0,0,0,0,0l10.7-4.4c0.4-0.1,0.9,0,1.1,0.5c0.2,0.4,0,0.8-0.4,1
		c0,0,0,0-0.1,0l-10.7,4.4C498.3,529.5,497.8,529.3,497.6,528.9C497.6,528.9,497.6,528.9,497.6,528.9z"/>
	<path class="st8" d="M497.6,528.9c-0.2-0.4,0-0.9,0.4-1.2l10.7-4.4c0.4-0.2,0.9,0.1,1.1,0.5c0,0,0,0,0,0c0.2,0.4,0,0.9-0.4,1.2
		l-10.7,4.4C498.2,529.6,497.7,529.4,497.6,528.9C497.6,528.9,497.6,528.9,497.6,528.9z M509.7,523.9c-0.2-0.4-0.6-0.6-0.9-0.4
		l-10.7,4.4c-0.4,0.2-0.6,0.6-0.4,1c0.2,0.4,0.6,0.5,0.9,0.4l10.7-4.4C509.7,524.8,509.9,524.3,509.7,523.9
		C509.7,523.9,509.7,523.9,509.7,523.9L509.7,523.9z"/>
	<path class="st15" d="M505.4,531.7c-0.2-0.4,0-0.9,0.4-1c0,0,0,0,0.1,0l4.9-1.6c0.4-0.1,0.9,0.1,1,0.5c0,0,0,0,0,0
		c0.2,0.4-0.1,0.9-0.5,1c0,0,0,0,0,0l-4.9,1.6C506.1,532.3,505.6,532.1,505.4,531.7C505.5,531.7,505.4,531.7,505.4,531.7z"/>
	<path class="st8" d="M505.4,531.7c-0.2-0.4,0.1-0.9,0.5-1.1c0,0,0,0,0.1,0l4.9-1.6c0.5-0.1,0.9,0.1,1.1,0.6
		c0.2,0.4-0.1,0.9-0.5,1.1c0,0,0,0-0.1,0l-4.9,1.6C506,532.3,505.6,532.1,505.4,531.7z M511.8,529.6c-0.1-0.4-0.5-0.6-0.9-0.5
		l-4.9,1.6c-0.4,0.1-0.6,0.6-0.4,0.9c0,0,0,0,0,0c0.1,0.4,0.5,0.6,0.9,0.5l4.9-1.6C511.7,530.4,511.9,530,511.8,529.6z"/>
	<path class="st15" d="M500.4,538.2c-0.1-0.4,0.1-0.8,0.5-0.9c0,0,0.1,0,0.1,0l11.4-2.2c0.4-0.1,0.9,0.2,0.9,0.7c0,0,0,0,0,0
		c0.1,0.4-0.1,0.8-0.5,0.9c0,0-0.1,0-0.1,0l-11.3,2.2C501,539,500.6,538.7,500.4,538.2C500.4,538.3,500.4,538.3,500.4,538.2z"/>
	<path class="st8" d="M500.3,538.2c-0.1-0.5,0.2-0.9,0.7-1l11.3-2.2c0.5-0.1,0.9,0.2,1,0.7c0,0,0,0,0,0c0.1,0.5-0.2,0.9-0.7,1
		l-11.4,2.2C500.9,539,500.4,538.7,500.3,538.2C500.3,538.3,500.3,538.2,500.3,538.2z M513.3,535.7c-0.1-0.4-0.4-0.7-0.8-0.6
		l-11.4,2.2c-0.4,0.1-0.6,0.5-0.6,0.9c0,0,0,0,0,0c0.1,0.4,0.4,0.7,0.8,0.6l11.4-2.2C513.1,536.5,513.3,536.1,513.3,535.7z"/>
	<path class="st15" d="M507.5,542.5c-0.1-0.4,0.2-0.8,0.6-0.9c0,0,0,0,0,0l5.1-0.6c0.4,0,0.8,0.3,0.9,0.7c0.1,0.4-0.2,0.8-0.6,0.9
		c0,0,0,0,0,0l-5.1,0.6C508,543.3,507.6,543,507.5,542.5L507.5,542.5z"/>
	<path class="st8" d="M507.5,542.5c-0.1-0.5,0.2-0.9,0.7-1c0,0,0,0,0,0l5.1-0.6c0.5,0,0.9,0.3,1,0.8c0.1,0.5-0.2,0.9-0.7,1l-5.1,0.6
		C508,543.3,507.5,543,507.5,542.5L507.5,542.5z M514.2,541.7c-0.1-0.4-0.4-0.7-0.8-0.7l-5.1,0.6c-0.4,0.1-0.7,0.4-0.6,0.8
		c0.1,0.4,0.4,0.7,0.8,0.7l5.1-0.6C514,542.5,514.3,542.1,514.2,541.7z"/>
	<path class="st15" d="M501.3,547.9c0-0.4,0.3-0.8,0.8-0.8c0,0,0,0,0,0h11.6c0.5,0,0.8,0.4,0.8,0.8s-0.4,0.8-0.8,0.8h-11.6
		C501.7,548.7,501.3,548.3,501.3,547.9C501.3,547.9,501.3,547.9,501.3,547.9z"/>
	<path class="st8" d="M501.3,547.9c0-0.5,0.4-0.9,0.8-0.9h11.6c0.5,0,0.9,0.4,0.9,0.9c0,0.5-0.4,0.9-0.9,0.9h-11.6
		C501.6,548.8,501.3,548.4,501.3,547.9z M514.4,547.9c0-0.4-0.3-0.7-0.7-0.8h-11.6c-0.4,0-0.7,0.4-0.7,0.8c0,0,0,0,0,0
		c0,0.4,0.3,0.7,0.7,0.8h11.6C514.1,548.7,514.4,548.3,514.4,547.9z"/>
	<path class="st15" d="M507.5,553.5c0-0.4,0.4-0.8,0.8-0.8l5.2,0.4c0.4,0,0.8,0.4,0.7,0.9c0,0,0,0,0,0c0,0.4-0.4,0.8-0.8,0.8
		l-5.1-0.4C507.8,554.3,507.5,553.9,507.5,553.5z"/>
	<path class="st8" d="M507.4,553.5c0-0.5,0.4-0.8,0.9-0.8l5.1,0.4c0.5,0.1,0.8,0.5,0.8,0.9c0,0.5-0.4,0.8-0.9,0.8l-5.1-0.4
		C507.8,554.3,507.5,553.9,507.4,553.5z M514.2,554c0-0.4-0.2-0.7-0.6-0.8c0,0,0,0,0,0l-5.2-0.4c-0.4,0-0.7,0.3-0.8,0.7
		c0,0.4,0.2,0.7,0.6,0.8c0,0,0,0,0,0l5.2,0.4C513.8,554.7,514.1,554.4,514.2,554L514.2,554z"/>
	<path class="st15" d="M500.3,557.5c0.1-0.4,0.5-0.7,0.9-0.7l11.4,2.3c0.4,0.1,0.7,0.5,0.6,0.9c0,0,0,0,0,0
		c-0.1,0.4-0.5,0.7-0.9,0.7l-11.4-2.3C500.5,558.4,500.3,558,500.3,557.5z"/>
	<path class="st8" d="M500.3,557.5c0.1-0.5,0.5-0.8,1-0.7l11.4,2.3c0.5,0.1,0.8,0.6,0.7,1s-0.6,0.8-1,0.7l0,0l-11.4-2.3
		C500.5,558.5,500.3,558,500.3,557.5L500.3,557.5z M513.2,560.1c0.1-0.4-0.2-0.8-0.5-0.9l-11.4-2.3c-0.4-0.1-0.8,0.2-0.9,0.7
		c-0.1,0.4,0.2,0.7,0.5,0.8l11.4,2.3C512.7,560.8,513.1,560.5,513.2,560.1z"/>
	<path class="st15" d="M505.3,564.2c0.1-0.4,0.5-0.7,1-0.6c0,0,0,0,0,0l0,0l5,1.4c0.4,0.1,0.7,0.6,0.6,1c0,0,0,0,0,0
		c-0.1,0.4-0.5,0.7-1,0.6c0,0,0,0,0,0l0,0l-5-1.4C505.5,565.1,505.2,564.6,505.3,564.2C505.3,564.2,505.3,564.2,505.3,564.2
		L505.3,564.2z"/>
	<path class="st8" d="M505.3,564.2c0.1-0.4,0.6-0.7,1-0.6l5,1.4c0.4,0.1,0.7,0.6,0.6,1c-0.1,0.4-0.6,0.7-1,0.6l-5-1.4
		C505.4,565.1,505.2,564.6,505.3,564.2z M511.8,566c0.1-0.4-0.1-0.8-0.5-0.9l-5-1.4c-0.4-0.1-0.8,0.1-0.9,0.5c0,0,0,0,0,0.1
		c-0.1,0.4,0.1,0.8,0.5,0.9l5,1.4C511.3,566.6,511.6,566.4,511.8,566z"/>
	<path class="st15" d="M497.5,566.8c0.2-0.4,0.6-0.6,1-0.5l10.7,4.4c0.4,0.2,0.6,0.6,0.4,1.1c-0.2,0.4-0.6,0.6-1,0.4l-10.7-4.4
		C497.6,567.7,497.4,567.3,497.5,566.8L497.5,566.8z"/>
	<path class="st8" d="M497.4,566.8c0.2-0.4,0.7-0.7,1.1-0.5c0,0,0,0,0,0l10.7,4.4c0.4,0.2,0.6,0.7,0.4,1.2c-0.2,0.4-0.7,0.7-1.1,0.5
		l-10.7-4.4C497.5,567.7,497.3,567.2,497.4,566.8z M509.6,571.8c0.2-0.4,0-0.8-0.4-1c0,0,0,0,0,0l-10.7-4.4
		c-0.4-0.1-0.8,0.1-0.9,0.4c0,0,0,0,0,0c-0.2,0.4,0,0.8,0.4,1c0,0,0,0,0,0l10.7,4.4C509,572.4,509.4,572.2,509.6,571.8L509.6,571.8z
		"/>
	<path class="st15" d="M501.1,574.3c0.2-0.4,0.6-0.5,1-0.4l4.6,2.3c0.4,0.2,0.5,0.7,0.3,1.1c0,0,0,0,0,0c-0.2,0.4-0.6,0.5-1,0.4
		l-4.6-2.3C501.1,575.2,500.9,574.7,501.1,574.3z"/>
	<path class="st8" d="M501.1,574.2c0.2-0.4,0.7-0.6,1.1-0.4c0,0,0,0,0,0l4.6,2.3c0.4,0.3,0.5,0.8,0.3,1.2c-0.2,0.3-0.7,0.5-1,0.3
		l-4.6-2.3C501,575.2,500.8,574.7,501.1,574.2C501,574.3,501.1,574.3,501.1,574.2z M507.1,577.3c0.2-0.3,0.1-0.8-0.3-1c0,0,0,0,0,0
		l-4.6-2.3c-0.4-0.1-0.8,0-1,0.3c-0.2,0.3-0.1,0.8,0.3,1c0,0,0,0,0,0l4.6,2.3C506.4,577.8,506.9,577.7,507.1,577.3
		C507.1,577.3,507.1,577.3,507.1,577.3z"/>
	<path class="st15" d="M493,575.4c0.2-0.4,0.7-0.5,1-0.3c0,0,0,0,0.1,0l9.6,6.4c0.4,0.2,0.5,0.7,0.2,1.1c0,0,0,0,0,0
		c-0.2,0.4-0.7,0.5-1,0.3c0,0,0,0-0.1,0l-9.6-6.4C492.8,576.2,492.7,575.8,493,575.4C493,575.4,493,575.4,493,575.4z"/>
	<path class="st8" d="M492.9,575.3c0.3-0.4,0.8-0.5,1.2-0.3l9.6,6.4c0.4,0.3,0.5,0.8,0.2,1.2c-0.3,0.4-0.8,0.5-1.2,0.3l-9.6-6.4
		C492.8,576.3,492.6,575.8,492.9,575.3C492.9,575.3,492.9,575.3,492.9,575.3z M503.8,582.6c0.2-0.3,0.2-0.8-0.2-1l-9.6-6.4
		c-0.3-0.2-0.8-0.1-1,0.2c0,0,0,0,0,0c-0.2,0.3-0.2,0.8,0.2,1.1l9.6,6.4C503.2,583.1,503.6,583,503.8,582.6
		C503.8,582.6,503.8,582.6,503.8,582.6L503.8,582.6z"/>
	<path class="st15" d="M495,583.4c0.3-0.3,0.8-0.4,1.1-0.2l4,3.2c0.3,0.3,0.4,0.8,0.1,1.1c-0.3,0.3-0.8,0.4-1.1,0.2l-4.1-3.2
		C494.8,584.2,494.7,583.7,495,583.4z"/>
	<path class="st8" d="M495,583.3c0.3-0.4,0.8-0.4,1.2-0.2l4,3.2c0.4,0.2,0.6,0.7,0.4,1.2s-0.7,0.6-1.2,0.4c-0.1,0-0.2-0.1-0.3-0.2
		l-4-3.2C494.8,584.3,494.7,583.7,495,583.3z M500.3,587.5c0.3-0.3,0.2-0.8-0.1-1c0,0,0,0,0,0l-4-3.2c-0.3-0.2-0.8-0.2-1,0.2
		c-0.3,0.3-0.2,0.8,0.1,1c0,0,0,0,0,0l4,3.2C499.6,587.9,500,587.8,500.3,587.5z"/>
	<path class="st15" d="M486.8,582.8c0.3-0.3,0.7-0.3,1-0.1c0,0,0.1,0.1,0.1,0.1l8.2,8.1c0.3,0.3,0.3,0.8,0,1.1
		c-0.3,0.3-0.8,0.3-1.1,0.1c0,0,0,0-0.1-0.1l-8.2-8.1C486.5,583.6,486.5,583.2,486.8,582.8z"/>
	<path class="st8" d="M486.8,582.8c0.3-0.3,0.9-0.3,1.2,0l8.2,8.1c0.3,0.3,0.3,0.9,0,1.2c-0.3,0.3-0.9,0.3-1.2,0l-8.2-8.1
		c-0.3-0.3-0.4-0.8-0.1-1.1C486.7,582.9,486.7,582.8,486.8,582.8z M496.1,592c0.3-0.3,0.3-0.8,0-1.1l-8.2-8.1
		c-0.3-0.3-0.8-0.3-1.1,0c-0.3,0.3-0.3,0.8,0,1.1l8.2,8.1C495.3,592.3,495.7,592.4,496.1,592C496,592.1,496.1,592.1,496.1,592z"/>
	<path class="st15" d="M487.3,591.1c0.3-0.3,0.8-0.3,1.1,0.1c0,0,0,0,0,0l3.4,3.9c0.3,0.4,0.2,0.9-0.2,1.1c-0.3,0.2-0.7,0.2-1-0.1
		l-3.4-3.8C486.9,591.9,486.9,591.4,487.3,591.1C487.3,591.1,487.3,591.1,487.3,591.1z"/>
	<path class="st8" d="M487.2,591.1c0.4-0.3,0.9-0.3,1.2,0.1l3.4,3.9c0.3,0.3,0.3,0.9-0.1,1.2c0,0,0,0-0.1,0c-0.3,0.3-0.9,0.4-1.2,0
		c0,0,0,0,0,0l-3.4-3.9C486.8,592,486.8,591.4,487.2,591.1L487.2,591.1z M491.6,596.1c0.3-0.3,0.3-0.7,0.1-1l-3.4-3.9
		c-0.3-0.3-0.7-0.3-1,0c-0.3,0.3-0.4,0.7-0.1,1l3.4,3.9C490.9,596.4,491.3,596.4,491.6,596.1L491.6,596.1z"/>
	<path class="st15" d="M479.3,589c0.3-0.3,0.8-0.2,1.1,0.1c0,0,0.1,0.1,0.1,0.1l6.4,9.6c0.2,0.4,0.1,0.9-0.2,1.1
		c-0.3,0.3-0.8,0.2-1.1-0.2c0,0,0,0,0-0.1l-6.4-9.6C478.9,589.7,479,589.3,479.3,589L479.3,589z"/>
	<path class="st8" d="M479.3,588.9c0.4-0.3,0.9-0.2,1.2,0.2l6.4,9.6c0.3,0.4,0.2,0.9-0.2,1.2c0,0,0,0-0.1,0
		c-0.4,0.3-0.9,0.2-1.2-0.2l-6.4-9.6C478.7,589.8,478.8,589.2,479.3,588.9C479.3,589,479.3,589,479.3,588.9z M486.6,599.8
		c0.3-0.2,0.4-0.6,0.2-1c0,0,0,0,0,0l-6.4-9.6c-0.2-0.3-0.7-0.4-1-0.2c-0.3,0.2-0.4,0.6-0.2,1c0,0,0,0,0,0l6.4,9.6
		C485.9,599.9,486.3,600,486.6,599.8L486.6,599.8z"/>
	<path class="st15" d="M478.1,597.2c0.4-0.2,0.9-0.1,1.1,0.3c0,0,0,0,0,0l2.6,4.5c0.2,0.4,0.1,0.9-0.3,1.1c-0.4,0.2-0.9,0.1-1.1-0.3
		l-2.6-4.5C477.6,597.9,477.8,597.5,478.1,597.2z"/>
	<path class="st8" d="M478.1,597.1c0.4-0.2,0.9-0.1,1.2,0.3l2.6,4.5c0.2,0.4,0.1,0.9-0.3,1.2c0,0,0,0,0,0c-0.4,0.2-0.9,0.1-1.2-0.3
		l-2.6-4.5C477.6,597.9,477.7,597.4,478.1,597.1C478.1,597.1,478.1,597.1,478.1,597.1z M481.5,603c0.4-0.2,0.5-0.6,0.3-1l-2.5-4.5
		c-0.2-0.3-0.6-0.4-1-0.3c-0.4,0.2-0.5,0.6-0.3,1l2.5,4.5C480.6,603.1,481.1,603.2,481.5,603C481.4,603,481.5,603,481.5,603z"/>
	<path class="st15" d="M470.8,593.5c0.4-0.2,0.9,0,1,0.4c0,0,0,0,0,0l4.5,10.7c0.1,0.4,0,0.9-0.4,1.1c-0.4,0.2-0.9,0-1.1-0.4
		l-4.5-10.7C470.2,594.2,470.4,593.7,470.8,593.5L470.8,593.5z"/>
	<path class="st8" d="M470.8,593.5c0.4-0.2,0.9,0,1.2,0.5l4.5,10.7c0.2,0.4-0.1,0.9-0.5,1.1c0,0,0,0,0,0c-0.4,0.2-0.9,0-1.2-0.4
		l-4.5-10.7C470.1,594.1,470.4,593.7,470.8,593.5L470.8,593.5z M475.8,605.6c0.4-0.1,0.5-0.6,0.4-0.9c0,0,0,0,0,0l-4.5-10.7
		c-0.2-0.4-0.6-0.6-1-0.4c-0.4,0.1-0.5,0.6-0.4,0.9c0,0,0,0,0,0l4.5,10.7C474.9,605.6,475.4,605.8,475.8,605.6
		C475.8,605.6,475.8,605.6,475.8,605.6L475.8,605.6z"/>
	<path class="st15" d="M468,601.4c0.4-0.2,0.9,0.1,1.1,0.5c0,0,0,0,0,0l1.6,4.9c0.1,0.4-0.1,0.9-0.5,1c0,0,0,0,0,0
		c-0.4,0.1-0.9-0.1-1-0.5l-1.6-4.9C467.5,602,467.6,601.6,468,601.4C468.1,601.4,468.1,601.4,468,601.4L468,601.4z"/>
	<path class="st8" d="M468,601.3c0.4-0.2,0.9,0.1,1.1,0.5c0,0,0,0,0,0l1.6,4.9c0.1,0.5-0.1,0.9-0.5,1.1c-0.4,0.2-0.9-0.1-1.1-0.5
		l-1.6-4.9C467.3,602,467.6,601.5,468,601.3L468,601.3z M470.2,607.7c0.4-0.1,0.6-0.5,0.5-0.9l-1.6-4.9c-0.1-0.4-0.6-0.6-0.9-0.4
		c0,0,0,0,0,0c-0.4,0.1-0.6,0.5-0.5,0.9l1.6,4.9C469.3,607.6,469.7,607.9,470.2,607.7C470.1,607.7,470.1,607.7,470.2,607.7
		L470.2,607.7L470.2,607.7z"/>
	<path class="st15" d="M461.5,596.4c0.4-0.1,0.8,0.1,0.9,0.5c0,0,0,0.1,0,0.1l2.3,11.4c0.1,0.4-0.2,0.9-0.7,0.9c0,0,0,0,0,0
		c-0.4,0.1-0.8-0.1-0.9-0.5c0,0,0-0.1,0-0.1l-2.3-11.4C460.8,596.9,461.1,596.5,461.5,596.4z"/>
	<path class="st8" d="M461.5,596.3c0.5-0.1,0.9,0.2,1.1,0.7l2.3,11.4c0.1,0.5-0.2,0.9-0.7,1c0,0,0,0,0,0c-0.5,0.1-0.9-0.2-1.1-0.7
		l-2.3-11.4C460.7,596.9,461,596.4,461.5,596.3C461.5,596.3,461.5,596.3,461.5,596.3L461.5,596.3z M464.1,609.2
		c0.4-0.1,0.7-0.5,0.6-0.9l-2.3-11.4c-0.1-0.4-0.4-0.6-0.8-0.6c0,0,0,0,0,0c-0.4,0.1-0.7,0.5-0.6,0.9l2.3,11.4
		C463.4,609,463.8,609.3,464.1,609.2L464.1,609.2z"/>
	<path class="st15" d="M457.3,603.6c0.4-0.1,0.8,0.2,0.9,0.7l0.7,5.1c0.1,0.4-0.3,0.8-0.7,0.9c0,0,0,0,0,0c-0.4,0.1-0.8-0.2-0.9-0.7
		l-0.7-5.1C456.5,604,456.9,603.6,457.3,603.6z"/>
	<path class="st8" d="M457.3,603.5c0.5-0.1,0.9,0.2,1,0.7c0,0,0,0,0,0l0.7,5.1c0.1,0.5-0.3,0.9-0.8,1s-0.9-0.3-1-0.8l0,0l-0.7-5.1
		C456.5,604,456.8,603.6,457.3,603.5z M458.1,610.2c0.4-0.1,0.7-0.4,0.7-0.8l-0.7-5.1c-0.1-0.4-0.4-0.7-0.8-0.6
		c-0.4,0.1-0.7,0.4-0.7,0.8l0.7,5.1C457.4,609.9,457.7,610.2,458.1,610.2L458.1,610.2z"/>
	<path class="st15" d="M451.6,597.4c0.4,0,0.8,0.3,0.8,0.8v11.6c0,0.5-0.4,0.8-0.8,0.8s-0.8-0.4-0.8-0.8l0,0v-11.6
		C450.8,597.7,451.2,597.4,451.6,597.4z"/>
	<path class="st8" d="M451.6,597.3c0.5,0,0.9,0.4,0.9,0.8v11.6c0,0.5-0.4,0.9-0.9,0.9c-0.5,0-0.9-0.4-0.9-0.9v-11.6
		C450.7,597.7,451.1,597.3,451.6,597.3z M451.6,610.4c0.4,0,0.7-0.3,0.8-0.7v-11.6c0-0.4-0.4-0.7-0.8-0.7c-0.4,0-0.7,0.3-0.8,0.7
		v11.6C450.9,610.1,451.2,610.4,451.6,610.4z"/>
	<path class="st15" d="M446.1,603.6c0.4,0,0.8,0.4,0.8,0.8l-0.4,5.2c0,0.4-0.4,0.8-0.9,0.7c-0.4,0-0.8-0.4-0.8-0.8l0.4-5.2
		C445.2,603.8,445.6,603.5,446.1,603.6z"/>
	<path class="st8" d="M446.1,603.5c0.5,0,0.8,0.4,0.8,0.9l-0.4,5.2c0,0.5-0.5,0.8-0.9,0.8c-0.5,0-0.8-0.4-0.8-0.9l0.4-5.2
		C445.1,603.8,445.5,603.5,446.1,603.5C446,603.5,446,603.5,446.1,603.5z M445.6,610.2c0.4,0,0.7-0.3,0.8-0.7l0.4-5.2
		c0-0.4-0.3-0.7-0.7-0.8c-0.4,0-0.7,0.3-0.8,0.7l-0.4,5.2C444.9,609.8,445.2,610.2,445.6,610.2z"/>
	<path class="st15" d="M441.9,596.4c0.4,0.1,0.7,0.5,0.7,0.9l-2.3,11.4c-0.1,0.4-0.5,0.7-0.9,0.6c0,0,0,0,0,0
		c-0.4-0.1-0.7-0.5-0.7-0.9L441,597C441.1,596.5,441.5,596.3,441.9,596.4z"/>
	<path class="st8" d="M441.9,596.3c0.5,0.1,0.8,0.5,0.7,1l-2.3,11.4c-0.1,0.5-0.6,0.8-1.1,0.6c-0.4-0.1-0.7-0.5-0.6-0.9l2.3-11.4
		C441,596.5,441.4,596.3,441.9,596.3L441.9,596.3z M439.3,609.2c0.4,0.1,0.8-0.2,0.9-0.5l2.3-11.4c0.1-0.4-0.2-0.8-0.6-0.9
		c-0.4-0.1-0.8,0.2-0.9,0.6l0,0l-2.3,11.4C438.6,608.7,438.9,609.1,439.3,609.2z"/>
	<path class="st15" d="M435.3,601.3c0.4,0.1,0.7,0.6,0.6,1l-1.4,5c-0.1,0.4-0.5,0.7-1,0.6c0,0,0,0,0,0c-0.4-0.1-0.7-0.6-0.6-1l0,0
		l1.4-5C434.4,601.5,434.8,601.2,435.3,601.3C435.2,601.4,435.2,601.4,435.3,601.3L435.3,601.3z"/>
	<path class="st8" d="M435.3,601.3c0.5,0.1,0.7,0.6,0.6,1c0,0,0,0,0,0l-1.4,5c-0.1,0.4-0.6,0.7-1,0.6c-0.5-0.1-0.7-0.6-0.6-1
		c0,0,0,0,0,0l1.4-5C434.4,601.5,434.8,601.2,435.3,601.3L435.3,601.3z M433.4,607.8c0.4,0.1,0.8-0.1,0.9-0.5l1.4-5
		c0.1-0.4-0.1-0.8-0.5-0.9c0,0,0,0-0.1,0c-0.4-0.1-0.8,0.1-0.9,0.5l-1.4,5C432.8,607.3,433.1,607.7,433.4,607.8z"/>
	<path class="st15" d="M432.5,593.5c0.4,0.2,0.6,0.6,0.5,1c0,0,0,0,0,0l-4.4,10.7c-0.2,0.4-0.6,0.6-1,0.4c0,0,0,0,0,0
		c-0.4-0.2-0.6-0.6-0.4-1l4.4-10.7C431.6,593.5,432.1,593.4,432.5,593.5L432.5,593.5z"/>
	<path class="st8" d="M432.5,593.5c0.4,0.2,0.7,0.7,0.5,1.1c0,0,0,0,0,0l-4.4,10.7c-0.2,0.4-0.7,0.6-1.1,0.4c0,0,0,0,0,0
		c-0.4-0.2-0.7-0.6-0.5-1.1c0,0,0,0,0,0l4.4-10.7C431.6,593.5,432.1,593.3,432.5,593.5C432.5,593.5,432.5,593.5,432.5,593.5z
		 M427.5,605.6c0.4,0.2,0.8,0,1-0.4l4.4-10.7c0.1-0.4,0-0.8-0.4-0.9c0,0,0,0,0,0c-0.4-0.2-0.8,0-1,0.4l-4.4,10.7
		C427,605,427.1,605.4,427.5,605.6L427.5,605.6z"/>
	<path class="st15" d="M425.1,597.1c0.4,0.2,0.5,0.7,0.4,1l-2.3,4.6c-0.2,0.4-0.7,0.6-1.1,0.3c0,0,0,0,0,0c-0.4-0.2-0.5-0.7-0.4-1.1
		l2.3-4.6C424.2,597,424.6,596.9,425.1,597.1C425.1,597.1,425.1,597.1,425.1,597.1z"/>
	<path class="st8" d="M425.1,597c0.4,0.2,0.6,0.7,0.4,1.1c0,0,0,0.1-0.1,0.1l-2.3,4.6c-0.2,0.4-0.7,0.6-1.1,0.4c0,0,0,0,0,0
		c-0.4-0.2-0.6-0.7-0.4-1.1c0,0,0,0,0-0.1l2.3-4.6C424.1,597,424.6,596.8,425.1,597C425,597,425,597,425.1,597z M422,603
		c0.4,0.2,0.8,0,1-0.3c0,0,0,0,0,0l2.3-4.6c0.1-0.4,0-0.8-0.3-1c-0.4-0.2-0.8-0.1-1,0.3c0,0,0,0,0,0l-2.3,4.6
		C421.5,602.4,421.7,602.8,422,603z"/>
	<path class="st15" d="M424,588.9c0.4,0.2,0.5,0.7,0.3,1c0,0,0,0,0,0.1l-6.4,9.6c-0.2,0.4-0.7,0.5-1.1,0.2c0,0,0,0,0,0
		c-0.4-0.2-0.5-0.7-0.3-1.1c0,0,0,0,0-0.1l6.4-9.6C423.1,588.7,423.5,588.6,424,588.9C423.9,588.8,423.9,588.9,424,588.9z"/>
	<path class="st8" d="M424,588.8c0.4,0.3,0.5,0.8,0.3,1.2l-6.4,9.6c-0.3,0.4-0.8,0.5-1.2,0.2c0,0,0,0,0,0c-0.4-0.3-0.5-0.8-0.3-1.2
		l6.4-9.6C423,588.7,423.6,588.6,424,588.8z M416.6,599.7c0.3,0.2,0.8,0.1,1-0.2l6.4-9.6c0.2-0.3,0.1-0.8-0.2-1c0,0,0,0,0,0
		c-0.3-0.2-0.8-0.1-1,0.2l-6.4,9.5C416.2,599,416.3,599.5,416.6,599.7L416.6,599.7z"/>
	<path class="st15" d="M415.9,590.9c0.3,0.3,0.4,0.8,0.2,1.1l-3.2,4c-0.3,0.3-0.8,0.4-1.1,0.1c-0.3-0.3-0.4-0.7-0.1-1.1l3.2-4
		C415,590.7,415.5,590.7,415.9,590.9z"/>
	<path class="st8" d="M415.9,590.9c0.4,0.3,0.4,0.8,0.2,1.2l-3.2,4c-0.3,0.4-0.8,0.4-1.1,0.2c0,0,0,0-0.1-0.1
		c-0.4-0.3-0.5-0.8-0.2-1.2l3.2-4C415,590.6,415.5,590.5,415.9,590.9C415.9,590.8,415.9,590.9,415.9,590.9z M411.8,596.1
		c0.3,0.3,0.8,0.2,1-0.1c0,0,0,0,0,0l3.2-4c0.2-0.3,0.2-0.8-0.2-1.1c-0.3-0.2-0.7-0.2-1,0.1l-3.2,4
		C411.4,595.5,411.5,595.9,411.8,596.1L411.8,596.1z"/>
	<path class="st15" d="M416.4,582.6c0.3,0.3,0.3,0.7,0.1,1c0,0-0.1,0.1-0.1,0.1l-8.2,8.1c-0.3,0.3-0.8,0.3-1.1,0c0,0,0,0,0,0
		c-0.3-0.3-0.3-0.8,0-1.1c0,0,0,0,0,0l8.1-8.2C415.6,582.3,416.1,582.3,416.4,582.6C416.4,582.6,416.4,582.6,416.4,582.6z"/>
	<path class="st8" d="M416.4,582.6c0.3,0.3,0.3,0.9,0,1.2l-8.2,8.1c-0.3,0.3-0.9,0.3-1.2,0c-0.3-0.3-0.3-0.9,0-1.2l8.2-8.1
		C415.6,582.2,416.1,582.2,416.4,582.6z M407.1,591.9c0.3,0.3,0.7,0.3,1,0l8.2-8.1c0.2-0.3,0.2-0.8-0.2-1c-0.2-0.2-0.6-0.2-0.8,0
		l-8.2,8.1C406.8,591.1,406.8,591.6,407.1,591.9z"/>
	<path class="st15" d="M408.1,583.1c0.3,0.3,0.3,0.8,0,1.1l-3.9,3.3c-0.3,0.3-0.9,0.3-1.2-0.1c-0.3-0.3-0.3-0.9,0.1-1.2l0,0l3.9-3.3
		C407.3,582.7,407.8,582.7,408.1,583.1C408.1,583.1,408.1,583.1,408.1,583.1z"/>
	<path class="st8" d="M408.2,583c0.3,0.4,0.3,0.9-0.1,1.2c0,0,0,0,0,0l-3.9,3.3c-0.3,0.3-0.8,0.3-1.2,0c0,0,0,0-0.1-0.1
		c-0.3-0.4-0.3-0.9,0.1-1.2l3.9-3.3C407.3,582.6,407.8,582.6,408.2,583C408.1,583,408.1,583,408.2,583z M403.1,587.4
		c0.3,0.3,0.7,0.4,1.1,0.1l3.9-3.3c0.3-0.3,0.3-0.8,0-1.1c-0.3-0.3-0.7-0.3-1-0.1l-3.9,3.3C402.8,586.6,402.8,587,403.1,587.4
		L403.1,587.4z"/>
	<path class="st15" d="M410.3,575.1c0.3,0.3,0.2,0.8-0.1,1.1c0,0-0.1,0-0.1,0.1l-9.7,6.4c-0.4,0.2-0.9,0.1-1.1-0.2
		c-0.3-0.3-0.2-0.8,0.2-1.1c0,0,0,0,0.1,0l9.6-6.4C409.6,574.7,410,574.8,410.3,575.1L410.3,575.1z"/>
	<path class="st8" d="M410.4,575.1c0.3,0.4,0.2,0.9-0.2,1.2l-9.6,6.4c-0.4,0.3-0.9,0.2-1.2-0.2c0,0,0,0,0-0.1
		c-0.3-0.4-0.2-0.9,0.2-1.2l9.6-6.4C409.6,574.5,410.1,574.7,410.4,575.1C410.4,575.1,410.4,575.1,410.4,575.1L410.4,575.1z
		 M399.4,582.3c0.2,0.3,0.7,0.4,1,0.2c0,0,0,0,0,0l9.6-6.4c0.3-0.2,0.4-0.7,0.2-1c0,0,0,0,0,0c-0.2-0.3-0.7-0.4-1-0.2l-9.6,6.4
		C399.2,581.6,399.2,582.1,399.4,582.3L399.4,582.3z"/>
	<path class="st15" d="M402.1,573.9c0.2,0.4,0.1,0.9-0.3,1.1c0,0,0,0,0,0l-4.5,2.5c-0.4,0.2-0.9,0.1-1.1-0.3
		c-0.2-0.4-0.1-0.9,0.3-1.1l4.5-2.5C401.3,573.4,401.8,573.5,402.1,573.9L402.1,573.9z"/>
	<path class="st8" d="M402.1,573.9c0.2,0.4,0.1,0.9-0.3,1.2l-4.5,2.5c-0.4,0.2-0.9,0.1-1.2-0.3c-0.2-0.4-0.1-0.9,0.3-1.2l4.5-2.5
		C401.4,573.3,401.9,573.5,402.1,573.9z M396.3,577.2c0.2,0.3,0.6,0.5,0.9,0.3c0,0,0,0,0.1,0l4.5-2.5c0.3-0.2,0.5-0.6,0.3-1
		c-0.2-0.3-0.6-0.5-0.9-0.3c0,0,0,0-0.1,0l-4.5,2.6C396.2,576.4,396.1,576.9,396.3,577.2z"/>
	<path class="st15" d="M405.8,566.6c0.2,0.4,0,0.8-0.4,1c0,0,0,0-0.1,0l-10.7,4.4c-0.4,0.1-0.8-0.1-1-0.4c-0.2-0.4,0-0.8,0.4-1
		c0,0,0,0,0.1,0l10.7-4.4C405.2,566,405.6,566.2,405.8,566.6z"/>
	<path class="st8" d="M405.8,566.5c0.2,0.4,0,1-0.4,1.2l-10.7,4.4c-0.4,0.2-0.9-0.1-1.1-0.5c0,0,0,0,0,0c-0.2-0.4,0-0.9,0.4-1.2
		l10.7-4.4C405.2,565.8,405.7,566.1,405.8,566.5z M393.7,571.5c0.2,0.4,0.6,0.6,0.9,0.5l10.7-4.4c0.4-0.2,0.6-0.6,0.4-1c0,0,0,0,0,0
		c-0.2-0.4-0.6-0.6-0.9-0.4l-10.7,4.4C393.7,570.7,393.5,571.1,393.7,571.5C393.7,571.5,393.7,571.5,393.7,571.5L393.7,571.5z"/>
	<path class="st15" d="M398,563.8c0.2,0.4-0.1,0.9-0.5,1c0,0,0,0,0,0l-4.9,1.6c-0.4,0.1-0.9-0.1-1-0.5c0,0,0,0,0,0
		c-0.1-0.4,0.1-0.9,0.5-1l4.9-1.6C397.4,563.2,397.8,563.4,398,563.8C398,563.8,398,563.8,398,563.8z"/>
	<path class="st8" d="M398,563.7c0.2,0.4-0.1,0.9-0.5,1.1c0,0-0.1,0-0.1,0l-4.9,1.6c-0.5,0.1-0.9-0.1-1.1-0.6
		c-0.2-0.4,0.1-0.9,0.5-1.1c0,0,0,0,0.1,0l4.9-1.6C397.3,563.1,397.8,563.3,398,563.7L398,563.7z M391.6,565.8
		c0.1,0.4,0.5,0.6,0.9,0.5l4.9-1.6c0.4-0.1,0.6-0.6,0.5-0.9c-0.1-0.4-0.6-0.6-1-0.5c0,0,0,0,0,0l-4.9,1.6
		C391.7,565.1,391.5,565.5,391.6,565.8L391.6,565.8z"/>
	<path class="st15" d="M403,557.2c0.1,0.4-0.1,0.8-0.5,0.9c0,0-0.1,0-0.1,0l-11.4,2.2c-0.4,0.1-0.9-0.2-1-0.6c0,0,0,0,0-0.1
		c-0.1-0.4,0.1-0.8,0.5-0.9c0,0,0.1,0,0.1,0l11.4-2.2C402.4,556.5,402.8,556.8,403,557.2L403,557.2z"/>
	<path class="st8" d="M403.1,557.2c0.1,0.4-0.2,0.9-0.6,1l-11.4,2.2c-0.5,0.1-0.9-0.2-1-0.7c0,0,0,0,0,0c-0.1-0.5,0.2-0.9,0.7-1
		l11.4-2.2C402.5,556.4,403,556.7,403.1,557.2C403.1,557.2,403.1,557.2,403.1,557.2z M390.2,559.7c0.1,0.4,0.4,0.7,0.8,0.6l11.4-2.2
		c0.4-0.1,0.6-0.5,0.6-0.8c0,0,0,0,0,0c-0.1-0.4-0.4-0.7-0.8-0.6l-11.4,2.2C390.3,558.9,390.1,559.3,390.2,559.7z"/>
	<path class="st15" d="M395.9,552.9c0.1,0.4-0.2,0.8-0.6,0.9c0,0,0,0,0,0l-5.1,0.6c-0.4,0-0.8-0.3-0.9-0.7c-0.1-0.4,0.2-0.8,0.7-0.9
		c0,0,0,0,0,0l5.1-0.6C395.4,552.2,395.8,552.5,395.9,552.9z"/>
	<path class="st8" d="M395.9,552.9c0.1,0.5-0.3,0.9-0.7,1l-5.1,0.6c-0.5,0-0.9-0.3-0.9-0.8c-0.1-0.5,0.3-0.9,0.7-1l5.1-0.6
		C395.5,552.1,395.9,552.5,395.9,552.9L395.9,552.9z M389.2,553.7c0.1,0.4,0.4,0.7,0.8,0.7l5.1-0.6c0.4-0.1,0.7-0.4,0.6-0.8
		c-0.1-0.4-0.4-0.7-0.8-0.7l-5.1,0.6C389.4,552.9,389.2,553.3,389.2,553.7z"/>
	<path class="st15" d="M402.1,547.6c0,0.4-0.3,0.8-0.8,0.8h-11.6c-0.5,0-0.8-0.4-0.8-0.8c0-0.5,0.4-0.8,0.8-0.8h11.6
		C401.7,546.7,402.1,547.1,402.1,547.6L402.1,547.6z"/>
	<path class="st8" d="M402.1,547.6c0,0.5-0.4,0.9-0.8,0.9h-11.6c-0.5,0-0.8-0.4-0.8-0.9c0-0.5,0.4-0.9,0.8-0.9h11.6
		C401.8,546.7,402.1,547.1,402.1,547.6z M389,547.5c0,0.4,0.3,0.7,0.7,0.8h11.6c0.4,0,0.7-0.4,0.7-0.8c0,0,0,0,0,0
		c0-0.4-0.3-0.7-0.7-0.8h-11.6C389.3,546.8,389,547.1,389,547.5z"/>
	<path class="st16" d="M395.9,542c0,0.4-0.4,0.8-0.8,0.8l-5.2-0.4c-0.4,0-0.8-0.4-0.7-0.9c0-0.4,0.4-0.8,0.8-0.8l5.2,0.4
		C395.6,541.2,395.9,541.5,395.9,542z"/>
	<path class="st8" d="M396,542c0,0.5-0.4,0.8-0.9,0.8l-5.2-0.4c-0.5-0.1-0.8-0.5-0.8-1c0-0.5,0.4-0.8,0.9-0.8l5.2,0.4
		C395.6,541.1,396,541.5,396,542z M389.2,541.5c0,0.4,0.2,0.7,0.6,0.8c0,0,0,0,0,0l5.1,0.4c0.4,0,0.7-0.3,0.8-0.7
		c0-0.4-0.2-0.7-0.6-0.8c0,0,0,0,0,0l-5.2-0.4C389.6,540.8,389.3,541.1,389.2,541.5z"/>
	<path class="st15" d="M403.1,537.9c-0.1,0.4-0.5,0.7-0.9,0.7l-11.4-2.3c-0.4-0.1-0.7-0.5-0.6-0.9c0,0,0,0,0,0
		c0.1-0.4,0.5-0.7,0.9-0.7l11.3,2.3C402.9,537.1,403.1,537.5,403.1,537.9L403.1,537.9z"/>
	<path class="st8" d="M403.1,537.9c-0.1,0.5-0.5,0.8-1,0.7l-11.4-2.3c-0.5-0.1-0.8-0.6-0.7-1.1c0.1-0.5,0.5-0.8,1-0.7l11.3,2.3
		C402.9,537,403.2,537.4,403.1,537.9L403.1,537.9z M390.2,535.3c-0.1,0.4,0.2,0.8,0.5,0.9l11.4,2.3c0.4,0.1,0.8-0.2,0.9-0.6
		c0.1-0.4-0.2-0.8-0.6-0.9l-11.3-2.3C390.7,534.7,390.3,534.9,390.2,535.3L390.2,535.3z"/>
	<path class="st15" d="M398.1,531.2c-0.1,0.4-0.6,0.7-1,0.6l0,0l-5-1.4c-0.4-0.1-0.7-0.5-0.6-1c0,0,0,0,0,0c0.1-0.4,0.5-0.7,1-0.6
		c0,0,0,0,0,0l0,0l5,1.4C398,530.3,398.2,530.8,398.1,531.2C398.1,531.2,398.1,531.2,398.1,531.2L398.1,531.2z"/>
	<path class="st8" d="M398.1,531.2c-0.1,0.4-0.6,0.7-1,0.6l-5-1.4c-0.5-0.1-0.8-0.5-0.7-1c0.1-0.5,0.6-0.7,1.1-0.6c0,0,0,0,0,0
		l5,1.4C397.9,530.3,398.2,530.8,398.1,531.2L398.1,531.2z M391.7,529.4c-0.1,0.4,0.1,0.8,0.5,0.9l5,1.4c0.4,0.1,0.8-0.1,0.9-0.5
		c0,0,0-0.1,0-0.1c0.1-0.4-0.1-0.8-0.5-0.9l-5-1.4C392.1,528.8,391.8,529,391.7,529.4L391.7,529.4z"/>
	<path class="st15" d="M405.9,528.6c-0.2,0.4-0.6,0.6-1,0.4l-10.7-4.4c-0.4-0.2-0.6-0.6-0.4-1c0.2-0.4,0.6-0.6,1-0.4l10.7,4.4
		C405.8,527.7,406.1,528.2,405.9,528.6C405.9,528.6,405.9,528.6,405.9,528.6L405.9,528.6z"/>
	<path class="st8" d="M405.9,528.7c-0.2,0.4-0.7,0.7-1.1,0.5l-10.7-4.4c-0.4-0.2-0.6-0.8-0.4-1.2c0.2-0.4,0.6-0.6,1-0.4l10.7,4.4
		C405.9,527.7,406.1,528.2,405.9,528.7z M393.8,523.7c-0.2,0.4,0,0.8,0.4,1c0,0,0,0,0,0l10.7,4.4c0.4,0.1,0.8,0,0.9-0.4c0,0,0,0,0,0
		c0.2-0.4,0-0.8-0.4-1l-10.7-4.4C394.4,523.1,393.9,523.3,393.8,523.7L393.8,523.7z"/>
	<path class="st15" d="M402.3,521.1c-0.2,0.4-0.6,0.5-1,0.4l-4.6-2.3c-0.4-0.2-0.6-0.7-0.4-1.1c0,0,0,0,0,0c0.2-0.4,0.7-0.6,1.1-0.4
		l4.6,2.3C402.3,520.3,402.5,520.8,402.3,521.1L402.3,521.1z"/>
	<path class="st8" d="M402.3,521.2c-0.2,0.4-0.7,0.6-1.1,0.4c0,0,0,0,0,0l-4.6-2.4c-0.4-0.2-0.7-0.7-0.5-1.1s0.7-0.7,1.1-0.5
		c0,0,0.1,0,0.1,0.1l4.6,2.3c0.4,0.2,0.6,0.7,0.5,1.1C402.4,521.2,402.4,521.2,402.3,521.2z M396.3,518.2c-0.2,0.4-0.1,0.8,0.3,1
		c0,0,0,0,0,0l4.6,2.3c0.4,0.1,0.8,0,1-0.3c0.2-0.4,0.1-0.8-0.3-1c0,0,0,0,0,0l-4.7-2.3C397,517.7,396.5,517.8,396.3,518.2
		C396.4,518.1,396.3,518.2,396.3,518.2L396.3,518.2z"/>
	<path class="st15" d="M410.4,520.1c-0.2,0.4-0.7,0.5-1,0.3c0,0,0,0-0.1,0l-9.6-6.4c-0.4-0.2-0.5-0.7-0.2-1.1c0,0,0,0,0,0
		c0.2-0.4,0.7-0.5,1-0.3c0,0,0.1,0,0.1,0.1l9.6,6.4C410.6,519.3,410.7,519.7,410.4,520.1L410.4,520.1z"/>
	<path class="st8" d="M410.5,520.1c-0.3,0.4-0.8,0.5-1.2,0.3l-9.6-6.4c-0.4-0.3-0.5-0.8-0.2-1.2c0.3-0.4,0.8-0.5,1.2-0.3l9.6,6.4
		C410.7,519.2,410.8,519.7,410.5,520.1C410.5,520.1,410.5,520.1,410.5,520.1L410.5,520.1z M399.6,512.8c-0.2,0.3-0.2,0.8,0.2,1.1
		l9.6,6.4c0.3,0.2,0.8,0.1,1-0.2c0.2-0.3,0.1-0.8-0.2-1l-9.6-6.4C400.2,512.4,399.8,512.5,399.6,512.8L399.6,512.8z"/>
	<path class="st15" d="M408.4,512c-0.3,0.3-0.8,0.4-1.1,0.2l-4-3.1c-0.3-0.3-0.4-0.8-0.1-1.1c0.3-0.4,0.8-0.4,1.1-0.2l4,3.2
		C408.6,511.2,408.7,511.7,408.4,512z"/>
	<path class="st8" d="M408.4,512.1c-0.3,0.4-0.8,0.5-1.2,0.2c0,0,0,0,0,0l-4-3.2c-0.4-0.3-0.5-0.8-0.2-1.2c0.3-0.4,0.8-0.5,1.2-0.2
		l4,3.1C408.7,511.2,408.7,511.7,408.4,512.1L408.4,512.1z M403.1,507.9c-0.3,0.3-0.2,0.8,0.1,1c0,0,0,0,0,0l4,3.2
		c0.3,0.2,0.8,0.2,1.1-0.2c0.3-0.3,0.2-0.8-0.1-1c0,0,0,0,0,0l-4-3.2C403.9,507.6,403.4,507.7,403.1,507.9L403.1,507.9z"/>
	<path class="st15" d="M416.6,512.6c-0.3,0.3-0.7,0.3-1,0.1c0,0,0,0-0.1-0.1l-8.3-8.1c-0.3-0.3-0.3-0.8,0-1.1
		c0.3-0.3,0.8-0.3,1.1-0.1c0,0,0,0,0.1,0.1l8.2,8.1C416.9,511.8,416.9,512.3,416.6,512.6L416.6,512.6z"/>
	<path class="st8" d="M416.6,512.7c-0.3,0.3-0.9,0.3-1.2,0l-8.2-8.1c-0.3-0.3-0.3-0.9,0-1.2c0,0,0,0,0,0c0.3-0.3,0.9-0.3,1.2,0
		l8.2,8.1c0.3,0.3,0.4,0.8,0.1,1.1C416.7,512.6,416.7,512.6,416.6,512.7z M407.3,503.4c-0.3,0.3-0.3,0.8,0,1.1l8.2,8.1
		c0.2,0.3,0.7,0.4,1,0.2c0.3-0.2,0.4-0.7,0.2-1c-0.1-0.1-0.1-0.2-0.2-0.2l-8.2-8.2C408,503.1,407.6,503.1,407.3,503.4L407.3,503.4z"
		/>
	<path class="st15" d="M416.1,504.3c-0.3,0.3-0.8,0.3-1.1-0.1l-3.4-3.9c-0.3-0.3-0.2-0.8,0.1-1.1c0,0,0,0,0,0c0.3-0.3,0.8-0.3,1.1,0
		l3.4,3.9C416.5,503.6,416.5,504.1,416.1,504.3L416.1,504.3z"/>
	<path class="st8" d="M416.2,504.3c-0.4,0.3-0.9,0.3-1.2-0.1l-3.4-3.9c-0.3-0.3-0.3-0.9,0.1-1.2c0,0,0,0,0.1-0.1
		c0.3-0.3,0.9-0.3,1.2,0c0,0,0,0,0,0l3.4,3.9C416.6,503.5,416.6,504,416.2,504.3z M411.8,499.3c-0.3,0.3-0.4,0.7-0.1,1l3.4,3.8
		c0.3,0.3,0.8,0.3,1.1,0c0.2-0.3,0.3-0.7,0.1-1l-3.4-3.9C412.6,499.1,412.1,499,411.8,499.3C411.8,499.3,411.8,499.3,411.8,499.3
		L411.8,499.3z"/>
	<path class="st15" d="M424.1,506.4c-0.3,0.3-0.8,0.2-1-0.1c0,0,0-0.1-0.1-0.1l-6.5-9.6c-0.2-0.4-0.1-0.9,0.2-1.1
		c0.3-0.3,0.8-0.2,1,0.1c0,0,0,0.1,0.1,0.1l6.4,9.6C424.5,505.7,424.5,506.2,424.1,506.4C424.1,506.4,424.1,506.4,424.1,506.4z"/>
	<path class="st8" d="M424.1,506.5c-0.4,0.3-0.9,0.2-1.2-0.2l-6.5-9.6c-0.3-0.4-0.2-0.9,0.2-1.2c0,0,0,0,0.1,0
		c0.4-0.3,0.9-0.2,1.2,0.2l6.4,9.6C424.6,505.7,424.6,506.2,424.1,506.5C424.2,506.5,424.1,506.5,424.1,506.5z M416.8,495.6
		c-0.3,0.2-0.4,0.7-0.2,1l6.4,9.6c0.3,0.3,0.7,0.4,1,0.2c0.3-0.2,0.4-0.7,0.2-1l-6.4-9.5C417.6,495.5,417.2,495.4,416.8,495.6
		L416.8,495.6z"/>
	<path class="st15" d="M425.3,498.2c-0.4,0.2-0.9,0.1-1.1-0.3l-2.6-4.5c-0.2-0.4-0.1-0.9,0.3-1.1c0.4-0.2,0.9-0.1,1.1,0.3l2.6,4.5
		C425.8,497.5,425.7,498,425.3,498.2L425.3,498.2z"/>
	<path class="st8" d="M425.3,498.3c-0.4,0.2-0.9,0.1-1.2-0.3l-2.5-4.5c-0.2-0.4-0.1-0.9,0.3-1.1c0,0,0,0,0,0
		c0.4-0.2,0.9-0.1,1.2,0.3l2.6,4.5C425.8,497.6,425.7,498.1,425.3,498.3C425.3,498.3,425.3,498.3,425.3,498.3z M422,492.4
		c-0.4,0.2-0.5,0.6-0.3,1c0,0,0,0,0,0l2.6,4.5c0.2,0.3,0.6,0.4,1,0.3c0.3-0.2,0.5-0.6,0.3-1l-2.5-4.5
		C422.8,492.4,422.3,492.2,422,492.4C422,492.4,422,492.4,422,492.4L422,492.4z"/>
	<path class="st15" d="M432.6,501.9c-0.4,0.2-0.8,0-1-0.4l-4.5-10.7c-0.1-0.4,0.1-0.8,0.4-1c0.4-0.2,0.8,0,1,0.4l4.5,10.7
		C433.2,501.3,433,501.8,432.6,501.9L432.6,501.9z"/>
	<path class="st8" d="M432.6,502c-0.4,0.2-0.9,0-1.2-0.5l-4.5-10.7c-0.2-0.4,0.1-0.9,0.5-1.1c0.4-0.2,1,0,1.2,0.5l4.5,10.7
		C433.3,501.3,433.1,501.8,432.6,502L432.6,502z M427.6,489.8c-0.4,0.1-0.5,0.6-0.4,0.9c0,0,0,0,0,0l4.5,10.7c0.2,0.4,0.6,0.5,1,0.4
		c0.4-0.1,0.5-0.6,0.4-0.9c0,0,0,0,0,0l-4.5-10.7C428.4,489.9,428,489.7,427.6,489.8L427.6,489.8z"/>
	<path class="st15" d="M435.4,494c-0.4,0.1-0.9-0.1-1-0.5c0,0,0,0,0,0l-1.6-4.9c-0.1-0.4,0.1-0.9,0.5-1c0,0,0,0,0,0
		c0.4-0.1,0.8,0.1,1,0.5l1.6,4.9C436,493.4,435.8,493.9,435.4,494C435.4,494,435.4,494,435.4,494L435.4,494z"/>
	<path class="st8" d="M435.4,494.1c-0.4,0.2-0.9-0.1-1.1-0.5c0,0,0,0,0,0l-1.6-4.9c-0.2-0.5,0.1-0.9,0.6-1.1c0,0,0,0,0,0
		c0.4-0.2,0.9,0.1,1.1,0.5c0,0,0,0,0,0l1.6,4.9C436.1,493.4,435.9,493.9,435.4,494.1z M433.3,487.7c-0.4,0.1-0.6,0.5-0.5,0.9
		l1.6,4.9c0.1,0.4,0.6,0.6,0.9,0.5c0.4-0.1,0.6-0.5,0.5-0.9l-1.6-4.9C434.1,487.8,433.7,487.6,433.3,487.7L433.3,487.7L433.3,487.7z
		"/>
	<path class="st15" d="M441.9,499.1c-0.4,0.1-0.8-0.1-0.9-0.5c0,0,0-0.1,0-0.1l-2.3-11.4c-0.1-0.4,0.2-0.9,0.7-0.9c0,0,0,0,0,0
		c0.4-0.1,0.8,0.1,0.9,0.5c0,0,0,0.1,0,0.1l2.3,11.4C442.6,498.6,442.3,499,441.9,499.1z"/>
	<path class="st8" d="M441.9,499.1c-0.5,0.1-0.9-0.2-1.1-0.7l-2.3-11.4c-0.1-0.5,0.2-0.9,0.6-1c0,0,0,0,0,0c0.5-0.1,0.9,0.2,1,0.7
		l2.3,11.4C442.7,498.6,442.4,499,441.9,499.1C441.9,499.1,441.9,499.1,441.9,499.1z M439.3,486.2c-0.4,0.1-0.7,0.5-0.6,0.9
		l2.3,11.4c0.1,0.4,0.5,0.6,0.9,0.6c0,0,0,0,0,0c0.4-0.1,0.7-0.5,0.6-0.9l-2.3-11.4C440.1,486.4,439.7,486.2,439.3,486.2
		L439.3,486.2z"/>
	<path class="st15" d="M446.1,491.9c-0.4,0.1-0.9-0.2-1-0.7l-0.7-5.1c0-0.4,0.3-0.8,0.7-0.9c0.4-0.1,0.8,0.2,0.9,0.7l0.7,5.1
		C446.9,491.4,446.6,491.8,446.1,491.9z"/>
	<path class="st8" d="M446.1,491.9c-0.5,0.1-0.9-0.3-1-0.7l-0.7-5.1c0-0.5,0.3-0.9,0.8-0.9c0.5-0.1,0.9,0.3,1,0.7l0.7,5.1
		C446.9,491.5,446.6,491.9,446.1,491.9z M445.3,485.3c-0.4,0.1-0.7,0.4-0.7,0.8l0.7,5.1c0.1,0.4,0.4,0.7,0.8,0.6
		c0.4-0.1,0.7-0.4,0.7-0.8l-0.7-5.1C446,485.5,445.7,485.2,445.3,485.3z"/>
	
		<linearGradient id="SVGID_4_" gradientUnits="userSpaceOnUse" x1="-418.6431" y1="55.2591" x2="-418.6531" y2="55.2891" gradientTransform="matrix(2240.23 0 0 2240.23 938312.8125 -123257.1094)">
		<stop  offset="0" style="stop-color:#000000;stop-opacity:0"/>
		<stop  offset="1" style="stop-color:#000000"/>
	</linearGradient>
	<circle class="st17" cx="452.1" cy="547.7" r="65.6"/>
	<polygon class="st18" points="497.5,506.1 444.6,540 444.6,540 444.6,540 444.5,540.1 411.5,594.5 460,555.5 460.1,555.4 
		460.1,555.4 497.5,506.1 	"/>
	<path class="st19" d="M496.5,502.9l-52.3,37.2l15.5,15.4L496.5,502.9"/>
	<path class="st20" d="M444.3,540l7.8,7.7l44.4-44.8L444.3,540L444.3,540z"/>
	<path class="st21" d="M444.3,540l15.5,15.4l-52.3,37.2L444.3,540L444.3,540z"/>
	<path class="st22" d="M407.5,592.5l44.6-44.9l-7.8-7.7L407.5,592.5z"/>
</g>
<ellipse class="st12" cx="125.4" cy="805.7" rx="113.5" ry="12.5"/>
<linearGradient id="SVGID_5_" gradientUnits="userSpaceOnUse" x1="228.6265" y1="-17.7265" x2="228.6265" y2="441.3533" gradientTransform="matrix(1 0 0 -1 -61.06 797.16)">
	<stop  offset="0" style="stop-color:#808080;stop-opacity:0.25"/>
	<stop  offset="0.54" style="stop-color:#808080;stop-opacity:0.12"/>
	<stop  offset="1" style="stop-color:#808080;stop-opacity:0.1"/>
</linearGradient>
<path class="st23" d="M271.4,451.1L271.4,451.1l-0.1-0.1l0,0l-0.5-0.4l0.1,0.1c-0.8-0.5-1.8-0.2-2.4,0.5l-0.2,0.3l0,0l-12.1,17.5
	L254,472c-6.4-1.9-16.8,6.2-22.1,10.8l-0.9,0.8c-0.4-0.9-0.7-1.5-0.7-1.5c-0.3,2.9-10.4,7.1-12.7,8.7c-1.1,0.6-2.3,1.1-3.5,1.2
	c0.3-10.9-8.1-22.3-8.1-22.3l-20.5-26.1c-0.8-4.7,0-9.6,2.1-13.9c0.2-0.3,0.3-0.7,0.5-1h0.1c-0.8,2.2-1.2,4.5-1.3,6.8
	c0.1,1.8,1.7,10.4,4,10c0.5,0,0.9-0.2,1.2-0.6c1.8-2.1,2-5.8,1.9-9.1c0,1-0.1,2-0.3,3c0.1-2.8-0.2-5.8-0.2-7.9c0-0.8,0-1.7,0.1-2.5
	h0.3c0,0.3,0,0.7,0,1c0-0.3,0-0.7,0-1h0.3c4.6-0.8,8.9-2.8,12.5-5.8c1.8-0.1,3.5-0.9,4.7-2.2c0.4,1.5,0.1,3.1-0.9,4.3
	c2.8-0.1,5.1-2.3,6.1-4.8c0.9-2.6,1.2-5.3,0.8-8c-0.4-2.7-0.6-5.4-0.6-8.1c0.2-1.5,0.3-2.9,0.2-4.4c0-0.5-0.1-0.9-0.2-1.4h0.1
	c0.5,0,1.1-0.2,1.4-0.5c1.1-0.9,1.5-2.6,1.8-3.9c0.8-3,1.1-6.2,1.1-9.3c-0.1,1-0.2,1.9-0.3,2.9c0.3-3.6-0.3-7.1-2.6-9.7
	c-1.6-1.8-3.9-2.9-6.1-3.9c-0.8-0.3-1.5-0.8-2-1.4c-0.4-0.8-0.6-1.6-0.6-2.5c-0.8-5.3-5.7-8.9-10.6-11.1c-6.3-2.8-14-3.9-20.1-0.7
	c-3,1.6-5.3,4.1-8,6.1c-3.4,2.6-7.3,4.4-10.9,6.6s-7.1,5.1-8.8,8.9c-2.6,6-0.7,12.8-0.3,19.3c0.5,10.3-3.7,21-12.1,27
	c-1,0.6-1.9,1.4-2.6,2.3c-0.8,0.9-0.8,2.2-0.2,3.3c0.4,0.6,1.1,0.9,1.6,1.4c0.9,1.1,0.8,2.7,0.4,4.1c-1.2,4.5-3.6,8.6-7,11.9
	c0.1,1.1,1.5,1.5,2.5,1.6c2.8,0.4,5.7,0.6,8.6,0.6h1.2c-0.1,0.3-0.3,0.7-0.4,1c-1.6,4.1-3.6,10.4-2.9,14.2
	c1.1,6.1,4.2,33.8,2.6,38.6s2.4,40.3,2.4,40.3s0.6,2.7,1.5,6.8c-2.5,5.8-5.3,12.3-6.7,14.9c-2.8,5.2-1.4,31.7,8.4,43.5
	c0,0,4.1,5.7,3,7.8s0.2,5.7,0.2,5.7l1.6,34.3c0,3.5-0.3,7-0.7,10.5c-4.2,5.2-10.6,12.7-13.6,14c-4.7,1.9-39.7,44.3-39.7,44.3
	s0.3,0.5,0.8,1.3l-1,1.1l-6.7,7.8l-0.5,0.6c-1.3-0.2-9.6-1.8-16.3-2.2h-0.7v-0.3c-2.3-0.3-4.7-0.2-7,0.2c-0.4,0.1-0.8,0.3-1.2,0.6
	c-2.3,2.8-3.5,46.4-3.5,46.4s2.4,21.8,10,23.1c0.4,0.1,0.8,0.2,1.2,0.2c0.1,0,0.3,0,0.4,0c3.8-0.1,7.3-2.2,9-5.6
	c0.3-0.6,0.6-1.3,0.8-2c0,0-0.9-3.9,1.5-9.3s6.7-14.7,6.7-14.7s8-8.4,6.6-12.5l0.8-1.1c3-4.3,9.1-12.7,14-18.4l1-1.1
	c1.8,0.8,3.7,1.3,5.6,1.6c0,0,7.5-3,10.3-9.5c1.2-2.8,5.9-7.8,10.8-12.5l-0.2,1.3l-0.2,41.7c1.6,1.1,3.3,2.1,5.1,2.8v1
	c0,6-0.3,11.9-1.1,17.8l-0.1,0.9c-0.6-0.4-1.2-0.6-1.5-0.2c-1.5,1.5-2.5,11.5-2.6,16.1c0,0.2,0,0.3,0,0.5c-0.3,4.6-2.9,11.2,5,11.6
	c5.9,0.3,31.2,0.6,44.8,0.8c7.3,0.2,14.4-2.4,20-7.1c4.3-3.7,6.9-8.1,1-11.3c-0.4-0.2-0.7-0.4-1.2-0.6l-13-2l-22.2-11.3
	c0,0-0.1-6.9-2.8-5.7c-0.8,0.2-1.6,0.5-2.3,0.9c-0.1-0.3-0.3-0.5-0.4-0.8c-1.8-3.6-2.7-7.5-2.7-11.6c0-0.4,0-0.7,0-1.1
	c0.7-0.6,1.3-1.2,1.8-1.9c0,0-0.2-15.6,1.6-18.5s7.2-32.7,7.2-32.7s0.2-5.5,3.7-8.8s2.3-12.8,2.3-12.8s4.9-2.6,6.5-11.1
	s6.6-27,6.6-27s10.5-27.4,9.8-44.7s1-26.3,1-26.3l2.2-40.2v-0.6c0.9,0.7,1.5,1.2,1.5,1.2s0-0.2,0-0.4c0.3,0.3,0.5,0.4,0.5,0.4
	s1.1-18.3,0.7-25.5c6.1-2.1,15.4-5.5,16-7.2c0.8-2.6,11.3-10.8,11.3-10.8c-0.2,0-0.4-0.1-0.6-0.2c0.3-0.2,0.7-0.3,1-0.5
	c6.9-3.7,19.7-14.4,17.5-21l14-20.1C272.7,454,272.5,452.2,271.4,451.1z"/>
<path class="st24" d="M238.8,499.6c-1,0.6-2.2,1.1-3.4,1.3c-4.4,0.1-8-11.7-8-11.7s1.2-1.3,3.2-3c5.9-5.2,18.1-14.8,23.9-9.5
	C261.1,482.7,246.4,495.5,238.8,499.6z"/>
<path class="st24" d="M172.4,781.7l-16.1,17.5c0,0-14.9,0.2-12-8.1c0.6-1.8,1-3.6,1.2-5.5c0.7-5.8,1.1-11.7,1-17.6
	c0-3.9-0.1-6.6-0.1-6.6s23.5-10.3,21.1,0.4c-0.3,1.3-0.5,2.7-0.5,4.1C167.2,771.6,169,777.2,172.4,781.7L172.4,781.7z"/>
<path class="st25" d="M172.4,781.7l-16.1,17.5c0,0-14.9,0.2-12-8.1c0.6-1.8,1-3.6,1.2-5.5c2.1,1.6,5.2,6.5,5.2,6.5s10.3,3,13.1-6
	c1.6-5,4.1-7.5,6-8.7C170.6,778.9,171.4,780.4,172.4,781.7z"/>
<path class="st26" d="M209.8,807.9c-5.5,4.7-12.5,7.2-19.6,7c-13.3-0.2-38.2-0.6-43.9-0.8c-7.7-0.3-5.2-6.9-4.9-11.5
	c0-0.2,0-0.3,0-0.5c0.1-4.5,1-14.4,2.5-16s6.8,6.9,6.8,6.9s10.3,3,13.1-6s8.6-9.9,8.6-9.9c2.6-1.1,2.7,5.7,2.7,5.7l21.8,11.3l12.8,2
	c0.4,0.2,0.8,0.4,1.1,0.6C216.6,799.9,214,804.3,209.8,807.9z"/>
<circle class="st27" cx="169.6" cy="789.7" r="0.9"/>
<circle class="st27" cx="178.4" cy="794.1" r="0.9"/>
<circle class="st27" cx="183" cy="796.1" r="0.9"/>
<circle class="st27" cx="192.4" cy="799.7" r="0.9"/>
<circle class="st27" cx="187.6" cy="798.2" r="0.9"/>
<path class="st26" d="M209.8,807.9c-5.5,4.7-12.5,7.2-19.6,7c-13.3-0.2-38.2-0.6-43.9-0.8c-7.7-0.3-5.2-6.9-4.9-11.5l48.5,3
	c0,0,19.9-3,21-8.9C216.6,799.9,214,804.3,209.8,807.9z"/>
<path class="st27" d="M209.8,807.9c-5.5,4.7-12.5,7.2-19.6,7c-13.3-0.2-38.2-0.6-43.9-0.8c-7.7-0.3-5.2-6.9-4.9-11.5l48.5,3
	c0,0,19.9-3,21-8.9C216.6,799.9,214,804.3,209.8,807.9z"/>
<path class="st24" d="M119.6,738c-1.8,1.4-3.4,3.1-4.9,4.9c-4.8,5.6-10.8,14-13.7,18.2c-1.1,1.6-1.8,2.7-1.8,2.7l-6.4-0.9
	c0,0-6.9-10.6-6.8-10.9s5.5-11.7,5.5-11.7l2.1-2.5l6.6-7.7l3-3.5C103.1,726.6,125.4,733.8,119.6,738z"/>
<path class="st25" d="M101,761c-1.1,1.6-1.8,2.7-1.8,2.7l-6.4-0.9c0,0-6.9-10.6-6.8-10.9s5.5-11.7,5.5-11.7l2.1-2.5l0.7,0.1h1.6
	c-5.7,6,0.4,19.2,0.4,19.2S98.9,757.3,101,761z"/>
<path class="st26" d="M93.8,774.5c0,0-4.3,9.3-6.6,14.6s-1.5,9.2-1.5,9.2c-0.2,0.7-0.4,1.4-0.7,2c-1.7,3.3-5.1,5.5-8.8,5.5
	c-0.1,0-0.3,0-0.4,0c-7.8-0.2-10.3-22.9-10.3-22.9s1.2-43.2,3.4-46c0.3-0.3,0.7-0.5,1.1-0.6c2.3-0.4,4.6-0.4,6.9-0.1
	c7.1,0.5,16.2,2.3,16.2,2.3h1.6c-5.8,6,0.4,19.2,0.4,19.2s2.8,0.3,4.9,4.1S93.8,774.5,93.8,774.5z"/>
<circle class="st27" cx="84.4" cy="761.7" r="0.9"/>
<circle class="st27" cx="83.9" cy="769.1" r="0.9"/>
<path class="st26" d="M84.4,800.1c-1.7,3.3-5.1,5.5-8.8,5.5c-0.1,0-0.3,0-0.4,0c-7.8-0.2-10.3-22.9-10.3-22.9s1.2-43.2,3.4-46
	c0.3-0.3,0.7-0.5,1.1-0.6c2.3-0.4,4.6-0.4,6.9-0.2c-0.1,7.8-0.5,32.3,0,34.8S81.3,793.5,84.4,800.1z"/>
<path class="st27" d="M84.4,800.1c-1.7,3.3-5.1,5.5-8.8,5.5c-0.1,0-0.3,0-0.4,0c-7.8-0.2-10.3-22.9-10.3-22.9s1.2-43.2,3.4-46
	c0.3-0.3,0.7-0.5,1.1-0.6c2.3-0.4,4.6-0.4,6.9-0.2c-0.1,7.8-0.5,32.3,0,34.8S81.3,793.5,84.4,800.1z"/>
<path class="st26" d="M75.2,805.6c-7.8-0.2-10.3-22.9-10.3-22.9s1.2-43.2,3.4-46c0.3-0.3,0.7-0.5,1.1-0.6c1.6,2.5,3.1,7.8,1.8,19.7
	c-2.4,22.5,0.5,23.9,0.5,23.9S75.4,798.9,75.2,805.6z"/>
<path class="st25" d="M75.2,805.6c-7.8-0.2-10.3-22.9-10.3-22.9s1.2-43.2,3.4-46c0.3-0.3,0.7-0.5,1.1-0.6c1.6,2.5,3.1,7.8,1.8,19.7
	c-2.4,22.5,0.5,23.9,0.5,23.9S75.4,798.9,75.2,805.6z"/>
<path class="st25" d="M238.8,499.6c-1,0.6-2.2,1.1-3.4,1.3c-4.4,0.1-8-11.7-8-11.7s1.2-1.3,3.2-3C232.1,489.3,236.1,498,238.8,499.6
	z"/>
<path class="st28" d="M210.8,495.3c0,0,3.6,0.3,5.9-1.3s12.2-5.8,12.5-8.6c0,0,5.9,14.4,9.3,14.9c0,0-10.3,8.1-11.1,10.7
	c-0.8,2.6-20.8,8.9-20.8,8.9L210.8,495.3z"/>
<path class="st25" d="M210.8,495.3c0,0,3.6,0.3,5.9-1.3s12.2-5.8,12.5-8.6c0,0,5.9,14.4,9.3,14.9c0,0-10.3,8.1-11.1,10.7
	c-0.8,2.6-20.8,8.9-20.8,8.9L210.8,495.3z"/>
<path class="st25" d="M119.6,738c-1.8,1.4-3.4,3.1-4.9,4.9c-7.8-3.3-12.8-9.9-14.7-12.8l3-3.5C103.1,726.6,125.4,733.8,119.6,738z"
	/>
<path class="st29" d="M156.3,665c0,0-12.6,16.8-17.2,18.7s-38.9,43.9-38.9,43.9s7.4,13.5,20.9,15.8c0,0,7.4-2.9,10.1-9.4
	s24.4-24.9,24.4-24.9L156.3,665z"/>
<path class="st25" d="M156.3,665c0,0-12.6,16.8-17.2,18.7s-38.9,43.9-38.9,43.9s7.4,13.5,20.9,15.8c0,0,7.4-2.9,10.1-9.4
	s24.4-24.9,24.4-24.9L156.3,665z"/>
<path class="st25" d="M118.2,721.3c3.8,0.4,7.6,0.4,11.4,0C136.4,720.7,131.3,724.8,118.2,721.3z"/>
<path class="st25" d="M115.1,725.7c0,0,9,5.2,12.5,2.6S124.2,730.7,115.1,725.7z"/>
<path class="st25" d="M167.6,761.8c-0.3,1.3-0.5,2.7-0.5,4.1c-6.9,6.3-15.3,4.4-20.6,2.1c0-3.9-0.1-6.6-0.1-6.6
	S170,751.1,167.6,761.8z"/>
<path class="st29" d="M209.3,538.1l-0.3,4.8l-2.1,39.8c0,0-1.7,8.9-1,26.1s-9.6,44.2-9.6,44.2s-5,18.3-6.5,26.8s-6.3,11-6.3,11
	s1.2,9.4-2.2,12.7s-3.6,8.8-3.6,8.8s-5.3,29.5-7,32.4s-1.7,18.3-1.7,18.3c-11.1,13.2-27.4,1.2-27.4,1.2l0.2-41.3
	c0,0,4.6-38.1,8.1-43.4s3.4-19.9,3.4-19.9l-1.5-34c0,0-1.2-3.6-0.2-5.7s-2.9-7.7-2.9-7.7c-9.6-11.7-11-37.9-8.2-43
	s11.1-25.7,11.1-25.7l11.4-6.7l20.7,0.6L209.3,538.1z"/>
<path class="st25" d="M160.5,740.2c0,0,2.7,9.4,4.9,10.4S160.5,740.2,160.5,740.2z"/>
<path class="st25" d="M164.2,708.9c0,0,7,5.5,10,5.5S164.2,708.9,164.2,708.9z"/>
<path class="st24" d="M206.5,476.8v11.4l-7.5-3.2l-7.4-3.2l-16.2-16c0,0-12.8-8.3-19.7-15.9c-3.9-4.3-5.9-8.4-2.4-10.6
	c1.7-1.1,3.2-2.4,4.5-3.9c3.4-4.1,6.4-8.5,8.9-13.2l0.3-0.6c3.3-6.1,5.6-11.4,5.6-11.4s9.4,3,15.4,7.3c0.5,0.3,0.9,0.7,1.4,1
	c3.4,2.8,5.1,6,1.9,9.2c-0.8,0.8-1.5,1.7-2.2,2.6l0,0c-0.5,0.7-1,1.4-1.4,2.2c-0.2,0.3-0.4,0.7-0.5,1c-2.1,4.3-2.8,9.1-2.1,13.7
	L206.5,476.8z"/>
<path class="st30" d="M205.2,396c0.4,0.7,0.9,1.3,1.3,1.9c0.6,1.5,0.8,3.2,0.6,4.8c-0.2,2.6,0,5.1,0.5,7.7c0.5,2.3,1.5,4.4,1.6,6.8
	c0.1,3.3-1.6,6.3-3.2,9.1c1.8-0.1,3.5-0.8,4.7-2.2c0.4,1.5,0.1,3.1-0.9,4.2c2.7-0.1,5-2.2,6-4.7c0.9-2.6,1.2-5.3,0.8-8
	c-0.4-2.7-0.6-5.4-0.6-8c0.2-1.5,0.3-2.9,0.2-4.4c-0.3-2.9-2-5.4-3.8-7.8l-3.5-4.7c-0.2-0.4-0.6-0.7-1-0.9
	C204.6,388.3,204.3,394.4,205.2,396z"/>
<path class="st25" d="M191.4,427.7c-0.8,0.8-1.5,1.7-2.2,2.6l0,0c-0.5,0.7-1,1.4-1.4,2.2c-0.2,0.3-0.4,0.7-0.5,1
	c-8-0.4-15.4-4.4-20.2-10.9l-0.3-0.5l0.3-0.6c3.3-6.1,5.6-11.4,5.6-11.4s9.4,3,15.4,7.3c0.5,0.3,0.9,0.7,1.4,1
	C192.8,421.3,194.5,424.5,191.4,427.7z"/>
<path class="st24" d="M215.8,405.5c0,13-9.3,24.2-22.1,26.6c-1.6,0.3-3.3,0.4-4.9,0.4h-0.1h-0.9c-14.9-0.6-26.5-13.1-26-28
	c0.6-14.9,13.1-26.5,28-26C204.3,379.1,215.8,391,215.8,405.5L215.8,405.5z"/>
<path class="st25" d="M192.3,472.3c0,0,13.6,7.7,10.1,1.2l-17.7-26.2l0,0l20.2,25.9c0,0,12.9,17.7,5.8,29.8c0,0-1,10.1,0.2,12.5
	s-0.4,28-0.4,28s-4.8-4.5-7.4-3.6s-20.8,2.4-20.8,2.4L192.3,472.3z"/>
<path class="st25" d="M209.3,538.1l-0.3,4.8c-1.6-1.2-3.9-2.5-5.4-2c-2.6,0.9-20.8,2.4-20.8,2.4l0.8-5.9L209.3,538.1z"/>
<path class="st30" d="M192.8,472.3c0,0,13.6,7.7,10.1,1.2l-17.8-26.2l0,0l20.1,25.9c0,0,12.9,17.7,5.8,29.8c0,0-1,10.1,0.2,12.5
	s-0.3,28-0.3,28s-4.8-4.5-7.4-3.6s-20.8,2.4-20.8,2.4L192.8,472.3z"/>
<path class="st25" d="M200.1,485.4c-0.8,8.2-4.2,18-4.2,18s-2.4,24.4-5.5,31.6s-1.7,17.2-3.4,35.5c-0.6,6.6-2.8,11.1-5.6,14.2
	c-4.7,5-11.5,6.1-16.8,5.8c-0.4,0-0.9,0-1.3-0.1c-8.6-0.9-16.8-42.2-16.8-42.2s-3.9-35.2-2.4-39.9c1.5-4.8-1.5-32.3-2.6-38.3
	c-0.7-3.8,1.3-10,2.8-14.1c0.9-2.3,1.6-4,1.6-4s2.9-9.3,7.7-14.1c1.3-1.4,3.2-2.1,5.1-2.1c2.3,0.1,4.5,0.8,6.4,2l0.2,0.1
	c0,0,31.2,31.9,34.1,39.3C200.3,479.3,200.4,482.2,200.1,485.4z"/>
<path class="st28" d="M199.1,484.9c-0.8,8.2-4.2,18.1-4.2,18.1s-2.4,24.3-5.5,31.5s-1.7,17.2-3.4,35.5c-0.6,6.6-2.8,11.2-5.6,14.2
	c-4.7,5-11.5,6.1-16.8,5.8l-1.3-0.1c-8.6-0.8-16.8-42.2-16.8-42.2s-3.9-35.2-2.4-39.9c1.5-4.8-1.5-32.2-2.6-38.3
	c-0.7-3.8,1.3-10,2.8-14.1c0.9-2.3,1.6-3.9,1.6-3.9s2.9-9.3,7.7-14.1c1.3-1.4,3.2-2.1,5.1-2.1c2.3,0.1,4.5,0.8,6.4,2
	c0.1,0,0.2,0.1,0.2,0.1c0,0,31.2,31.9,34.1,39.3C199.3,478.8,199.4,481.7,199.1,484.9z"/>
<path class="st25" d="M164.1,610.4c0,0-7.1,6.3-9.5,6S164.1,610.4,164.1,610.4z"/>
<path class="st25" d="M165.9,616.5c0,0-7.5,3.5-9.7,4S163.1,615.6,165.9,616.5z"/>
<path class="st25" d="M194.8,521.8c0,0,11.1,0.1,12.7,3.6S198.4,520.4,194.8,521.8z"/>
<path class="st25" d="M193.3,527.9c0,0,8.5,1.8,11.1,3.8S193.3,527.9,193.3,527.9z"/>
<path class="st25" d="M179,506.9c0,0-1,34.9-4.8,39.4S179,506.9,179,506.9z"/>
<path class="st25" d="M169.5,605.4c0,0-7.1,30.8,7.1,32.7s9.8-35,9.8-35L169.5,605.4z"/>
<path class="st24" d="M168.9,604.9c0,0-7.1,30.7,7.1,32.7s9.8-35,9.8-35L168.9,604.9z"/>
<path class="st25" d="M215.6,402.5c-0.4-0.6-0.7-1.2-1-1.9c-1.9-3.9-6.8-2-10.3-0.1c-0.6,0.8-1.3,1.6-1.9,2.5
	c-0.9,1-1.6,2.1-2.2,3.4c-0.4,1-0.7,2-0.9,3c-0.5,1.8-1.2,3.4-1.9,5.1c-2.2,5.7-3.4,11.6-3.8,17.6c-1.6,0.3-3.3,0.4-4.9,0.4h-0.1
	v-0.1c0.2-0.7,0.3-1.4,0.5-2.1l0,0c0.7-3.9,0.8-7.9,0.3-11.8c0-0.1,0-0.2,0-0.3c-0.1-0.9-0.3-1.8-0.4-2.6l-1,1.8
	c-2.1,4-4.4,8-8.5,9.8c-1.6,0.7-3.4,1-5.1,1.2c-2.2,0.1-4.3,0.5-6.4,1.1c-0.7,0.2-1.4,0.6-1.9,1.1c-0.6,0.8-0.9,1.8-0.9,2.8
	c-0.2,1.3-0.6,2.6-1,3.9c-1.8,4.7-4.7,9-8.4,12.5l-0.9,0.9c-1.6,1.6-3.5,2.9-5.6,3.8c-1.9,0.6-3.9,0.9-5.9,0.9
	c0.9-2.3,1.6-3.9,1.6-3.9s2.9-9.3,7.7-14.1c1.3-1.4,3.2-2.1,5.1-2.1c3.6-4.2,6.7-8.9,9.3-13.8c-8.8-12-6.3-28.9,5.7-37.8
	c12-8.8,28.9-6.3,37.8,5.7C213.3,393.3,215.1,397.8,215.6,402.5L215.6,402.5z"/>
<path class="st30" d="M217.3,381.4c-1.6-1.8-3.9-2.8-6-3.9c-0.8-0.3-1.4-0.8-2-1.4c-0.4-0.8-0.6-1.6-0.6-2.5
	c-0.8-5.2-5.6-8.8-10.4-11c-6.2-2.7-13.7-3.9-19.7-0.6c-2.9,1.6-5.2,4-7.8,6c-3.3,2.5-7.1,4.3-10.7,6.5s-6.9,5-8.6,8.9
	c-2.6,5.9-0.6,12.7-0.3,19.1c0.5,10.1-3.6,20.8-11.8,26.8c-1,0.6-1.9,1.4-2.6,2.3c-0.7,0.9-0.8,2.2-0.2,3.2c0.4,0.6,1.1,0.9,1.5,1.4
	c0.9,1.1,0.8,2.7,0.4,4.1c-1.2,4.5-3.6,8.5-6.9,11.7c0.1,1.1,1.4,1.5,2.5,1.6c2.8,0.4,5.6,0.6,8.4,0.6c4.4,0.4,8.8-1.4,11.7-4.7
	c5-4.7,9.2-10.6,10.4-17.3c0.1-1,0.4-2,0.9-2.8c0.5-0.5,1.2-0.9,1.9-1.1c3.7-1.3,8-0.7,11.6-2.2c4.7-2,7-7,9.4-11.6
	c0.1,0.9,0.2,1.8,0.4,2.6c0.7,4.7,0.5,9.5-0.7,14.1c-0.7,2.6-1.6,5.2-1.6,7.9c0.1,2,2.1,12.4,4.8,9.3s1.7-10,1.7-13.9
	c0-7.3,1.3-14.5,3.9-21.2c0.6-1.7,1.4-3.4,1.9-5.1c0.2-1,0.5-2,0.9-3c0.6-1.2,1.3-2.3,2.2-3.4l1.9-2.5c3.6-1.9,8.4-3.8,10.3,0.1
	c0.7,1.5,1.1,3.2,3,1.7c1.1-0.9,1.5-2.6,1.8-3.9C220.1,392,221.1,385.6,217.3,381.4z"/>
<path class="st25" d="M181.1,475.9c-0.7-18.5-26.6-22.3-32.6-4.8c-0.1,0.1-0.1,0.2-0.1,0.4c-3.9,11.8-2.2,41.8-2.2,41.8
	s0.5,20.1,2.4,26.8s7.2,25.9,7.2,29s4.9,14.9,7,15.8s3.1,7.5,3.6,8.7s2.1,16.8,2.1,16.8s19.4-1.2,19.7-4.3s-4.2-18.2-4.2-18.2
	s-3.4-6.2-3.9-11.2s-3.2-7.2-2.7-10.6s-1.6-5.2-1.6-7.4s-1.5-8.2-1.5-8.2s-3.3-2.6-2.7-5.7s-4.6-9.3-3.3-11.5s1.7-7.7,1.7-7.7
	s1.7-24.7,2.9-31.4s8.2-17.5,8.2-17.5S181.2,476.4,181.1,475.9z"/>
<path class="st25" d="M180.3,584.2c-4.7,5-11.5,6.1-16.8,5.8c-0.6-2.3-1.5-5.2-2.8-5.8c-2.1-0.8-7-12.7-7-15.8s-5.3-22.3-7.2-29
	s-2.4-26.8-2.4-26.8s-1.7-30,2.2-41.8c0-0.1,0.1-0.2,0.1-0.4c6-17.5,31.9-13.6,32.6,4.8c0,0.5,0,0.9,0,0.9s-7,10.8-8.2,17.5
	s-2.9,31.4-2.9,31.4s-0.4,5.5-1.7,7.7s3.8,8.4,3.3,11.5s2.7,5.7,2.7,5.7s1.5,6,1.5,8.2s2.1,3.9,1.6,7.4s2.2,5.7,2.7,10.6
	C178.4,579,179.2,581.7,180.3,584.2z"/>
<path class="st28" d="M180.1,475.3c-0.7-18.5-26.6-22.3-32.6-4.8l-0.1,0.4c-3.9,11.8-2.2,41.8-2.2,41.8s0.5,20.1,2.4,26.8
	s7.2,25.9,7.2,29s4.9,14.9,7,15.8s3.1,7.5,3.6,8.8s2.1,16.8,2.1,16.8s19.4-1.2,19.7-4.3s-4.3-18.2-4.3-18.2s-3.4-6.2-3.8-11.2
	s-3.2-7.2-2.7-10.6s-1.6-5.1-1.6-7.4s-1.5-8.2-1.5-8.2s-3.3-2.6-2.7-5.7s-4.6-9.3-3.3-11.5s1.7-7.7,1.7-7.7s1.7-24.7,2.9-31.4
	s8.2-17.5,8.2-17.5S180.1,475.9,180.1,475.3z"/>
<path class="st25" d="M148.3,522.8c0.5-0.5,10.3-11.3,13.4-7.5C164.7,519.2,148.3,522.8,148.3,522.8z"/>
<path class="st25" d="M149.2,531.2c0.4-0.4,9.8-0.8,12.1-6S149.2,531.2,149.2,531.2z"/>
<g class="st1">
	<path d="M138.5,436.4c0.2,0.3,0.4,0.6,0.5,0.9c0.4-1.2,0.2-2.5-0.5-3.5c-0.5-0.5-1.1-0.8-1.6-1.4l-0.1-0.1
		c-0.5,0.9-0.4,1.9,0.1,2.7C137.4,435.5,138,435.8,138.5,436.4z"/>
	<path d="M151.6,403c0-1,0-2,0-2.9c-0.2-3.5-0.8-7.1-1-10.6c-0.2,4.3,0.8,8.8,1,13.2C151.6,402.8,151.6,402.9,151.6,403z"/>
	<path d="M191.7,446c-2.4,2.8-4.3-5.2-4.7-8.4c-0.1,0.6-0.1,1.1-0.1,1.7c0.1,2,2.1,12.4,4.8,9.3c1.8-2.1,2-5.7,1.9-9.1
		C193.4,442,193,444.4,191.7,446z"/>
	<path d="M189.2,417.2c0.2,1.3,0.3,2.7,0.4,4.1c0.1-2.2,0-4.4-0.4-6.6c-0.1-0.9-0.3-1.8-0.4-2.6c-2.5,4.6-4.8,9.5-9.4,11.6
		c-3.6,1.6-7.9,1-11.6,2.2c-0.7,0.2-1.4,0.6-1.9,1.1c-0.6,0.8-0.9,1.8-0.9,2.8c-1.1,6.8-5.4,12.6-10.4,17.3
		c-2.9,3.3-7.3,5.1-11.7,4.7c-2.8,0-5.6-0.2-8.4-0.6c-0.4-0.1-0.9-0.2-1.3-0.3c-0.4,0.4-0.8,0.9-1.2,1.3c0.1,1.1,1.4,1.5,2.5,1.6
		c2.8,0.4,5.6,0.6,8.4,0.6c4.4,0.4,8.8-1.4,11.7-4.7c5-4.7,9.2-10.6,10.4-17.3c0.1-1,0.4-2,0.9-2.8c0.5-0.5,1.2-0.9,1.9-1.1
		c3.7-1.3,8-0.7,11.6-2.2c4.7-2,7-7,9.4-11.6C188.9,415.5,189,416.4,189.2,417.2z"/>
	<path d="M219.2,394.9c-0.3,1.3-0.7,3-1.8,3.9c-1.9,1.5-2.3-0.2-3-1.7c-1.9-3.9-6.8-2-10.3-0.1l-1.9,2.5c-0.9,1-1.6,2.1-2.2,3.4
		c-0.4,1-0.7,2-0.9,3c-0.5,1.7-1.2,3.4-1.9,5.1c-2.6,6.8-3.9,14-3.9,21.3c0,0.3,0,0.7,0,1c0.2-6.8,1.5-13.4,3.9-19.7
		c0.6-1.7,1.4-3.4,1.9-5.1c0.2-1,0.5-2,0.9-3c0.6-1.2,1.3-2.3,2.2-3.4l1.9-2.5c3.6-1.9,8.4-3.8,10.3,0.1c0.7,1.5,1.1,3.2,3,1.7
		c1.1-0.9,1.5-2.6,1.8-3.9c0.8-3,1.1-6.1,1-9.2C220,390.5,219.7,392.7,219.2,394.9z"/>
</g>
<path class="st30" d="M242.6,492.2l0.5,0.4c-1-0.7-1.2-2-0.6-2.9c0,0,0,0,0,0l23.8-34.6c0.7-1,2-1.2,2.9-0.6c0,0,0,0,0.1,0l-0.5-0.4
	c1.5,1.1,1.9,3.2,0.9,4.7l-22.4,32.5C246.3,492.9,244.1,493.3,242.6,492.2z"/>
<path class="st28" d="M269.1,454.3l0.4,0.3l0,0l-26.2,38.1l0,0l-0.4-0.3c-0.8-0.5-1-1.6-0.4-2.4l24.3-35.2
	C267.2,453.9,268.3,453.7,269.1,454.3z"/>
<path class="st30" d="M266.1,459.4L266.1,459.4c0.2,0.1,0.2,0.2,0.1,0.3l-1.9,2.8c-0.1,0.1-0.2,0.1-0.2,0l-0.1-0.1
	c-0.1-0.1-0.1-0.2,0-0.2l1.9-2.8C265.9,459.4,266,459.4,266.1,459.4z"/>
<g class="st1">
	
		<linearGradient id="SVGID_6_" gradientUnits="userSpaceOnUse" x1="980.9449" y1="409.47" x2="980.9449" y2="411.44" gradientTransform="matrix(1 0 0 -1 -61.06 797.16)">
		<stop  offset="0" style="stop-color:#808080;stop-opacity:0.25"/>
		<stop  offset="0.54" style="stop-color:#808080;stop-opacity:0.12"/>
		<stop  offset="1" style="stop-color:#808080;stop-opacity:0.1"/>
	</linearGradient>
	<path class="st31" d="M919.4,387.7c0.2-0.5,0.3-1.1,0.3-1.7l0.6-0.3C920,386.4,919.8,387,919.4,387.7z"/>
</g>
<g class="st1">
	
		<linearGradient id="SVGID_7_" gradientUnits="userSpaceOnUse" x1="1069.9249" y1="189.74" x2="1069.9249" y2="199.76" gradientTransform="matrix(1 0 0 -1 -61.06 797.16)">
		<stop  offset="0" style="stop-color:#808080;stop-opacity:0.25"/>
		<stop  offset="0.54" style="stop-color:#808080;stop-opacity:0.12"/>
		<stop  offset="1" style="stop-color:#808080;stop-opacity:0.1"/>
	</linearGradient>
	<path class="st32" d="M1009.9,607.3c0-0.3-0.1-0.6-0.2-0.9c-0.7-2.8-1.4-6-2.1-9c0.3,1.4,1.4,6.2,2.3,10L1009.9,607.3z"/>
</g>
<g class="st1">
	
		<linearGradient id="SVGID_8_" gradientUnits="userSpaceOnUse" x1="972.81" y1="543.52" x2="972.81" y2="543.76" gradientTransform="matrix(1 0 0 -1 -61.06 797.16)">
		<stop  offset="0" style="stop-color:#808080;stop-opacity:0.25"/>
		<stop  offset="0.54" style="stop-color:#808080;stop-opacity:0.12"/>
		<stop  offset="1" style="stop-color:#808080;stop-opacity:0.1"/>
	</linearGradient>
	<path class="st33" d="M911.6,253.6l0.3-0.2l0,0L911.6,253.6z"/>
</g>
<linearGradient id="SVGID_9_" gradientUnits="userSpaceOnUse" x1="1002.0788" y1="137.6299" x2="1002.0788" y2="573.9353" gradientTransform="matrix(1 0 0 -1 -61.06 797.16)">
	<stop  offset="0" style="stop-color:#808080;stop-opacity:0.25"/>
	<stop  offset="0.54" style="stop-color:#808080;stop-opacity:0.12"/>
	<stop  offset="1" style="stop-color:#808080;stop-opacity:0.1"/>
</linearGradient>
<path class="st34" d="M1012.6,628.5c-1-1.3-1.7-5.9-1-7.6s1.6-19.5,0.8-20.8s-4.8-3.2-4.8-3.2l-0.2-0.8c-0.1-0.4-0.2-0.7-0.2-1.1
	c1.7-1.6,3.2-3.4,4.4-5.3c-4-2.9-6.4-7.6-6.3-12.6c0-8.6-9.4-36.3-9.4-36.3s-5.4-7.7-3.4-11.5s0.2-14.8,0.2-14.8l4.3-6.9
	c0,0,0.7-6.6,1.3-13.5s-4-14.4-1.8-17.7s-0.9-19.9-0.9-19.9s-2-21-5.3-28.1v0c-0.7-3-1.2-6.1-1.4-9.1c0-0.8-0.1-1.6-0.1-2.4
	c5.3-9.5,13-23.5,12.7-24.8c-0.3-1.9,1.8-8.2,1.8-8.2l1.7-15.5c0,0,2.7-24.9,2.9-39.2s-7.8-19.9-7.8-19.9c-1.9-0.6-4-0.1-5.5,1.2
	c0.7-0.7,1.5-1.2,2.5-1.5l0.6-0.1c0.8-0.1,1.7,0.1,2.5,0.4l0,0l0,0c-0.1-0.1-0.5-0.3-1-0.7c0.5-0.1,0.9-0.2,1.3-0.4
	c0.7-0.4,1.3-1,1.7-1.8c0.3-0.4,0.6-0.9,0.8-1.4h-0.1h-0.1c0.2-0.6,0.3-1.3,0.3-2c-0.2-1.7-0.9-3.2-2-4.5c-4.5-6-12.1-9.6-15.6-16.2
	c-3-5.7-2.5-12.6-1.5-18.9s2.4-12.9,0.9-19.2c-1.6-5.7-5.1-10.7-10-14.1c-4.9-3.4-10.5-5.6-16.3-6.6c-2.7-0.5-5.6-0.8-8.3,0.1
	c-2,0.7-3.8,2-5.8,2.8c-4.5,1.8-9.7,0.7-14.5,1.9c-4.3,1.2-8.1,3.9-10.7,7.6c-1.1,1.5-2,3-2.8,4.6c-1.3,2.6-2.4,5.4-3.3,8.3
	c-0.5,1.7-0.2,2.8-0.5,3.7c-0.2,0.3-0.5,0.5-0.8,0.7c-0.5,0.5-1,1.1-1.2,1.7c-1,1.8-1,4,0,5.8c0,0.8,0,1.5,0.2,2.3
	c0.3,1.1,0.7,2.2,1.2,3.2c5.2,12.2,5.7,25.9,1.4,38.4c-0.6,0.3-1.2,0.5-1.8,0.9c0,0-0.4,0.3-1,0.9c-2.7,2.5-9.6,10.1-9.1,20.6
	c0.7,12.8,0,31.2,0,31.2s-1.6,12.6-0.7,16.8c-0.3,3.9,0,11,4.5,15.7c2.2,2.2,5.6,2.8,8.4,1.4c2.2-1,4.5-2.6,5.5-4.6
	c-1.6,3.2-3.5,6.2-5.9,7.3c-3.4,1.5-2.5,8.9-2.5,8.9s-3.7,4.4-3.1,6.4s-5.4,4.2-2.2,7.1c0.2,0.2,0.5,0.4,0.8,0.7l0,0
	c-3.1,2.9-5.2,6.8-6,11c-1,6.4-2.4,12.8-4.2,19.1c-0.8,0.1-1.4,0.8-1.2,1.6c0,0.3,0.2,0.6,0.4,0.8c-0.3,0.8-0.7,1.6-1.2,2.3
	c-1.5,1.6-2.8,3.3-4.1,5.1c-0.6,0.2-1,0.8-1,1.4c0,0.1,0,0.2,0,0.3c-1.2,2.3-1.8,4.6-0.8,6.3c2.5,3.8,2.9,16.6,2.9,16.6
	s-0.9,11.5,1.6,15.3s4.5,27.6-0.9,34.7c0,0-1.8,16.4-1.1,17.9s-2.9,5.5-1.8,8.8s6.5,64.3,5.8,66.8c0,0,1.9-0.3,4.5-0.5
	c-0.1,0.4-0.1,0.9-0.2,1.3c-0.2,1.1-0.3,2.3-0.5,3.4c0,0.2-0.1,0.5-0.1,0.7c-1-1.5-2.5-2.3-4.7-0.5l-3.1,5.6c0,0-4.6,8.7-9.6,9.5
	c-3.6,0.6-7.1,2.9-8.8,4.1c-0.7,0.5-1,0.8-1,0.8s-6,5,1.9,7.1c2.1,0.5,4.2,0.9,6.3,1.2c8.2,1.1,16.6,0.9,24.7-0.7c2-0.4,4-0.6,6-0.7
	c7.7-0.3,10.4-2.2,10.4-2.2s0.8-8.1,0-8.8c-0.1-0.1-0.2-0.3-0.3-0.4c-1.2-2.1-4.4-10.8-4.4-10.8s-0.4,0-0.8,0.5L915,635
	c-0.5-2.4-0.8-4.9-0.9-7.4c0-0.5,0-0.9,0-1.3c0.9,0.3,1.7,0.7,2.4,1.3c0,0,0.9-6.6,0-11.3s0.7-23,2.7-27.6s2.5-22.3,1.8-24.1
	c0,0,3.6-15.7,2.2-18.8s5.8-31.6,5.8-31.6s3.6-6.8,2.7-7.7c0,0,5.8-3.8,5.2-6.6s5.4-6.2,5.4-6.2s5.4,13,7.2,15s1.9,14.8,4.1,17.5
	s5.1,16.6,8,20.3c2.9,3.8,14.6,13.7,16.4,25c0,0,10.5,16.1,10.1,21.2c-0.2,2.1,1.9,5,5.3,6.4l-0.2,1.3l-0.4,3.5l0,0
	c0,0-3.2,0.4-3.7,7.3s-0.4,14.5-1.9,16.5c-1.1,1.3-2,2.7-2.7,4.2c-1.7,3.6-1.7,8.2,8.3,9.7c15.3,2.3,19.1-6.2,19.1-6.2
	c0.6-1.6,1-3.3,1.2-5C1012.9,629.7,1012.8,629.1,1012.6,628.5z"/>
<path class="st35" d="M911.6,268.6c0.3,1.1,0.7,2.1,1.2,3.1c5.4,12.7,5.6,27,0.7,39.9c3.6-0.2,7.2,0.4,10.8,0.6s7.3,0.2,10.6-1.2
	s6.2-4.4,6.7-8.1c0.7-5-3-9.4-6.2-13.2s-6.4-8.1-7.4-13.2c-1.1-5.5,0.5-12.1-3.1-16.4c-0.3-0.4-0.7-0.8-1.2-1
	c-1.9-0.9-6.8-0.8-8.7,0.2C912.2,261.1,910.9,265.4,911.6,268.6z"/>
<path class="st36" d="M1010.9,630.7c-0.2,1.7-0.6,3.3-1.2,4.9c0,0-3.6,8.4-18.6,6.1c-9.8-1.5-9.7-6-8.1-9.6c0.7-1.5,1.6-2.9,2.7-4.2
	c1.4-2,1.3-9.5,1.8-16.3s3.6-7.2,3.6-7.2l0.2,7.7c5.8-7.6,9.9,1.3,9.9,1.3s8.3,0.2,7.3-4.1c-1.1-4.5-2.7-11.7-2.7-11.7
	s4,1.9,4.7,3.2s-0.1,18.8-0.8,20.5s0,6.2,1,7.5C1011,629.5,1011.1,630.1,1010.9,630.7z"/>
<path class="st36" d="M1010.9,630.7c-0.2,1.7-0.6,3.3-1.2,4.9c0,0-3.6,8.4-18.6,6.1c-9.8-1.5-9.7-6-8.1-9.6c1.4,2,4.5,3.6,11.1,3
	C1004.3,634.4,1008.7,632.7,1010.9,630.7z"/>
<path class="st25" d="M1010.9,630.7c-0.2,1.7-0.6,3.3-1.2,4.9c0,0-3.6,8.4-18.6,6.1c-9.8-1.5-9.7-6-8.1-9.6c1.4,2,4.5,3.6,11.1,3
	C1004.3,634.4,1008.7,632.7,1010.9,630.7z"/>
<path class="st37" d="M1008.1,609c0,3.6-2.3,6.7-5.7,7.8c-3.2,1-6.8,0.5-9.6-1.5c-1.7-1.2-2.6-3.2-2.4-5.3l0.2-1.9l0.8-7l1.2-9.7
	c0,0,12.4-6.3,11.6-3.9c-0.3,0.9,0.4,4.9,1.4,9.6c0.7,3.3,1.5,7,2.3,10.1C1008.1,607.8,1008.1,608.4,1008.1,609z"/>
<path class="st25" d="M989.7,608.5c0,0,10.7-12.6,19.5,1.2l-1.5,8.8h-18L989.7,608.5z"/>
<path class="st36" d="M989.7,609.4c0,0,10.7-12.6,19.5,1.2l-1.5,8.8h-18L989.7,609.4z"/>
<circle class="st38" cx="1003.7" cy="616" r="1.1"/>
<circle class="st38" cx="989.7" cy="614.3" r="1.1"/>
<circle class="st38" cx="999.9" cy="623.4" r="1.1"/>
<circle class="st38" cx="990.4" cy="622.2" r="1.1"/>
<circle class="st38" cx="1002" cy="620" r="1.1"/>
<circle class="st38" cx="989.7" cy="618.2" r="1.1"/>
<circle class="st38" cx="998.8" cy="627.5" r="1.1"/>
<circle class="st38" cx="990.4" cy="626.1" r="1.1"/>
<path class="st37" d="M917.9,643.9l-14.8,5c0,0-7.8-7.8-5.7-10.3c0.9-1,1.7-4.4,2.4-8c0.2-1.1,0.4-2.3,0.5-3.4
	c0.5-3.5,0.8-6.5,0.8-6.5s17.2-8.3,14.4,0c-0.7,2.3-1,4.8-0.8,7.3c0.1,2.4,0.4,4.9,0.9,7.3C916.2,638.2,917,641.1,917.9,643.9z"/>
<path class="st25" d="M917.9,643.9l-14.8,5c0,0-7.8-7.8-5.7-10.3c0.9-1,1.7-4.4,2.4-8c0.8,1.5,1.4,3.1,1.7,4.8c12.8,7,13,2.8,13,2.8
	c0.1-1.1,0.5-2.1,1.1-3C916.2,638.2,917,641.1,917.9,643.9z"/>
<path class="st36" d="M921.2,655.4c0,0-2.6,1.9-10.1,2.2c-2,0.1-3.9,0.3-5.9,0.7c-7.9,1.5-16,1.8-24,0.7c-2.1-0.3-4.1-0.7-6.1-1.2
	c-7.7-2.1-1.9-7-1.9-7s0.4-0.3,1-0.8c1.6-1.2,5-3.5,8.5-4c4.8-0.8,9.3-9.4,9.3-9.4l3-5.5c4.7-4.1,6.4,5.5,6.4,5.5
	c12.8,7,13,2.8,13,2.8c0.7-3.8,2-3.8,2-3.8s3.2,8.6,4.3,10.7c0.1,0.2,0.2,0.3,0.3,0.4C921.9,647.4,921.2,655.4,921.2,655.4z"/>
<path class="st36" d="M921.2,655.4c0,0-2.6,1.9-10.1,2.2c-2,0.1-3.9,0.3-5.9,0.7c-7.9,1.5-16,1.8-24,0.7c-2.1-0.3-4.1-0.7-6.1-1.2
	c-7.7-2.1-1.9-7-1.9-7s0.4-0.3,1-0.8c4.4,1,11.8,2.6,16.5,2.3c7-0.4,13.7-1.6,13.7-1.6s12-3.8,16.4-4.3c0.1,0.2,0.2,0.3,0.3,0.4
	C921.9,647.4,921.2,655.4,921.2,655.4z"/>
<path class="st25" d="M921.2,655.4c0,0-2.6,1.9-10.1,2.2c-2,0.1-3.9,0.3-5.9,0.7c-7.9,1.5-16,1.8-24,0.7c-2.1-0.3-4.1-0.7-6.1-1.2
	c-7.7-2.1-1.9-7-1.9-7s0.4-0.3,1-0.8c4.4,1,11.8,2.6,16.5,2.3c7-0.4,13.7-1.6,13.7-1.6s12-3.8,16.4-4.3c0.1,0.2,0.2,0.3,0.3,0.4
	C921.9,647.4,921.2,655.4,921.2,655.4z"/>
<circle class="st38" cx="901.4" cy="640" r="1.1"/>
<circle class="st38" cx="895.2" cy="643.1" r="1.1"/>
<circle class="st38" cx="898.5" cy="641.5" r="1.1"/>
<circle class="st38" cx="891.7" cy="644.9" r="1.1"/>
<path class="st25" d="M915.5,620.8c-0.7,2.3-1,4.8-0.8,7.3c-3.9-1.3-10.2-1.1-14.4-0.7c0.5-3.5,0.8-6.5,0.8-6.5
	S918.3,612.5,915.5,620.8z"/>
<path class="st25" d="M1005.6,597c-5.4,5.3-10.5,5.6-14.1,4.1l1.2-9.7c0,0,12.4-6.3,11.6-3.9C1003.9,588.3,1004.6,592.3,1005.6,597z
	"/>
<path class="st38" d="M911.6,418c0,0-8.5,4.8-10,14.2s-4.2,21.4-6.1,23.6s-8.1,9.2-5.7,12.9s2.8,16.4,2.8,16.4s-0.9,11.3,1.5,15
	s4.4,27.3-0.9,34.2c0,0-1.8,16.1-1.1,17.7s-2.8,5.5-1.8,8.7s6.3,63.5,5.7,65.9c0,0,16.6-2.4,20.9,1.5c0,0,0.9-6.5,0-11.1
	s0.7-22.7,2.6-27.3s2.4-22,1.7-23.8c0,0,3.5-15.5,2.2-18.5s5.6-31.2,5.6-31.2s3.5-6.8,2.6-7.6c0,0,5.7-3.7,5-6.5s5.2-6.1,5.2-6.1
	s5.2,12.9,7,14.8c1.8,2,1.8,14.6,4,17.2s5,16.3,7.8,20.1c2.8,3.7,14.2,13.5,15.9,24.7c0,0,10.3,15.9,9.8,20.9s11.6,14.2,23.1-2.8
	c-3.9-2.9-6.2-7.5-6.1-12.4c0-8.5-9.2-35.8-9.2-35.8s-5.2-7.6-3.3-11.3s0.2-14.6,0.2-14.6l4.2-6.8c0,0,0.7-6.5,1.3-13.3
	s-3.9-14.2-1.7-17.5s-0.9-19.6-0.9-19.6s-2.7-28.2-6.8-29.9S911.6,418,911.6,418z"/>
<path class="st37" d="M931.5,378.5c0,0-4.5,0.5-9.9,1c-7.9,0.7-17.8,1.5-18.9,0.7c-2-1.3,0-17.9,0-17.9s0.7-18.1,0-30.8
	c-0.5-10.3,6.3-17.8,8.8-20.3c0.6-0.6,1-0.9,1-0.9l2.2,1.7l12.4,21.2L931.5,378.5z"/>
<path class="st37" d="M980.1,308.9l-12.2,7.4l-20.1,15.3c0,0-20.7-10.9-15.5-17.2c1-1.3,1.6-2.7,1.9-4.3c1.6-7.3-1.9-17.8-1.9-17.8
	s27.3-36.9,25.7-8.3c-0.6,11.5,2.8,17.7,7.1,21.1C971.6,310.3,980.1,308.9,980.1,308.9z"/>
<ellipse class="st25" cx="942.6" cy="276.2" rx="25.3" ry="26.8"/>
<ellipse class="st37" cx="942.6" cy="275.3" rx="25.3" ry="26.8"/>
<path class="st25" d="M980.1,308.9l-12.2,7.4l-20.1,15.3c0,0-20.7-10.9-15.5-17.2c1-1.3,1.6-2.7,1.9-4.3c22.9,19.5,29.8-0.7,31-4.9
	C971.6,310.3,980.1,308.9,980.1,308.9z"/>
<path class="st25" d="M931.5,378.5c0,0-4.5,0.5-9.9,1c-0.2-4.7-0.9-10-0.8-13.2c0.2-5.5,0.2-6.1-1.5-9.2s-1.5-5.5-1.3-9.4
	c0.2-3.8-0.8-4.5-4.3-10.5l-0.5-0.8c-1.7-3-2.2-8.4-2.3-13.5c0,0,0,0,0-0.1c0-1.2,0-2.4,0.1-3.5v-0.1c0.1-3.5,0.4-6.4,0.6-7.8
	c0.6-0.6,1-0.9,1-0.9l2.2,1.7l12.4,21.2L931.5,378.5z"/>
<path class="st36" d="M998.6,314.2L998.6,314.2c-8-3.4-12.4,13.8-13.6,19.1c-0.2,1-0.3,1.6-0.3,1.6s0.1,1.5,0.3,3.8
	c0.6,7.7,1.6,25-0.8,29.2c-0.2,0.4-0.4,0.9-0.6,1.4c-0.7,2.6-0.7,6.4-0.3,10.1c0.4,3.8,1.1,7.6,1.9,11.4c0,0,5.2,13.3,3.1,22
	c-0.7,3.2-0.9,6.6-0.6,9.9c0.2,3,0.7,6,1.4,9c0.2,0.9,0.3,1.4,0.3,1.4c-3.3,1.1-6.5,2.1-9.7,2.8c-6.1,1.5-12.4,2.3-18.7,2.5
	c-29.5,0.9-49.1-13.2-53.8-17c-0.4-0.3-0.6-0.5-0.8-0.7c-3-2.8,2.8-5,2.2-7s3-6.3,3-6.3s-0.8-7.2,2.5-8.7s5.7-6.8,7.5-11.1
	s-0.3-15.7-0.1-21.1s0.2-6.1-1.5-9.2s-1.5-5.5-1.3-9.4c0.2-3.8-0.8-4.5-4.3-10.5l-0.5-0.8c-1.7-3-2.2-8.4-2.3-13.5v-0.1
	c0-1.2,0-2.4,0.1-3.5v-0.1c0.2-4.8,0.7-8.7,0.7-8.7c17.5-9,21.6,0.4,21.6,0.4c25.5,22,31.3-5.5,31.3-5.5
	C979.3,300.6,997.5,313.4,998.6,314.2L998.6,314.2z"/>
<path class="st37" d="M902.3,376.3c0,0-2.2,11.6,4.1,18.1c2.1,2.2,5.5,2.8,8.2,1.4c2.1-1,4.5-2.6,5.3-4.5
	C921.7,387.5,916.3,368.6,902.3,376.3z"/>
<path class="st25" d="M984.2,367.8c-0.2,0.4-0.4,0.9-0.6,1.4l1-25.5l0.3-5.1C985.5,346.4,986.6,363.6,984.2,367.8z"/>
<path class="st25" d="M988.4,412.8c-0.7,3.2-0.9,6.6-0.6,9.9c-1.4,2.6-2.6,4.7-3.4,6.1l-1,1.7c-1.3,1.7-2.5,3.5-3.5,5.3
	c-0.8,1.3-1.3,2.8-1.5,4.3c0,3.4-3.4,25.7-19.4,20.1c-10.4-3.6-3.8-14.6,2.2-21.9c2-2.5,4.1-4.8,6.4-7c0,0,1.8-2.4,3.6-4.8
	c1.2-1.6,2.3-3.2,3.1-5c0.8-2.2,5.8-11.8,5.8-11.8s5-10.6,3.9-15.5c-0.6-2.8-0.7-9.5-0.6-15c0.4,3.8,1.1,7.6,1.9,11.4
	C985.3,390.7,990.5,404,988.4,412.8z"/>
<path class="st37" d="M998.6,314.2c0,0,7.8,5.5,7.6,19.6s-2.8,38.7-2.8,38.7l-1.6,15.3c0,0-2.1,6.2-1.7,8.1s-17.1,32.9-17.1,32.9
	s-5,6.3-5,9.6s-3.4,25.7-19.4,20.1s8.6-28.9,8.6-28.9s6-7.6,6.8-9.8s5.8-11.8,5.8-11.8s5-10.6,3.9-15.5s-0.4-22.7-0.4-22.7l1.1-27.9
	l0.4-7.1C984.7,334.9,988.7,311.3,998.6,314.2z"/>
<path class="st28" d="M915.3,366.2l11.9-4.3c2-0.7,4.2-0.3,5.8,1.2l15.8,14.9c0,0,0.9,2.4-0.3,2.3s-18.2-17.1-18.2-17.1l-16.9,5.7
	l0,0C913.5,367.7,914.2,366.6,915.3,366.2z"/>
<polygon class="st38" points="932.2,386.2 948.5,380.3 930.3,363.2 913.5,368.9 "/>
<circle class="st36" cx="907.6" cy="433.8" r="1.5"/>
<circle class="st36" cx="897.7" cy="452.5" r="1.5"/>
<circle class="st36" cx="976.7" cy="459.2" r="1.5"/>
<circle class="st36" cx="984.9" cy="485.6" r="1.5"/>
<circle class="st36" cx="981.7" cy="478.2" r="1.5"/>
<circle class="st36" cx="978.9" cy="468.7" r="1.5"/>
<circle class="st36" cx="902.3" cy="442.6" r="1.5"/>
<circle class="st36" cx="891.9" cy="462.1" r="1.5"/>
<path class="st30" d="M998.6,314.2L998.6,314.2c-7.9-3.4-12.4,13.8-13.6,19.1l-12.4-17.7c0,0-5.1,8.1-21.5,9.4s-20.4-12.5-20.4-12.5
	c-2.3-0.2-12.5,18.2-16.2,24.8l-0.5-0.8c-1.7-3-2.2-8.4-2.3-13.5v-0.1c0-1.2,0-2.4,0.1-3.5v-0.1c0.2-4.8,0.7-8.7,0.7-8.7
	c17.5-9,21.6,0.4,21.6,0.4c25.5,22,31.3-5.5,31.3-5.5C979.3,300.6,997.5,313.4,998.6,314.2z"/>
<path class="st25" d="M901.8,473.6c0.2,0.5,18.5,21.7,25.3,22.8S901.8,473.6,901.8,473.6z"/>
<path class="st25" d="M914.9,441.2c0,0,0.2,14.9-4.4,18.3S914.9,441.2,914.9,441.2z"/>
<path class="st25" d="M923.4,446.5c0,0-0.4,17.5,6.1,21.7C929.5,468.2,917.5,456.5,923.4,446.5z"/>
<path class="st25" d="M915.3,536.6c0,0-12.2,9-15.6,9.7S915.3,536.6,915.3,536.6z"/>
<path class="st25" d="M912.3,259.7c-2.6,2.2-1.7,6.8,1,9s6.4,2.5,9.8,2.6c6.6,0.2,13.3-0.2,19.8,1.4c2.8,0.6,5.4,1.9,7.6,3.9
	c2,2.2,3.3,4.9,3.9,7.9c1.1,4.3,1.6,8.7,1.3,13.1c-0.2,3-0.6,6-0.2,8.9c0.5,2.8,1.5,5.4,2.8,7.9c5.1,10.7,10.7,21.1,16.9,31.3
	c0.5,1,1.3,1.8,2.2,2.4c1.6,0.8,3.4,0,5-0.8c-0.9-3.1-1.4-6.3-1.6-9.5c1.7,0.4,3.4-0.2,4.5-1.6c1-1.4,1.6-2.9,2-4.6l2.9-10.1
	c0.9-3.1,2.3-6.7,5.4-7.6c1.1-0.2,2.2-0.4,3.3-0.8c1.4-0.9,2.2-2.5,2-4.2c-0.2-1.6-0.9-3.2-2-4.4c-4.4-5.9-11.8-9.5-15.2-16
	c-3-5.6-2.4-12.4-1.5-18.7s2.3-12.7,0.8-18.9c-1.5-5.6-5-10.6-9.7-13.9c-4.8-3.3-10.2-5.6-15.9-6.5c-2.7-0.5-5.5-0.8-8,0
	c-2,0.7-3.7,2-5.6,2.8c-4.4,1.8-9.5,0.7-14.1,1.9c-4.2,1.2-7.9,3.9-10.4,7.5c-2.5,3.6-4.3,7.6-5.5,11.9c-0.8,2.8,0.5,3.9-2,5.4"/>
<path class="st35" d="M912.7,258.8c-2.6,2.2-1.7,6.8,1,9s6.4,2.5,9.8,2.6c6.6,0.2,13.3-0.2,19.8,1.4c2.8,0.6,5.5,1.9,7.6,3.9
	c2,2.2,3.4,4.9,4,7.8c1.1,4.3,1.6,8.7,1.3,13.1c-0.2,3-0.6,6-0.2,8.9c0.5,2.8,1.5,5.4,2.8,7.9c5.1,10.7,10.7,21.1,16.8,31.3
	c0.5,1,1.2,1.8,2.2,2.4c1.6,0.8,3.4,0,5-0.8c-0.9-3.1-1.4-6.3-1.5-9.5c1.7,0.4,3.4-0.2,4.5-1.6c1-1.4,1.6-2.9,2-4.6l2.9-10.1
	c0.9-3.1,2.3-6.7,5.4-7.6c1.1-0.2,2.2-0.4,3.3-0.8c1.4-0.9,2.2-2.5,2-4.2c-0.2-1.6-0.9-3.2-2-4.4c-4.4-5.9-11.8-9.5-15.2-16
	c-3-5.6-2.4-12.4-1.5-18.7s2.3-12.7,0.8-18.9c-1.5-5.6-5-10.6-9.7-13.9c-4.8-3.3-10.2-5.6-15.9-6.5c-2.6-0.7-5.4-0.6-8,0.1
	c-2,0.7-3.7,2-5.6,2.8c-4.4,1.8-9.5,0.7-14.1,1.9c-4.2,1.2-7.9,3.9-10.4,7.5c-2.5,3.6-4.3,7.6-5.5,11.9c-0.8,2.8,0.5,3.9-2,5.4"/>
<path class="st37" d="M909.9,377.6c0,0,20-13.3,25.6-5.1S918,390.7,918,390.7L909.9,377.6z"/>
<path class="st35" d="M916.5,314.4c-0.1,1.3-0.3,2.9-1,3.1c1.9,0,3.7,1.3,5.5,0.9c1.4-0.3,2.7-1.6,3.5-3.6c0.1-0.3,0.2-0.6,0.5-0.8
	c0.2-0.1,0.4,0,0.6,0.1c3.6,2.2,6.9,4.7,10,7.6c1,1,2.2,2,3.3,1.5c0.1-3.6-0.7-7.2-2.1-10.5c-1.2-2.7-3.2-4.8-5.7-6.3
	c-2.1-1-4.4-1.6-6.7-1.8c-1,0-2-0.3-2.9-0.7c-1-0.6-4.2-4.4-4.9-1.6c-0.3,1.3,0.1,4.2,0.1,5.6C916.7,310.2,916.6,312.3,916.5,314.4z
	"/>
<g class="st1">
	<path d="M979.6,344.9c-0.9-0.6-1.7-1.4-2.2-2.4c-6.2-10.1-11.8-20.5-16.8-31.3c-1.3-2.5-2.3-5.2-2.8-7.9c-0.4-3,0-5.9,0.2-8.9
		c0.2-4.4-0.2-8.9-1.3-13.1c-0.6-2.9-2-5.6-3.9-7.8c-2.1-2-4.7-3.3-7.6-3.9c-6.4-1.6-13.2-1.3-19.8-1.4c-3.4-0.1-7.1-0.4-9.8-2.6
		c-2.1-1.7-3-4.6-2.2-7.2c-0.2,0.2-0.4,0.3-0.6,0.5c-2.6,2.2-1.6,6.8,1,8.9s6.4,2.5,9.8,2.6c6.6,0.2,13.3-0.2,19.8,1.4
		c2.8,0.6,5.5,1.9,7.6,3.9c2,2.2,3.3,4.9,3.9,7.8c1.1,4.3,1.6,8.7,1.3,13.1c-0.2,3-0.6,6-0.2,8.9c0.5,2.8,1.5,5.4,2.8,7.9
		c5.1,10.7,10.7,21.1,16.9,31.3c0.5,1,1.2,1.8,2.2,2.4c1.6,0.8,3.4,0,5-0.8c-0.1-0.4-0.3-0.9-0.4-1.3
		C981.5,345.3,980.5,345.3,979.6,344.9z"/>
	<path d="M912.5,259.1l0.3-0.2v0L912.5,259.1z"/>
	<path d="M914.5,256.7l-0.3,0.2L914.5,256.7L914.5,256.7c2.1-1.5,0.9-2.6,1.7-5.2c1.1-4.1,2.9-8.1,5.3-11.7c-0.6,0.6-1.1,1.3-1.6,2
		c-2.5,3.6-4.3,7.6-5.5,11.9c-0.3,1.2-0.4,2.3-0.4,3.5C914.2,257,914.3,256.8,914.5,256.7z"/>
	<path d="M1001.2,310c-1.1,0.3-2.2,0.6-3.3,0.8c-1.6,0.6-2.9,1.7-3.7,3.2c0.6-0.5,1.2-0.8,1.9-1c1.1-0.2,2.2-0.4,3.3-0.8
		C1000.3,311.8,1001,311,1001.2,310L1001.2,310z"/>
	<path d="M983.1,334.7c0,0.8,0.1,1.5,0.1,2.3c1-0.3,1.9-0.8,2.6-1.6c0.3-0.4,0.6-0.9,0.9-1.4C985.7,334.8,984.3,335.1,983.1,334.7z"
		/>
</g>
<path class="st25" d="M905.1,375c0,0,5.3-2.1,8.3-1.6"/>
<path class="st25" d="M920.3,399c0,0,2.7,4.1,16.2,5.9S920.3,399,920.3,399z"/>
<path class="st25" d="M915.4,414.5c0,0,12.2,10.7,31.6,6.8S915.4,414.5,915.4,414.5z"/>
<path class="st39" d="M516.1,548.3c-5.4,2.4-12.7,0.7-13.6-3.3c-1.1,5.3,7.4,8,13.6,5.2c8.4-3.7,25.6-13.5,25.6-13.5s0-0.7,0-1.8
	C541.2,535.1,524.4,544.6,516.1,548.3z"/>
<path class="st39" d="M574.3,535c-0.5,4.2-5.2,5.1-14,6.3c-4.5,0.6-5.9-1.3-6.2-3.7c-0.3,3,0.6,6.3,6.2,5.5c9.8-1.4,14.4-2.3,14-7.9
	C574.3,535.2,574.3,535.1,574.3,535z"/>
<path class="st25" d="M514.3,453c0,0,4.7,2.3,7.7,2S514.3,453,514.3,453z"/>
<ellipse class="st12" cx="773.5" cy="658" rx="19.1" ry="2.6"/>
<ellipse class="st12" cx="700.3" cy="665.4" rx="19.1" ry="2.6"/>
<ellipse class="st12" cx="614.2" cy="655.4" rx="19.1" ry="2.6"/>
<ellipse class="st12" cx="729.6" cy="686.5" rx="13.6" ry="1.9"/>
<ellipse class="st12" cx="653.7" cy="684.7" rx="13.6" ry="1.9"/>
<path class="st40" d="M699.9,664.8c0,0,26.8-87.8-4.2-123c-23.2-26.3-49.5-23.2-61.3-19.9c-6.2,1.7-11.3,5.9-14,11.7
	c-4.1,8.9-3.4,23.3,25.7,40.1c48.7,28.2,51.7,66.8,51.7,66.8L699.9,664.8z"/>
<path class="st41" d="M638.7,534.4c0,0,79,24.7,61.3,130.4"/>
<path class="st41" d="M684.8,543.2c0,0-10.9,7.3-7.4,18.3"/>
<path class="st41" d="M646.6,549.8c0,0,6.7-6.8,14.7-3"/>
<path class="st41" d="M677.8,583.8c0,0,11.7-5.9,14.7,1.5"/>
<path class="st41" d="M706.7,596.1c0,0-8.8-0.7-8.9,3.5"/>
<path class="st42" d="M701,665.5c0,0-31.4-63.8-40-62.4c-4.1,0.7-6,4.7-6.8,8.7c-1,5.2-0.4,10.7,1.8,15.5
	C660.3,637.6,672.3,657,701,665.5z"/>
<path class="st41" d="M661.3,615.2c0,0,32.9,47.8,39.3,49.8"/>
<line class="st41" x1="658.2" y1="622.7" x2="665.9" y2="622.7"/>
<line class="st41" x1="667.4" y1="640.1" x2="679.5" y2="640.6"/>
<line class="st41" x1="674.8" y1="626.2" x2="673.5" y2="632.4"/>
<line class="st41" x1="687.6" y1="645.3" x2="687.3" y2="651"/>
<path class="st42" d="M700.1,665.5c0,0,31.4-63.8,40-62.4c4.1,0.7,6,4.7,6.8,8.7c1.1,5.2,0.5,10.7-1.7,15.5
	C740.7,637.6,728.8,657,700.1,665.5z"/>
<path class="st41" d="M739.8,615.2c0,0-32.9,47.8-39.3,49.9"/>
<line class="st41" x1="742.8" y1="622.7" x2="735.2" y2="622.7"/>
<line class="st41" x1="733.7" y1="640.1" x2="721.6" y2="640.6"/>
<line class="st41" x1="726.3" y1="626.2" x2="727.6" y2="632.4"/>
<line class="st41" x1="713.5" y1="645.3" x2="713.7" y2="651"/>
<path class="st43" d="M646.2,680.4c-0.9-0.7-1.5-1.6-1.8-2.7c-0.3-1.1,0.2-2.2,1.3-2.8c1.1-0.4,2.4,0.4,3.3,1.2s2,1.7,3.2,1.5
	c-1.3-1.2-1.8-2.9-1.5-4.6c0.1-0.3,0.2-0.7,0.4-0.9c0.6-0.7,1.8-0.4,2.5,0.2c2.4,1.7,3.1,5,3.1,8c0.1-1.1,0.1-2.2,0-3.3
	c-0.1-1.1,0.4-2.2,1.2-2.9c0.6-0.3,1.2-0.5,1.9-0.5c1.1-0.1,2.2,0.2,3,0.9c0.8,1.1,0.8,2.7-0.1,3.7c-0.9,1-2,1.9-3.2,2.5
	c-0.9,0.5-1.7,1.3-2.3,2.2c-0.1,0.1-0.1,0.3-0.2,0.4h-6.7C648.9,682.6,647.5,681.6,646.2,680.4z"/>
<path class="st43" d="M765.7,654.7c-0.9-0.7-1.5-1.6-1.8-2.7c-0.3-1.1,0.2-2.2,1.3-2.8c1.1-0.4,2.4,0.4,3.3,1.2s2,1.7,3.2,1.5
	c-1.3-1.2-1.8-2.9-1.5-4.6c0.1-0.3,0.2-0.7,0.4-0.9c0.6-0.7,1.8-0.4,2.5,0.2c2.4,1.7,3.1,5,3.1,8c0.1-1.1,0.1-2.2,0-3.3
	c-0.1-1.1,0.4-2.2,1.2-2.9c0.6-0.3,1.2-0.5,1.9-0.5c1.1-0.1,2.2,0.2,3,0.9c0.8,1.1,0.8,2.7-0.1,3.7c-0.9,1-2,1.9-3.2,2.5
	c-0.9,0.5-1.7,1.3-2.3,2.2c-0.1,0.1-0.1,0.2-0.2,0.4h-6.8C768.4,656.8,767,655.9,765.7,654.7z"/>
<path class="st43" d="M725.9,680.4c-0.9-0.7-1.5-1.6-1.8-2.7c-0.3-1.1,0.2-2.2,1.3-2.8c1.2-0.4,2.4,0.4,3.3,1.2s2,1.7,3.2,1.5
	c-1.3-1.2-1.8-2.9-1.5-4.6c0-0.3,0.2-0.7,0.4-0.9c0.6-0.7,1.8-0.4,2.5,0.2c2.4,1.7,3.1,5,3.1,8c0.1-1.1,0.1-2.2,0-3.3
	c-0.1-1.1,0.4-2.2,1.2-2.9c0.6-0.3,1.2-0.5,1.9-0.5c1.1-0.1,2.2,0.2,3,0.9c0.8,1.1,0.8,2.7-0.1,3.7c-0.9,1-2,1.9-3.2,2.5
	c-0.9,0.5-1.7,1.3-2.3,2.2c-0.1,0.1-0.1,0.3-0.2,0.4h-6.8C728.6,682.6,727.2,681.6,725.9,680.4z"/>
<path class="st43" d="M612.9,628.5c0,0-2.6,3.3,1.2,8.4s6.8,9.3,5.6,12.5c0,0-5.6-9.4-10.2-9.5S607.9,634.1,612.9,628.5z"/>
<path class="st25" d="M612.9,628.5c-0.2,0.3-0.4,0.7-0.5,1c-4.5,5.3-6.9,10.2-2.6,10.3c4,0.1,8.8,7.3,10,9.1c0,0.1-0.1,0.3-0.1,0.4
	s-5.6-9.4-10.2-9.5S607.9,634.1,612.9,628.5z"/>
<path class="st44" d="M608.2,632.7c0,1.2,0.1,2.1,0.3,2.1s0.3-1,0.3-2.1s-0.2-0.6-0.3-0.6S608.2,631.5,608.2,632.7z"/>
<path class="st44" d="M606.5,634.2c1,0.6,1.9,0.9,2,0.8s-0.7-0.7-1.7-1.3s-0.6-0.2-0.7,0S605.5,633.6,606.5,634.2z"/>
<path class="st43" d="M626.5,628.5c0,0,2.6,3.3-1.2,8.4s-6.8,9.3-5.6,12.5c0,0,5.6-9.4,10.2-9.5S631.5,634.1,626.5,628.5z"/>
<path class="st25" d="M626.5,628.5c0.2,0.3,0.4,0.7,0.5,1c4.5,5.3,6.9,10.2,2.6,10.3c-4,0.1-8.8,7.3-10,9.1c0,0.1,0.1,0.3,0.1,0.4
	s5.6-9.4,10.2-9.5S631.5,634.1,626.5,628.5z"/>
<path class="st44" d="M631.2,632.7c0,1.2-0.1,2.1-0.3,2.1s-0.3-1-0.3-2.1s0.2-0.6,0.3-0.6S631.2,631.5,631.2,632.7z"/>
<path class="st44" d="M632.8,634.2c-1,0.6-1.9,0.9-2,0.8s0.7-0.7,1.7-1.3s0.6-0.2,0.7,0S633.9,633.6,632.8,634.2z"/>
<path class="st45" d="M630.4,648.9c0,0-7.2-0.2-9.3-1.8s-11-3.4-11.5-0.9s-10.8,12.3-2.7,12.3s18.8-1.3,20.9-2.6
	S630.4,648.9,630.4,648.9z"/>
<path class="st46" d="M606.7,657.7c8.1,0.1,18.8-1.3,20.9-2.6c1.6-1,2.3-4.6,2.5-6.2h0.2c0,0-0.5,5.8-2.6,7.1s-12.8,2.6-20.9,2.6
	c-2.3,0-3.1-0.8-3.1-2.1C604.1,657.2,605,657.7,606.7,657.7z"/>
<ellipse class="st12" cx="541.7" cy="760.7" rx="34.7" ry="5.1"/>
<ellipse class="st12" cx="625.8" cy="806.8" rx="34.7" ry="5.1"/>
<ellipse class="st12" cx="985.7" cy="737.8" rx="23" ry="2.6"/>
<ellipse class="st12" cx="889.2" cy="760.7" rx="23" ry="2.6"/>
<ellipse class="st12" cx="840.8" cy="806.8" rx="23" ry="2.6"/>
<ellipse class="st12" cx="291.1" cy="825.7" rx="27.2" ry="4.7"/>
<path class="st43" d="M303.2,778.7c0,0-37.9,19.6-18.3,42.6c0,0,1.8,5,7.2,4.7c0,0-1.1-1.9,3-3.5c1.4-0.6,2.8-1.3,4.1-2.2
	c1.7-1.2,3-2.9,3.7-4.9l0,0c0,0,7.7-10.4,1.7-29.5c0,0,0.8-5.4,0.1-6.3l-4.6,6.3c0,0,4.8,3.2,5.3,7.9c0,0-5-7.9-6-7
	c-0.2,0.2-2.3,3.5-2.3,3.5s8.3,5.6,8.9,12.8c0,0-4.6-10.2-9.6-11.6l-2.8,5.1c0,0,9,5.5,10,13.7c0,0-5.2-10.5-10.6-12.6l-2.1,5.4
	c0,0,8.7,5.5,9.5,12.4c0,0-7.3-11.5-9.9-11.1c0,0-1.6,5.1-1.4,6.6c0,0,6.1,4.1,6.2,8.1c0,0-5.7-7.2-6.5-6.7c0,0-0.4,7.2,1.4,10.9
	c0,0-3-5.3-2.5-10.9c-1.8,1.6-3,3.6-3.6,5.8c0,0-1.6-4,3.7-7.6c0,0,0.5-5.6,1.1-6.3c0,0-5.8,2.8-8.3,6.3c0,0,0.9-5.2,8.8-7.8l2-5.5
	c0,0-7.9,3.3-10.3,6.3c0,0,1.8-5.2,10.9-7.6l2.7-5c0,0-7,2.4-10.4,5c0,0,2.6-4.4,11.3-6.5l2.2-3.2c0,0-5.1,1.8-6.5,2.5
	s-1.7,0.3-1.7,0.3c2.6-2.2,5.7-3.6,9.1-4.1C298.6,785.3,303.6,779.1,303.2,778.7z"/>
<rect x="117.7" y="51.2" class="st47" width="1.6" height="88.3"/>
<rect x="117.7" y="165.8" class="st47" width="1.6" height="77.7"/>
<rect x="115.3" y="255.9" class="st47" width="121.2" height="1.7"/>
<rect x="63.7" y="278.2" class="st47" width="1.6" height="70.2"/>
<rect x="77.8" y="360.8" class="st47" width="183.7" height="1.7"/>
<path class="st48" d="M274,348.4"/>
<path class="st48" d="M274,280.7"/>
<rect x="286.5" y="91.7" class="st47" width="115" height="1.7"/>
<rect x="273.3" y="104.9" class="st47" width="1.6" height="111.4"/>
<path class="st47" d="M118.4,166.8c-7.3,0-13.3-6.3-13.3-14s6-14,13.3-14s13.3,6.3,13.3,14C131.7,160.5,125.8,166.8,118.4,166.8z
	 M118.4,140.4c-6.5,0-11.7,5.5-11.7,12.4c0,6.8,5.3,12.4,11.7,12.4s11.7-5.5,11.7-12.4C130.2,145.9,124.9,140.4,118.4,140.4z"/>
<path class="st47" d="M65.3,375.6c-7.3,0-13.3-6.3-13.3-14c0-7.8,6-14,13.3-14c7.3,0,13.3,6.3,13.3,14l0,0
	C78.6,369.3,72.6,375.6,65.3,375.6z M65.3,349.2c-6.5,0-11.7,5.5-11.7,12.4c0,6.8,5.3,12.4,11.7,12.4S77,368.4,77,361.6l0,0
	C77,354.8,71.8,349.2,65.3,349.2z"/>
<rect x="442.1" y="151.9" class="st47" width="129.8" height="1.7"/>
<rect x="428.8" y="165.8" class="st47" width="1.6" height="77.7"/>
<rect x="312.3" y="255.9" class="st47" width="104" height="1.7"/>
<rect x="495.3" y="263.4" class="st47" width="107.9" height="1.7"/>
<rect x="482.8" y="278.2" class="st47" width="1.6" height="70.2"/>
<rect x="286.5" y="360.8" class="st47" width="183.7" height="1.7"/>
<rect x="273.3" y="297.2" class="st47" width="1.6" height="51.2"/>
<path class="st47" d="M414,105.7c-7.3,0-13.3-6.3-13.3-14s6-14,13.3-14c7.3,0,13.3,6.3,13.3,14C427.3,99.4,421.3,105.7,414,105.7z
	 M414,79.3c-6.5,0-11.7,5.5-11.7,12.4S407.5,104,414,104s11.7-5.5,11.7-12.4C425.7,84.8,420.5,79.3,414,79.3L414,79.3z"/>
<path class="st47" d="M274,105.7c-7.3,0-13.3-6.3-13.3-14s6-14,13.3-14s13.3,6.3,13.3,14C287.3,99.4,281.4,105.7,274,105.7z
	 M274,79.3c-6.5,0-11.7,5.5-11.7,12.4S267.6,104,274,104s11.7-5.5,11.7-12.4C285.8,84.8,280.5,79.3,274,79.3L274,79.3z"/>
<path class="st47" d="M482.8,279c-7.3,0-13.3-6.3-13.3-14c0-7.8,6-14,13.3-14s13.3,6.3,13.3,14l0,0C496.1,272.8,490.1,279,482.8,279
	z M482.8,252.6c-6.5,0-11.7,5.5-11.7,12.4s5.3,12.4,11.7,12.4s11.7-5.5,11.7-12.4l0,0C494.5,258.2,489.3,252.6,482.8,252.6z"/>
<ellipse class="st49" cx="482.8" cy="361.6" rx="12.5" ry="13.2"/>
<path class="st47" d="M274,375.6c-7.3,0-13.3-6.3-13.3-14c0-7.8,6-14,13.3-14s13.3,6.3,13.3,14l0,0
	C287.3,369.3,281.4,375.6,274,375.6z M274,349.2c-6.5,0-11.7,5.5-11.7,12.4c0,6.8,5.3,12.4,11.7,12.4s11.7-5.5,11.7-12.4l0,0
	C285.8,354.8,280.5,349.2,274,349.2z"/>
<path class="st47" d="M428.8,270.8c-7.3,0-13.3-6.3-13.3-14c0-7.8,6-14,13.3-14c7.3,0,13.3,6.3,13.3,14l0,0
	C442.1,264.5,436.2,270.8,428.8,270.8z M428.8,244.4c-6.5,0-11.7,5.5-11.7,12.4c0,6.8,5.3,12.4,11.7,12.4c6.5,0,11.7-5.5,11.7-12.4
	C440.6,249.9,435.3,244.4,428.8,244.4z"/>
<path class="st47" d="M65.3,236.9c-8.6,0-15.6,7.4-15.6,16.5s7,16.5,15.6,16.5s15.6-7.4,15.6-16.5C80.9,244.4,73.9,237,65.3,236.9z
	 M65.3,241.9c2.6,0,4.7,2.2,4.7,5s-2.1,5-4.7,5c-2.6,0-4.7-2.2-4.7-5C60.6,244.1,62.7,241.9,65.3,241.9z M65.3,265.7
	c-3.8,0-7.3-2-9.4-5.3c0.1-3.3,6.3-5.1,9.4-5.1c3.1,0,9.3,1.8,9.4,5.1C72.6,263.7,69,265.7,65.3,265.7z"/>
<path class="st47" d="M119.2,11.6c-8.6,0-15.6,7.4-15.6,16.5s7,16.5,15.6,16.5s15.6-7.4,15.6-16.5C134.8,19,127.9,11.6,119.2,11.6z
	 M119.2,16.5c2.6,0,4.7,2.2,4.7,5s-2.1,5-4.7,5c-2.6,0-4.7-2.2-4.7-5C114.5,18.8,116.6,16.6,119.2,16.5z M119.2,40.4
	c-3.8,0-7.3-2-9.4-5.3c0.1-3.3,6.3-5.1,9.4-5.1c3.1,0,9.3,1.8,9.4,5.1C126.5,38.4,123,40.4,119.2,40.4z"/>
<path class="st47" d="M593.8,135.4c-8.6,0-15.6,7.4-15.6,16.5c0,9.1,7,16.5,15.6,16.5s15.6-7.4,15.6-16.5
	C609.4,142.8,602.4,135.4,593.8,135.4z M593.8,140.4c2.6,0,4.7,2.2,4.7,5s-2.1,5-4.7,5c-2.6,0-4.7-2.2-4.7-5
	C589.1,142.6,591.2,140.4,593.8,140.4z M593.8,164.2c-3.8,0-7.3-2-9.4-5.3c0.1-3.3,6.3-5.1,9.4-5.1c3.1,0,9.3,1.8,9.4,5.1
	C601.1,162.2,597.6,164.2,593.8,164.2z"/>
<path class="st47" d="M623.5,246.9c-8.6,0-15.6,7.4-15.6,16.5s7,16.5,15.6,16.5c8.6,0,15.6-7.4,15.6-16.5
	C639.1,254.3,632.1,246.9,623.5,246.9z M623.5,251.8c2.6,0,4.7,2.2,4.7,5c0,2.7-2.1,5-4.7,5c-2.6,0-4.7-2.2-4.7-5
	C618.8,254,620.9,251.8,623.5,251.8z M623.5,275.7c-3.8,0-7.3-2-9.4-5.3c0.1-3.3,6.3-5.1,9.4-5.1c3.1,0,9.3,1.8,9.4,5.1
	C630.8,273.7,627.3,275.6,623.5,275.7z"/>
<path class="st50" d="M275,246.6l-1.6,6.8c1.8,0.5,7.4,2.4,8.3-1.4C282.7,248,276.8,247.1,275,246.6z"/>
<path class="st51" d="M272.6,256.8l-1.8,7.5c2.2,0.6,8.9,2.9,9.9-1.4C281.8,258.5,274.8,257.4,272.6,256.8z"/>
<path class="st52" d="M282.3,226.4c-15.7-4.1-31.6,6-35.5,22.5c-3.9,16.6,5.6,33.4,21.4,37.5c15.7,4.1,31.6-6,35.5-22.5
	C307.5,247.3,298,230.5,282.3,226.4C282.3,226.4,282.3,226.4,282.3,226.4z M288.1,252c-0.4,3-2,4.5-4.1,5c2.9,1.6,4.4,4,3,8.2
	c-1.7,5.2-5.9,5.7-11.3,4.6l-1.3,5.6l-3.2-0.8l1.3-5.6c-0.9-0.2-1.7-0.5-2.6-0.7l-1.3,5.6l-3.2-0.8l1.3-5.6
	c-0.8-0.2-1.5-0.4-2.3-0.6l-4.2-1.1l1.6-3.9c0,0,2.4,0.7,2.3,0.6c0.6,0.2,1.3-0.1,1.5-0.8c0,0,0,0,0,0l2.1-8.9
	c0.1,0,0.2,0.1,0.3,0.1c-0.1,0-0.2-0.1-0.3-0.1l1.5-6.4c0.1-1-0.6-1.9-1.5-2c0.1,0-2.3-0.6-2.3-0.6l0.9-3.6l4.4,1.2l0,0
	c0.7,0.2,1.4,0.3,2.1,0.5l1.3-5.6l3.2,0.8l-1.3,5.5c0.9,0.2,1.7,0.4,2.6,0.6l1.3-5.4l3.2,0.8l-1.3,5.6
	C285.7,245.7,288.7,247.9,288.1,252L288.1,252z"/>
<ellipse class="st49" cx="430.8" cy="153.6" rx="12.5" ry="13.2"/>
<ellipse class="st49" cx="119.8" cy="254.6" rx="12.5" ry="13.2"/>
</svg>
