<?xml version="1.0" encoding="utf-8"?>
<!-- Generator: Adobe Illustrator 23.0.5, SVG Export Plug-In . SVG Version: 6.00 Build 0)  -->
<svg version="1.1" id="daa92041-3bd8-464c-9c92-61b3fade74bd"
	 xmlns="http://www.w3.org/2000/svg" xmlns:xlink="http://www.w3.org/1999/xlink" x="0px" y="0px" viewBox="0 0 798.8 755.2"
	 style="enable-background:new 0 0 798.8 755.2;" xml:space="preserve">
<style type="text/css">
	.st0{fill:none;stroke:#69F0AE;stroke-width:9;stroke-miterlimit:10;}
	.st1{fill:url(#SVGID_1_);}
	.st2{fill:#FF8976;}
	.st3{fill:url(#SVGID_2_);}
	.st4{fill:#6C63FF;}
	.st5{opacity:0.2;enable-background:new    ;}
	.st6{fill:#FF4035;}
	.st7{fill:none;stroke:#69F0AE;stroke-width:9;stroke-miterlimit:10;stroke-dasharray:12.04,12.04;}
	.st8{fill:url(#SVGID_3_);}
	.st9{fill:#FFE2E1;}
	.st10{fill:url(#SVGID_4_);}
	.st11{fill:url(#SVGID_5_);}
	.st12{fill:#FFFFFF;}
	.st13{fill:url(#SVGID_6_);}
	.st14{fill:url(#SVGID_7_);}
	.st15{fill:url(#SVGID_8_);}
	.st16{opacity:0.2;fill:#FFFFFF;enable-background:new    ;}
	.st17{fill:#F5F5F5;}
	.st18{fill:url(#SVGID_9_);}
	.st19{fill:url(#SVGID_10_);}
	.st20{fill:url(#SVGID_11_);}
	.st21{fill:url(#SVGID_12_);}
	.st22{fill:url(#SVGID_13_);}
	.st23{fill:#69F0AE;}
</style>
<title>mail_2</title>
<path class="st0" d="M23.7,448.6c0,0-0.7-2-1.8-5.7"/>
<linearGradient id="SVGID_1_" gradientUnits="userSpaceOnUse" x1="650.617" y1="52.56" x2="650.617" y2="98.9628" gradientTransform="matrix(1 0 0 -1 -198.33 685.56)">
	<stop  offset="0" style="stop-color:#808080;stop-opacity:0.25"/>
	<stop  offset="0.54" style="stop-color:#808080;stop-opacity:0.12"/>
	<stop  offset="1" style="stop-color:#808080;stop-opacity:0.1"/>
</linearGradient>
<rect x="353.4" y="586.6" class="st1" width="197.7" height="46.4"/>
<rect x="358.8" y="592" class="st2" width="187.1" height="36.3"/>
<path class="st0" d="M594.2,260l5.6,2.2"/>
<linearGradient id="SVGID_2_" gradientUnits="userSpaceOnUse" x1="922.2932" y1="620.5324" x2="922.2932" y2="691.7332" gradientTransform="matrix(0.8447 0.5352 0.5352 -0.8447 -474.14 351.0537)">
	<stop  offset="0" style="stop-color:#808080;stop-opacity:0.25"/>
	<stop  offset="0.54" style="stop-color:#808080;stop-opacity:0.12"/>
	<stop  offset="1" style="stop-color:#808080;stop-opacity:0.1"/>
</linearGradient>
<polygon class="st3" points="697.5,305.1 701,305.7 700.4,305.1 700.7,305.1 700.3,305 636.2,235.7 620.7,263.7 607.7,289.2 
	613.7,290.3 611.1,304.1 "/>
<polygon class="st4" points="623.4,265.1 611.6,288.5 698.2,304.6 642.4,260.3 "/>
<polygon class="st5" points="623.4,265.1 611.6,288.5 698.2,304.6 642.4,260.3 "/>
<polygon class="st6" points="637.6,239.6 698.2,304.6 623.4,265.1 "/>
<polygon class="st6" points="614.7,302.2 697.9,304 620.3,272.6 "/>
<path class="st7" d="M187.7,415.9c-14.9-57.1-61.5-320.5,405.1-156.1"/>
<linearGradient id="SVGID_3_" gradientUnits="userSpaceOnUse" x1="614.8248" y1="94.4782" x2="614.8248" y2="271.0528" gradientTransform="matrix(1 0 0 -1 -198.33 685.56)">
	<stop  offset="0" style="stop-color:#808080;stop-opacity:0.25"/>
	<stop  offset="0.54" style="stop-color:#808080;stop-opacity:0.12"/>
	<stop  offset="1" style="stop-color:#808080;stop-opacity:0.1"/>
</linearGradient>
<path class="st8" d="M542.6,464.1c0-27.4-22.3-49.6-49.9-49.6c-24,0-44.5,16.9-49,40.4l-153.3-4.1l1.7,26.2c0,0-21.9,50.1,93,63.5
	v50.7h132.8v-84.3C533.2,497.9,542.6,481.7,542.6,464.1z"/>
<path class="st9" d="M297.4,478c0,0-20.9,48,89.1,60.8v48.6h127.2V458.8l-217.9-5.9L297.4,478z"/>
<linearGradient id="SVGID_4_" gradientUnits="userSpaceOnUse" x1="505.3292" y1="397.0865" x2="505.3292" y2="488.2543" gradientTransform="matrix(1 0 0 -1 -198.33 685.56)">
	<stop  offset="0" style="stop-color:#808080;stop-opacity:0.25"/>
	<stop  offset="0.54" style="stop-color:#808080;stop-opacity:0.12"/>
	<stop  offset="1" style="stop-color:#808080;stop-opacity:0.1"/>
</linearGradient>
<path class="st10" d="M360.9,277.6L360.9,277.6c-6.9,10.8-21.3,14.1-32.2,7.3l-68.3-44.7c-10.9-6.9-14.2-21.2-7.3-32.1l0,0
	c6.9-10.8,21.3-14.1,32.2-7.3l68.3,44.7C364.5,252.4,367.8,266.8,360.9,277.6z"/>
<path class="st9" d="M357.1,275.2L357.1,275.2c-6.4,10.1-19.8,13.1-30,6.8l-63.5-41.6c-10.1-6.4-13.2-19.7-6.8-29.8l0,0
	c6.4-10.1,19.8-13.1,30-6.8l63.5,41.6C360.4,251.8,363.5,265.1,357.1,275.2z"/>
<ellipse class="st9" cx="489.5" cy="465.7" rx="47.8" ry="47.5"/>
<linearGradient id="SVGID_5_" gradientUnits="userSpaceOnUse" x1="587.7274" y1="177.6795" x2="587.7274" y2="533.0025" gradientTransform="matrix(1 0 0 -1 -198.33 685.56)">
	<stop  offset="0" style="stop-color:#808080;stop-opacity:0.25"/>
	<stop  offset="0.54" style="stop-color:#808080;stop-opacity:0.12"/>
	<stop  offset="1" style="stop-color:#808080;stop-opacity:0.1"/>
</linearGradient>
<path class="st11" d="M297.9,152.6h183c4.2,0,7.5,3.3,7.5,7.5v340.4c0,4.1-3.4,7.5-7.5,7.5h-183c-4.2,0-7.5-3.3-7.5-7.5V160
	C290.4,155.9,293.8,152.6,297.9,152.6z"/>
<path class="st12" d="M301.5,157.4h175.9c4.6,0,8.4,3.7,8.4,8.3v329.1c0,4.6-3.8,8.3-8.4,8.3H301.5c-4.6,0-8.4-3.7-8.4-8.3V165.7
	C293.1,161.1,296.8,157.4,301.5,157.4z"/>
<path class="st4" d="M437.8,166c-1.2,7.6-7.7,13.2-15.4,13.2h-66.5c-7.7,0-14.2-5.6-15.4-13.2h-35.2c-4,0-7.3,3.2-7.3,7.3
	c0,0,0,0,0,0v313.8c0,4,3.3,7.3,7.3,7.3c0,0,0,0,0,0h168.4c4,0,7.3-3.2,7.3-7.3c0,0,0,0,0,0V173.3c0-4-3.3-7.3-7.3-7.3c0,0,0,0,0,0
	H437.8z"/>
<linearGradient id="SVGID_6_" gradientUnits="userSpaceOnUse" x1="698.4916" y1="210.8063" x2="698.4916" y2="380.0838" gradientTransform="matrix(1 0 0 -1 -198.33 685.56)">
	<stop  offset="0" style="stop-color:#808080;stop-opacity:0.25"/>
	<stop  offset="0.54" style="stop-color:#808080;stop-opacity:0.12"/>
	<stop  offset="1" style="stop-color:#808080;stop-opacity:0.1"/>
</linearGradient>
<path class="st13" d="M520.3,474.1L520.3,474.1c-13.9,3.2-23.4-5.8-26.6-19.6L461.9,337c-3.2-13.8,5.5-27.6,19.4-30.8l0,0
	c13.9-3.2,27.8,5.5,31,19.3l26,120.6C541.5,459.8,534.2,470.9,520.3,474.1z"/>
<path class="st9" d="M482.7,312.1L482.7,312.1c11.7-2.7,23.4,4.6,26.1,16.2l29.3,126c2.7,11.6-4.6,23.2-16.3,25.9l0,0
	c-11.7,2.7-23.4-4.6-26.1-16.2l-29.3-126C463.7,326.4,471,314.8,482.7,312.1z"/>
<linearGradient id="SVGID_7_" gradientUnits="userSpaceOnUse" x1="587.2061" y1="365.9748" x2="587.2061" y2="451.5383" gradientTransform="matrix(1 0 0 -1 -198.34 685.57)">
	<stop  offset="0" style="stop-color:#000000;stop-opacity:0.12"/>
	<stop  offset="0.55" style="stop-color:#000000;stop-opacity:9.000000e-02"/>
	<stop  offset="1" style="stop-color:#000000;stop-opacity:2.000000e-02"/>
</linearGradient>
<path class="st14" d="M430,263.9l-14.1-10.5l6.1-7.9l-10.2-8l-6.4,8.1l-14.5-10.8c-1.1-0.8-2.7-0.8-3.8,0l-38.4,28.4
	c-1.5,1.2-2.8,2.6-2.8,5.8h0l-0.1,43.8l0,0v1.9c0,2.6,2.1,4.8,4.8,4.8l0,0h1.9l36.4,0.1l38.3,0.1c2.7,0,4.8-2.1,4.8-4.8c0,0,0,0,0,0
	l0.1-45.7h0.1C432.1,266,431.4,265.1,430,263.9z"/>
<linearGradient id="SVGID_8_" gradientUnits="userSpaceOnUse" x1="587.2092" y1="369.6931" x2="587.2092" y2="447.765" gradientTransform="matrix(1 0 0 -1 -198.34 685.57)">
	<stop  offset="0" style="stop-color:#808080;stop-opacity:0.25"/>
	<stop  offset="0.54" style="stop-color:#808080;stop-opacity:0.12"/>
	<stop  offset="1" style="stop-color:#808080;stop-opacity:0.1"/>
</linearGradient>
<path class="st15" d="M428.3,269.8c0-2.9-0.6-3.7-1.9-4.8l-35.7-26.7c-1-0.8-2.5-0.8-3.5,0l-35,25.9c-1.7,1.2-2.7,3.2-2.6,5.3h0
	l-0.1,40l0,0v1.8c0,2.4,2,4.4,4.4,4.4h1.7l33.2,0.1l34.9,0.1c2.4,0,4.4-1.9,4.4-4.3L428.3,269.8L428.3,269.8z"/>
<path class="st4" d="M350.2,269.8l77.3,0.2l0,0l-0.1,42.3c0,1.4-1.2,2.5-2.6,2.5l-71.9-0.2c-1.6,0-2.8-1.3-2.8-2.8L350.2,269.8
	L350.2,269.8L350.2,269.8z"/>
<path class="st16" d="M350.2,269.8l77.3,0.2l0,0l-0.1,42.3c0,1.4-1.2,2.5-2.6,2.5l-71.9-0.2c-1.6,0-2.8-1.3-2.8-2.8L350.2,269.8
	L350.2,269.8L350.2,269.8z"/>
<path class="st17" d="M350.2,269.8l-0.1,38.8c0,3.3,2.7,6,6,6c0,0,0,0,0,0l65.3,0.1"/>
<path class="st12" d="M427.5,269.9l-0.1,38.9c0,3.3-2.7,6-6,6l0,0l-65.3-0.1"/>
<path class="st4" d="M387.2,239.4l-34.4,25.2c-1.7,1.2-2.6,3.1-2.5,5.2l77.3,0.2c0-2.8-0.6-3.6-1.9-4.7l-35-25.9
	C389.6,238.6,388.2,238.6,387.2,239.4z"/>
<path class="st5" d="M387.2,239.4l-34.4,25.2c-1.7,1.2-2.6,3.1-2.5,5.2l77.3,0.2c0-2.8-0.6-3.6-1.9-4.7l-35-25.9
	C389.6,238.6,388.2,238.6,387.2,239.4z"/>
<linearGradient id="SVGID_9_" gradientUnits="userSpaceOnUse" x1="591.6949" y1="400.3336" x2="591.6949" y2="446.019" gradientTransform="matrix(1 2.268926e-03 2.268926e-03 -1 -199.4151 685.5206)">
	<stop  offset="0" style="stop-color:#000000;stop-opacity:0.12"/>
	<stop  offset="0.55" style="stop-color:#000000;stop-opacity:9.000000e-02"/>
	<stop  offset="1" style="stop-color:#000000;stop-opacity:2.000000e-02"/>
</linearGradient>
<polygon class="st18" points="419.1,248.2 409.8,240.9 387.1,269.3 375,260 367.4,269.6 385.1,283 385.1,283 389.5,286.5 "/>
<polygon class="st12" points="418.4,248 409.9,241.5 387.5,270.7 375,261.1 368.5,269.6 385.2,282.3 385.2,282.3 389.5,285.5 "/>
<linearGradient id="SVGID_10_" gradientUnits="userSpaceOnUse" x1="495.9399" y1="333.0899" x2="495.9399" y2="416.7536" gradientTransform="matrix(1 0 0 -1 -198.33 685.56)">
	<stop  offset="0" style="stop-color:#808080;stop-opacity:0.25"/>
	<stop  offset="0.54" style="stop-color:#808080;stop-opacity:0.12"/>
	<stop  offset="1" style="stop-color:#808080;stop-opacity:0.1"/>
</linearGradient>
<path class="st19" d="M346.3,341.7L346.3,341.7c-6.9,10.7-21.1,14-32,7.2l-58-37.6c-10.8-6.8-14.1-21-7.3-31.8l0,0
	c6.9-10.7,21.1-14,32-7.2l58,37.6C349.8,316.7,353.1,330.9,346.3,341.7z"/>
<path class="st9" d="M343.2,339.7L343.2,339.7c-6.4,10.1-19.8,13.1-30,6.8l-54.4-35.2c-10.1-6.4-13.2-19.7-6.8-29.8l0,0
	c6.4-10.1,19.8-13.1,30-6.8l54.4,35.2C346.5,316.3,349.5,329.6,343.2,339.7z"/>
<linearGradient id="SVGID_11_" gradientUnits="userSpaceOnUse" x1="490.3033" y1="271.0909" x2="490.3033" y2="346.4377" gradientTransform="matrix(1 0 0 -1 -198.33 685.56)">
	<stop  offset="0" style="stop-color:#808080;stop-opacity:0.25"/>
	<stop  offset="0.54" style="stop-color:#808080;stop-opacity:0.12"/>
	<stop  offset="1" style="stop-color:#808080;stop-opacity:0.1"/>
</linearGradient>
<path class="st20" d="M334.4,403.8L334.4,403.8c-6.8,10.7-21.1,13.9-31.9,7.2l-45.8-29.5c-10.8-6.8-14-20.9-7.2-31.7l0,0
	c6.8-10.7,21.1-13.9,31.9-7.2l45.8,29.5C337.9,378.9,341.2,393,334.4,403.8z"/>
<linearGradient id="SVGID_12_" gradientUnits="userSpaceOnUse" x1="487.3445" y1="208.6292" x2="487.3445" y2="275.4922" gradientTransform="matrix(1 0 0 -1 -198.33 685.56)">
	<stop  offset="0" style="stop-color:#808080;stop-opacity:0.25"/>
	<stop  offset="0.54" style="stop-color:#808080;stop-opacity:0.12"/>
	<stop  offset="1" style="stop-color:#808080;stop-opacity:0.1"/>
</linearGradient>
<path class="st21" d="M322.9,466.1L322.9,466.1c-6.9,10.8-21.2,14-32.1,7.3l-28.4-20.6c-10.9-6.8-14.1-21.1-7.3-32l0,0
	c6.9-10.8,21.2-14,32.1-7.2l28.4,20.6C326.5,441,329.7,455.3,322.9,466.1z"/>
<path class="st9" d="M320.6,464.6L320.6,464.6c-6.4,10.1-19.8,13.1-30,6.8l-26.4-19.2c-10.1-6.4-13.2-19.7-6.8-29.8l0,0
	c6.4-10.1,19.8-13.1,30-6.8l26.4,19.2C324,441.2,327,454.5,320.6,464.6z"/>
<linearGradient id="SVGID_13_" gradientUnits="userSpaceOnUse" x1="389.3973" y1="370.6385" x2="389.3973" y2="407.8828" gradientTransform="matrix(1 0 0 -1 0 758)">
	<stop  offset="0" style="stop-color:#000000;stop-opacity:0.12"/>
	<stop  offset="0.55" style="stop-color:#000000;stop-opacity:9.000000e-02"/>
	<stop  offset="1" style="stop-color:#000000;stop-opacity:2.000000e-02"/>
</linearGradient>
<rect x="326.8" y="350.1" class="st22" width="125.3" height="37.2"/>
<rect x="331.1" y="353.8" class="st23" width="116.7" height="26.9"/>
<path class="st9" d="M331.9,402.2L331.9,402.2c-6.4,10.1-19.8,13.1-30,6.8l-43.1-27.7c-10.1-6.4-13.2-19.7-6.8-29.8l0,0
	c6.4-10.1,19.8-13.1,30-6.8l43.1,27.7C335.2,378.7,338.3,392.1,331.9,402.2z"/>
</svg>
