<?xml version="1.0" encoding="utf-8"?>
<!-- Generator: Adobe Illustrator 23.0.5, SVG Export Plug-In . SVG Version: 6.00 Build 0)  -->
<svg version="1.1" id="master-artboard" xmlns="http://www.w3.org/2000/svg" xmlns:xlink="http://www.w3.org/1999/xlink" x="0px"
	 y="0px" viewBox="0 0 1400 980" style="enable-background:new 0 0 1400 980;" xml:space="preserve">
<style type="text/css">
	.st0{fill:#FFFFFF;fill-opacity:0;}
	.st1{fill:#605D82;}
	.st2{fill:#F2F2F2;}
	.st3{fill:none;stroke:#3F3D56;stroke-miterlimit:10;}
	.st4{fill:#F86B75;}
	.st5{fill:#FAD375;}
	.st6{fill:#8BCC55;}
	.st7{fill:#4D00F2;}
	.st8{fill:#FF890A;}
	.st9{fill:#00BFFF;}
	.st10{fill:#FF0015;}
	.st11{fill:#46455B;}
	.st12{opacity:0.1;enable-background:new    ;}
	.st13{fill:#FBBEBE;}
	.st14{fill:#E6E6E6;}
	.st15{fill:#6C63FF;}
	.st16{fill:#3F3D56;}
	.st17{fill:#002FAA;}
	.st18{fill:#0A00BF;}
	.st19{fill:#FFFFFF;}
</style>
<rect id="ee-background" x="141.8" y="255.5" class="st0" width="1244" height="552"/>
<g transform="matrix(1.379945755004883, 0, 0, 1.379945755004883, 10.491383008201751, 62.0480431103457)">
	<title>media player</title>
	<path class="st1" d="M272.9,532.5h-4.8c-2.2,0-4-1.7-4-3.7v-12.6h8.8l3.5,12c0.5,1.8-0.6,3.7-2.6,4.2
		C273.5,532.4,273.2,532.5,272.9,532.5L272.9,532.5z"/>
	<path class="st2" d="M164.7,226.1h547.8c5.9,0,10.6,4.4,10.6,9.8l0,0v180.4c0,5.4-4.7,9.8-10.6,9.8l0,0H164.7
		c-5.9,0-10.6-4.4-10.6-9.8V235.9C154.1,230.5,158.9,226.1,164.7,226.1L164.7,226.1z"/>
	<path class="st3" d="M101.3,91.3h749.1c6,0,10.9,4.5,10.9,10.1l0,0v367.3c0,5.6-4.9,10.1-10.9,10.1l0,0H101.3
		c-6,0-10.9-4.5-10.9-10.1V101.4C90.4,95.8,95.3,91.3,101.3,91.3L101.3,91.3z"/>
	<path class="st3" d="M88.4,118.4h771"/>
	<path class="st3" d="M88.4,165.4h771"/>
	<path class="st4" d="M116,107.6c0,4.1-3.6,7.4-8,7.4s-8-3.3-8-7.4c0-4.1,3.6-7.4,8-7.4S116,103.5,116,107.6z"/>
	<path class="st5" d="M140.9,107.6c0,4.1-3.6,7.4-8,7.4s-8-3.3-8-7.4c0-4.1,3.6-7.4,8-7.4S140.9,103.5,140.9,107.6z"/>
	<path class="st6" d="M165.7,107.6c0,4.1-3.6,7.4-8,7.4s-8-3.3-8-7.4c0-4.1,3.6-7.4,8-7.4C162.1,100.2,165.7,103.5,165.7,107.6z"/>
	<path class="st3" d="M118.4,104.6c0,4.1-3.6,7.4-8,7.4s-8-3.3-8-7.4c0-4.1,3.6-7.4,8-7.4S118.4,100.5,118.4,104.6z"/>
	<path class="st3" d="M143.3,104.6c0,4.1-3.6,7.4-8,7.4s-8-3.3-8-7.4c0-4.1,3.6-7.4,8-7.4S143.3,100.5,143.3,104.6z"/>
	<path class="st3" d="M168.1,104.6c0,4.1-3.6,7.4-8,7.4s-8-3.3-8-7.4c0-4.1,3.6-7.4,8-7.4C164.5,97.2,168.1,100.5,168.1,104.6z"/>
	<path class="st7" d="M284.7,145.7c0,8.2-7.2,14.8-16,14.8s-16-6.6-16-14.8s7.2-14.8,16-14.8S284.7,137.5,284.7,145.7z"/>
	<path class="st3" d="M288.7,142c0,8.2-7.2,14.8-16,14.8s-16-6.6-16-14.8c0-8.2,7.2-14.8,16-14.8S288.7,133.8,288.7,142z"/>
	<path class="st8" d="M497.4,138H568c2.4,0,4.3,1.8,4.3,4v12c0,2.2-1.9,4-4.3,4h-70.6c-2.4,0-4.3-1.8-4.3-4v-12
		C493.1,139.8,495,138,497.4,138z"/>
	<path class="st9" d="M610.4,138H681c2.4,0,4.3,1.8,4.3,4v12c0,2.2-1.9,4-4.3,4h-70.6c-2.4,0-4.3-1.8-4.3-4v-12
		C606.1,139.8,608,138,610.4,138z"/>
	<path class="st3" d="M502.1,132h72.6c1.9,0,3.4,1.4,3.4,3.1v13.8c0,1.7-1.5,3.1-3.4,3.1h-72.6c-1.9,0-3.4-1.4-3.4-3.1v-13.7
		C498.7,133.4,500.2,132,502.1,132z"/>
	<path class="st3" d="M615.1,132h72.6c1.9,0,3.4,1.4,3.4,3.1v13.8c0,1.7-1.5,3.1-3.4,3.1h-72.6c-1.9,0-3.4-1.4-3.4-3.1v-13.7
		C611.7,133.4,613.2,132,615.1,132z"/>
	<path class="st3" d="M193.8,213.5h543.4c7.1,0,12.8,5.3,12.8,11.9l0,0v176.3c0,6.5-5.7,11.9-12.8,11.9l0,0H193.8
		c-7.1,0-12.8-5.3-12.8-11.9V225.4C180.9,218.8,186.7,213.5,193.8,213.5z"/>
	<path class="st3" d="M305.6,361.4c26.6-13.2,36.6-43.8,22.3-68.4c-14.3-24.6-47.4-33.8-74-20.6c-4.1,2-7.9,4.5-11.2,7.4
		 M268.8,302.7v-8.6l32.8,22.7l-7.5,4.8"/>
	<path class="st10" d="M271.8,271.5c-30.2,0-54.7,22.6-54.7,50.5c0,27.9,24.5,50.5,54.7,50.5s54.7-22.6,54.7-50.5l0,0
		C326.4,294.2,301.9,271.5,271.8,271.5z M260.8,344.8v-45.5l32.8,22.7L260.8,344.8z"/>
	<path class="st11" d="M250.5,410c0,0-9.8,31.6-10.2,45.4c-0.4,13.8-2.1,35.9-0.9,41.4s5.1,16.6,5.1,16.6s8.1-9.1,11.1-3.9
		c0,0-0.4-10.7-2.6-13.8c0,0,0.9-16.6,0.9-22.5s10.7-33.1,11.5-33.5c0.9-0.4,3.4,7.5,1.3,24.9s-3.8,47.8-3.8,50.9
		c0,3.1,5.1,9.5,8.5,7.5s5.5-18.9,5.5-18.9s3-35.5,4.7-39.5c1.7-3.9,10.7-49.3,3.8-52.9C278.7,408,250.5,410,250.5,410z"/>
	<path class="st1" d="M257.7,512.6c-0.4,1.6-2.1,9.1-2.1,11.4s1.7,6.7-5.5,8.3c-7.1,1.5-6-2.5-7.2-4.9c0-0.1-0.1-0.1-0.1-0.2
		c-1.3-2.4,1.7-14.6,2.1-14.6c0.3,0,2.3-3.1,3.9-5.7c1.2-2,4-2.7,6.2-1.6c0.3,0.2,0.6,0.4,0.9,0.6c1.4,1.2,2.1,2.9,2.1,4.7
		C258,511.2,257.9,511.9,257.7,512.6z"/>
	<path class="st12" d="M257.7,512.6c-0.4,1.6-2.1,9.1-2.1,11.4s1.7,6.7-5.5,8.3c-7.1,1.5-6-2.5-7.2-4.9c1.2-2.9,4.2-9.3,6.3-14.8
		c1.9-4.9,6.4-3.3,8.8-2.1C258,511.2,257.9,511.9,257.7,512.6z"/>
	<path class="st13" d="M279.1,340.6c0,4.6-4,8.3-9,8.3s-9-3.7-9-8.3c0-4.6,4-8.3,9-8.3C275.1,332.3,279.1,336,279.1,340.6z"/>
	<path class="st13" d="M262.9,342.1l-1.3,13l15.4,2.4c0,0-1.7-11.4-0.4-13.8C277.8,341.3,262.9,342.1,262.9,342.1z"/>
	<path class="st1" d="M274.8,352.4c0,0-12.8-1.2-13.7,0c-0.6,1-0.9,2.1-0.9,3.2c0,0-5.1,2-6,1.2s-1.7-3.2-4.3-2.4
		c-2.6,0.8-7.7,15-7.7,15s1.3-4.3,3.4,12.2s1.7,26.8,2.1,28s-2.1,8.3,13.2,8.3c15.4,0,26.5-0.8,26.5-3.6c0-2.8-2.6-14.6,0-23.3
		c2.6-8.7,6.4-20.5,6.4-20.5l-5.1-15.4c0,0-5.1-1.2-6.4,0.8s-4.7,1.6-4.7,1.6S277.4,352.8,274.8,352.4z"/>
	<path class="st1" d="M250.5,355.2l-10.7-4.3c0,0-20.1-14.2-19.2-26.8c0,0-6.8-5.9-7.3,0.4c-0.4,6.3,1.7,20.5,6.8,25.3
		c5.1,4.7,22.6,19.7,25.2,20.1C247.9,370.1,250.5,355.2,250.5,355.2z"/>
	<path class="st13" d="M214.2,325.2c0,0-8.1-20.5-0.9-19.7c7.2,0.8,5.5,9.5,5.5,9.5v10.3L214.2,325.2L214.2,325.2z"/>
	<path class="st1" d="M287.2,355.9l10.7-4.3c0,0,20.1-14.2,19.2-26.8c0,0,6.8-5.9,7.3,0.4s-1.7,20.5-6.8,25.3
		c-5.1,4.7-22.6,19.7-25.2,20.1C289.8,370.9,287.2,355.9,287.2,355.9z"/>
	<path class="st13" d="M323.5,326c0,0,8.1-20.5,0.9-19.7c-7.2,0.8-5.5,9.5-5.5,9.5v10.3L323.5,326z"/>
	<path class="st11" d="M277,330.7l1.3-0.8c0,0-8.1-4.3-11.5-2c-3.4,2.4-4.3,4.3-5.1,5.1c-0.9,0.8-3,5.1-1.7,6.7s0.9,1.9,1.7,3.3
		s-1.5,7.1,5,8.8c6.5,1.7,11.6-5.4,12.5-7C279.9,343.3,282.9,332.7,277,330.7z"/>
	<path class="st3" d="M163.9,532.5h189.9"/>
	<path class="st2" d="M140.7,258.1"/>
</g>
<g transform="matrix(0.9709793329238892, 0, 0, 0.9709793329238892, 156.85898154608242, 241.05650410888086)">
	<path class="st14" d="M715.7,213.4h-83.2v1.5h83.3c8.6,0,15.5,6.9,15.5,15.5c0,8.6-6.9,15.5-15.5,15.5h-126
		c-8.6,0-15.5-6.9-15.5-15.5c0-8.5,6.9-15.5,15.5-15.5h4.7v-1.5h-4.7c-9.4,0-17,7.6-17,17s7.6,17,17,17l0,0h126c9.4,0,17-7.6,17-17
		S725,213.4,715.7,213.4L715.7,213.4z"/>
	<path class="st15" d="M715.7,265.9h-83.2v1.5h83.3c8.6,0,15.5,6.9,15.5,15.5c0,8.6-6.9,15.5-15.5,15.5h-126
		c-8.6,0-15.5-6.9-15.5-15.5c0-8.6,6.9-15.5,15.5-15.5h4.7v-1.5h-4.7c-9.4,0-17,7.6-17,17s7.6,17,17,17h126c9.4,0,17-7.6,17-17
		C732.6,273.5,725,265.9,715.7,265.9z"/>
	<path class="st14" d="M715.7,318.3h-83.2v1.5h83.3c8.6,0,15.5,6.9,15.5,15.5s-6.9,15.5-15.5,15.5h-126c-8.6,0-15.5-6.9-15.5-15.5
		s6.9-15.5,15.5-15.5h4.7v-1.5h-4.7c-9.4,0-17,7.6-17,17s7.6,17,17,17l0,0h126c9.4,0,17-7.6,17-17
		C732.6,325.8,725,318.3,715.7,318.3z"/>
	<path id="bcf0cfa3-66a2-4303-bdd5-8030f4bfd15a" class="st16" d="M603.8,209.5c-2.5,0.1-4.5,2.1-4.4,4.6c0.1,2.5,2,4.4,4.4,4.4
		h19.8c2.5,0,4.5-2,4.6-4.4c0-2.5-2-4.5-4.4-4.6c-0.1,0-0.1,0-0.2,0H603.8z"/>
	<path id="ec7ee251-c029-4a40-a2db-c56bfeeebca2" class="st16" d="M603.8,262.6c-2.5,0.1-4.5,2.1-4.4,4.6c0.1,2.5,2,4.4,4.4,4.4
		h19.8c2.5,0.1,4.5-2,4.6-4.4c0.1-2.5-2-4.5-4.4-4.6c-0.1,0-0.1,0-0.2,0H603.8z"/>
	<path id="a580efb3-72c6-475f-9d34-6093d6a0cbd0" class="st16" d="M603.8,314.2c-2.5,0.1-4.5,2.1-4.4,4.6c0.1,2.5,2,4.4,4.4,4.4
		h19.8c2.5,0.1,4.5-2,4.6-4.4c0.1-2.5-2-4.5-4.4-4.6c-0.1,0-0.1,0-0.2,0H603.8z"/>
	<path id="fe8fe944-e2e2-4630-bb61-cdb395efd789" class="st14" d="M596,225.9c-2.5,0.1-4.5,2.1-4.4,4.6c0.1,2.5,2,4.4,4.4,4.4h113.3
		c2.5,0.1,4.5-2,4.6-4.4c0.1-2.5-2-4.5-4.4-4.6c-0.1,0-0.1,0-0.2,0H596z"/>
	<path class="st14" d="M715.7,164.1h-83.2v1.5h83.3c8.6,0,15.5,6.9,15.5,15.5c0,8.6-6.9,15.5-15.5,15.5h-126
		c-8.6,0-15.5-6.9-15.5-15.5c0-8.5,6.9-15.4,15.5-15.5h4.7v-1.5h-4.7c-9.4,0-17,7.6-17,17c0,9.4,7.6,17,17,17h126
		c9.4,0,17-7.6,17-17C732.6,171.7,725,164.1,715.7,164.1z"/>
	<path id="bcfa29a8-6865-4c73-8c61-6a785352b808" class="st16" d="M603.8,160.1c-2.5,0.1-4.5,2.1-4.4,4.6c0.1,2.5,2,4.4,4.4,4.4
		h19.8c2.5,0.1,4.5-2,4.6-4.4c0.1-2.5-2-4.5-4.4-4.6l0,0c-0.1,0-0.1,0-0.2,0H603.8z"/>
	<path id="e794b9a0-7aca-4299-a24e-8f26dee3f545" class="st14" d="M596,176.6c-2.5,0.1-4.5,2.1-4.4,4.6c0.1,2.5,2,4.4,4.4,4.4h113.3
		c2.5,0.1,4.5-1.9,4.6-4.4c0.1-2.5-1.9-4.5-4.4-4.6l0,0c-0.1,0-0.1,0-0.2,0H596z"/>
	<path id="bf86555d-9ede-426e-830a-ea26134fbb4f" class="st15" d="M596,278.3c-2.5,0.1-4.5,2.1-4.4,4.6c0.1,2.5,2,4.4,4.4,4.4h113.3
		c2.5,0.1,4.5-2,4.6-4.4c0.1-2.5-2-4.5-4.4-4.6c-0.1,0-0.1,0-0.2,0H596z"/>
	<path id="bd15929f-7f71-4330-8805-c384166b6a45" class="st14" d="M596,330.7c-2.5,0.1-4.5,2.1-4.4,4.6c0.1,2.5,2,4.4,4.4,4.4h113.3
		c2.5,0.1,4.5-2,4.6-4.4c0.1-2.5-2-4.5-4.4-4.6l0,0c-0.1,0-0.1,0-0.2,0H596z"/>
	<path class="st15" d="M766.5,283.1l-17.1-9.8V293L766.5,283.1l-17.1-9.8V293L766.5,283.1z"/>
	<path class="st17" d="M781.2,390.9H514c-1.9,0-3.4-1.5-3.4-3.4V124.8c0-1.9,1.5-3.4,3.4-3.4h277.4c1.9,0,3.4,1.5,3.4,3.4v155.5h2.3
		V124.8c0-3.2-2.5-5.7-5.7-5.7H514c-3.2,0-5.7,2.5-5.7,5.7v262.7c0,3.2,2.5,5.7,5.7,5.7h267.3V390.9L781.2,390.9z"/>
	<path class="st15" d="M1026.5,276.5H786.9c-3.1,0-5.6,2-5.6,4.4v51.8H1032v-51.8C1032,278.5,1029.6,276.5,1026.5,276.5z"/>
	<path class="st18" d="M1027.9,275H785.4c-3.2,0-5.7,2.5-5.7,5.7v193.6c0,3.2,2.5,5.7,5.7,5.7h242.5c3.2,0,5.7-2.5,5.7-5.7V280.7
		C1033.6,277.5,1031,275,1027.9,275z M1031.3,474.3c0,1.9-1.5,3.4-3.4,3.4H785.4c-1.9,0-3.4-1.5-3.4-3.4V280.7
		c0-1.9,1.5-3.4,3.4-3.4h242.5c1.9,0,3.4,1.5,3.4,3.4V474.3z"/>
	<path class="st14" d="M969.7,361h-83.3v1.5h83.3c8.6,0,15.5,6.9,15.5,15.5s-6.9,15.5-15.5,15.5h-126c-8.6,0-15.5-6.9-15.5-15.5
		s6.9-15.5,15.5-15.5h4.7V361h-4.7c-9.4,0-17,7.6-17,17c0,9.4,7.6,17,17,17h126c9.4,0,17-7.6,17-17C986.6,368.6,979,361.1,969.7,361
		z"/>
	<path class="st14" d="M969.7,413.4h-83.3v1.5h83.3c8.6,0,15.5,6.9,15.5,15.4c0,8.6-6.9,15.5-15.4,15.5l0,0h-126
		c-8.6,0-15.5-6.9-15.5-15.5c0-8.6,6.9-15.5,15.5-15.5h4.7v-1.5h-4.7c-9.4,0-17,7.6-17,17c0,9.4,7.6,17,17,17l0,0h126
		c9.4,0,17-7.6,17-17C986.6,421,979,413.4,969.7,413.4z"/>
	<path id="f0e892c8-c763-4555-99cb-2aee4aa2c1bd" class="st16" d="M857.8,357.7c-2.5,0.1-4.5,2.1-4.4,4.6c0.1,2.5,2,4.4,4.4,4.4
		h19.8c2.5,0.1,4.5-2,4.6-4.4s-2-4.5-4.4-4.6c-0.1,0-0.1,0-0.2,0H857.8z"/>
	<path id="b030a2e8-ef2c-42ed-9562-f4777aec2710" class="st16" d="M857.8,409.4c-2.5,0.1-4.5,2.1-4.4,4.6c0.1,2.5,2,4.4,4.4,4.4
		h19.8c2.5,0.1,4.5-2,4.6-4.4s-2-4.5-4.4-4.6l0,0c-0.1,0-0.1,0-0.2,0H857.8z"/>
	<path id="b7b74475-3363-467c-a0a1-8003b6263e2a" class="st14" d="M850,373.4c-2.5,0.1-4.5,2.1-4.4,4.6c0.1,2.5,2,4.4,4.4,4.4h113.3
		c2.5,0.1,4.5-2,4.6-4.4c0.1-2.5-2-4.5-4.4-4.6l0,0c-0.1,0-0.1,0-0.2,0H850z"/>
	<path id="ef56dfc7-cfad-4aec-8de6-97ba4c392594" class="st14" d="M850,425.9c-2.5,0.1-4.5,2.1-4.4,4.6c0.1,2.5,2,4.4,4.4,4.4h113.3
		c2.5,0.1,4.5-2,4.6-4.4c0.1-2.5-2-4.5-4.4-4.6l0,0c-0.1,0-0.1,0-0.2,0H850z"/>
	<path class="st19" d="M831,304.6c0,9-7.3,16.3-16.4,16.3c-9,0-16.4-7.3-16.4-16.3c0-9,7.3-16.3,16.4-16.3
		C823.7,288.3,831,295.6,831,304.6z"/>
	<path id="b00574f6-7832-428e-9f30-d233874666a9" class="st19" d="M843.9,291.7c-2.2,0-4,1.9-4,4.1c0,2.2,1.8,4,4,4h101.6
		c2.2,0,4-1.7,4.1-4c0-2.2-1.7-4-4-4.1l0,0c-0.1,0-0.1,0-0.2,0H843.9z"/>
	<path id="a75f2174-018f-4ccd-a38d-4db47ce7fed4" class="st19" d="M843.9,309.4c-2.2,0-4,1.9-4,4.1c0,2.2,1.8,4,4,4h167
		c2.2,0,4-1.7,4.1-4c0-2.2-1.7-4-4-4.1l0,0c-0.1,0-0.1,0-0.2,0H843.9z"/>
</g>
</svg>
